<svg xmlns="http://www.w3.org/2000/svg" xmlns:xlink="http://www.w3.org/1999/xlink" viewBox="0 0 244.538 124.535" id="svg00002" >
   <defs>
         <clipPath id="inset-00001" >
               <rect x="19.0155" y="23.2798" width="19.8" height="27.72" id="rect1634" style="stroke-width: 1; stroke: #00eff6; fill: none; stroke-dasharray: 0 ; " />

      </clipPath>
      <clipPath id="inset-00002" >
               <rect x="85.8605" y="48.2618" width="22.4473" height="24.7102" id="rect1688" style="stroke-width: 1; stroke: #f6a600; fill: none; stroke-dasharray: 0 ; " />

      </clipPath>
      <clipPath id="inset-00003" >
               <rect x="19.0012" y="87.1911" width="27.7488" height="12.4745" id="rect1570" style="stroke-width: 1; stroke: #21f600; fill: none; stroke-dasharray: 0 ; " />

      </clipPath>
      <clipPath id="inset-00001" >
               <rect x="19.0155" y="23.2798" width="19.8" height="27.72" id="rect1634" style="stroke-width: 1; stroke: #00eff6; fill: none; stroke-dasharray: 0 ; " />

      </clipPath>
      <clipPath id="inset-00002" >
               <rect x="85.8605" y="48.2618" width="22.4473" height="24.7102" id="rect1688" style="stroke-width: 1; stroke: #f6a600; fill: none; stroke-dasharray: 0 ; " />

      </clipPath>
      <clipPath id="inset-00003" >
               <rect x="19.0012" y="87.1911" width="27.7488" height="12.4745" id="rect1570" style="stroke-width: 1; stroke: #21f600; fill: none; stroke-dasharray: 0 ; " />

      </clipPath>

   </defs>
   <image href="flowers.jpg" xlink:href="flowers.jpg" x="0" y="0" width="159.191" height="124.535" id="image1941" preserveAspectRatio="none" />
   <rect x="19.0155" y="23.2798" width="19.8" height="27.72" id="rect1634" style="stroke-width: 1; stroke: #00eff6; fill: none; stroke-dasharray: 0 ; " />
   <rect x="85.8605" y="48.2618" width="22.4473" height="24.7102" id="rect1688" style="stroke-width: 1; stroke: #f6a600; fill: none; stroke-dasharray: 0 ; " />
   <rect x="19.0012" y="87.1911" width="27.7488" height="12.4745" id="rect1570" style="stroke-width: 1; stroke: #21f600; fill: none; stroke-dasharray: 0 ; " />
   <image href="flowers.jpg" xlink:href="flowers.jpg" x="0" y="0" width="159.191" height="124.535" id="image1941" transform="translate(161.182 0.5) scale(2.02944 2.02944) translate(-19.0155 -23.2798)" clip-path="url(#inset-00001)" preserveAspectRatio="none" />
   <rect x="161.182" y="0.5" width="40.1829" height="56.2561" id="rect1634" style="stroke-width: 1; stroke: #00eff6; fill: none; stroke-dasharray: 0 ; " />
   <image href="flowers.jpg" xlink:href="flowers.jpg" x="0" y="0" width="159.191" height="124.535" id="image1941" transform="translate(161.182 59.2468) scale(1.7901 1.7901) translate(-85.8605 -48.2618)" clip-path="url(#inset-00002)" preserveAspectRatio="none" />
   <rect x="161.182" y="59.2468" width="40.1829" height="44.2336" id="rect1688" style="stroke-width: 1; stroke: #f6a600; fill: none; stroke-dasharray: 0 ; " />
   <image href="flowers.jpg" xlink:href="flowers.jpg" x="0" y="0" width="159.191" height="124.535" id="image1941" transform="translate(161.182 105.971) scale(1.4481 1.4481) translate(-19.0012 -87.1911)" clip-path="url(#inset-00003)" preserveAspectRatio="none" />
   <rect x="161.182" y="105.971" width="40.1829" height="18.0642" id="rect1570" style="stroke-width: 1; stroke: #21f600; fill: none; stroke-dasharray: 0 ; " />
   <image href="flowers2.jpg" xlink:href="flowers2.jpg" x="0" y="0" width="159.191" height="124.535" id="image1941" transform="translate(203.855 0.5) scale(2.02944 2.02944) translate(-19.0155 -23.2798)" clip-path="url(#inset-00001)" preserveAspectRatio="none" />
   <rect x="203.855" y="0.5" width="40.1829" height="56.2561" id="rect1634" style="stroke-width: 1; stroke: #00eff6; fill: none; stroke-dasharray: 0 ; " />
   <image href="flowers2.jpg" xlink:href="flowers2.jpg" x="0" y="0" width="159.191" height="124.535" id="image1941" transform="translate(203.855 59.2468) scale(1.7901 1.7901) translate(-85.8605 -48.2618)" clip-path="url(#inset-00002)" preserveAspectRatio="none" />
   <rect x="203.855" y="59.2468" width="40.1829" height="44.2336" id="rect1688" style="stroke-width: 1; stroke: #f6a600; fill: none; stroke-dasharray: 0 ; " />
   <image href="flowers2.jpg" xlink:href="flowers2.jpg" x="0" y="0" width="159.191" height="124.535" id="image1941" transform="translate(203.855 105.971) scale(1.4481 1.4481) translate(-19.0012 -87.1911)" clip-path="url(#inset-00003)" preserveAspectRatio="none" />
   <rect x="203.855" y="105.971" width="40.1829" height="18.0642" id="rect1570" style="stroke-width: 1; stroke: #21f600; fill: none; stroke-dasharray: 0 ; " />

</svg>
