<svg xmlns="http://www.w3.org/2000/svg" xmlns:xlink="http://www.w3.org/1999/xlink" viewBox="0 0 1312.13 984.096" id="svg00014" >
   <svg xmlns="http://www.w3.org/2000/svg" xmlns:xlink="http://www.w3.org/1999/xlink" viewBox="0 0 640 480" id="svg00015" x="0" y="0" width="640" height="480" >
         <clipPath id="clipPath00012" >
               <rect x="11" y="8" width="618.5" height="456.5" id="rect00135" />

      </clipPath>
      <g id="g00023" clip-path="url(#clipPath00012)" >
               <g id="g00024" transform="translate(11 470) rotate(-90 0 0) translate(0 -11)" >
                     <g id="g00025" >
                           <rect stroke-width="0" fill="#1f77b4" opacity="1" x="423.03" y="11" width="46.695" height="7.73125" id="rect00136" />
               <rect stroke-width="0" fill="#1f77b4" opacity="1" x="376.335" y="11" width="46.695" height="92.775" id="rect00137" />
               <rect stroke-width="0" fill="#1f77b4" opacity="1" x="329.64" y="11" width="46.6949" height="195.858" id="rect00138" />
               <rect stroke-width="0" fill="#1f77b4" opacity="1" x="282.945" y="11" width="46.695" height="458.721" id="rect00139" />
               <rect stroke-width="0" fill="#1f77b4" opacity="1" x="236.25" y="11" width="46.695" height="577.267" id="rect00140" />
               <rect stroke-width="0" fill="#1f77b4" opacity="1" x="189.555" y="11" width="46.695" height="618.5" id="rect00141" />
               <rect stroke-width="0" fill="#1f77b4" opacity="1" x="142.86" y="11" width="46.6949" height="394.294" id="rect00142" />
               <rect stroke-width="0" fill="#1f77b4" opacity="1" x="96.165" y="11" width="46.695" height="162.356" id="rect00143" />
               <rect stroke-width="0" fill="#1f77b4" opacity="1" x="49.47" y="11" width="46.695" height="56.6958" id="rect00144" />
               <rect stroke-width="0" fill="#1f77b4" opacity="1" x="2.77502" y="11" width="46.695" height="12.8854" id="rect00145" />

            </g>

         </g>

      </g>
      <rect stroke-width="1" stroke="black" fill="none" x="11" y="8" width="618.5" height="456.5" id="rect00135" />
      <line x1="11" y1="464.5" x2="11" y2="467.5" stroke-width="1" stroke="black" id="line00114" />
      <text x="11" y="470.5" font-size="10" font-family="sans-serif" text-anchor="middle" dominant-baseline="hanging" id="text00121" >
0      </text>
      <line x1="165.625" y1="464.5" x2="165.625" y2="467.5" stroke-width="1" stroke="black" id="line00115" />
      <text x="165.625" y="470.5" font-size="10" font-family="sans-serif" text-anchor="middle" dominant-baseline="hanging" id="text00122" >
60      </text>
      <line x1="320.25" y1="464.5" x2="320.25" y2="467.5" stroke-width="1" stroke="black" id="line00116" />
      <text x="320.25" y="470.5" font-size="10" font-family="sans-serif" text-anchor="middle" dominant-baseline="hanging" id="text00123" >
120      </text>
      <line x1="474.875" y1="464.5" x2="474.875" y2="467.5" stroke-width="1" stroke="black" id="line00117" />
      <text x="474.875" y="470.5" font-size="10" font-family="sans-serif" text-anchor="middle" dominant-baseline="hanging" id="text00124" >
180      </text>
      <line x1="629.5" y1="464.5" x2="629.5" y2="467.5" stroke-width="1" stroke="black" id="line00118" />
      <text x="629.5" y="470.5" font-size="10" font-family="sans-serif" text-anchor="middle" dominant-baseline="hanging" id="text00125" >
240      </text>
      <line x1="11" y1="421.828" x2="8" y2="421.828" stroke-width="1" stroke="black" id="line00119" />
      <text x="7" y="421.828" font-size="10" font-family="sans-serif" text-anchor="end" dominant-baseline="middle" id="text00126" >
0      </text>
      <line x1="11" y1="313.092" x2="8" y2="313.092" stroke-width="1" stroke="black" id="line00120" />
      <text x="7" y="313.092" font-size="10" font-family="sans-serif" text-anchor="end" dominant-baseline="middle" id="text00127" >
3      </text>
      <line x1="11" y1="204.357" x2="8" y2="204.357" stroke-width="1" stroke="black" id="line00121" />
      <text x="7" y="204.357" font-size="10" font-family="sans-serif" text-anchor="end" dominant-baseline="middle" id="text00128" >
6      </text>
      <line x1="11" y1="95.6222" x2="8" y2="95.6222" stroke-width="1" stroke="black" id="line00122" />
      <text x="7" y="95.6222" font-size="10" font-family="sans-serif" text-anchor="end" dominant-baseline="middle" id="text00129" >
9      </text>

   </svg>
   <svg xmlns="http://www.w3.org/2000/svg" xmlns:xlink="http://www.w3.org/1999/xlink" viewBox="0 0 640 480" id="svg00016" x="646.432" y="0" width="640" height="480" >
         <clipPath id="clipPath00013" >
               <rect x="18.5" y="8" width="611" height="456.5" id="rect00146" />

      </clipPath>
      <g id="g00026" clip-path="url(#clipPath00013)" >
               <g id="g00027" >
                     <polyline points="18.5,464.5 103.576,413.778 206.698,363.056 469.66,312.333 588.251,261.611 629.5,210.889 405.209,160.167 173.184,109.444 67.4831,58.7223 23.6561,8 " stroke-width="1" stroke="#1f77b4" fill="none" opacity="1" id="polyline00001" />

         </g>

      </g>
      <rect stroke-width="1" stroke="black" fill="none" x="18.5" y="8" width="611" height="456.5" id="rect00146" />
      <line x1="139.669" y1="464.5" x2="139.669" y2="467.5" stroke-width="1" stroke="black" id="line00123" />
      <text x="139.669" y="470.5" font-size="10" font-family="sans-serif" text-anchor="middle" dominant-baseline="hanging" id="text00130" >
50      </text>
      <line x1="268.572" y1="464.5" x2="268.572" y2="467.5" stroke-width="1" stroke="black" id="line00124" />
      <text x="268.572" y="470.5" font-size="10" font-family="sans-serif" text-anchor="middle" dominant-baseline="hanging" id="text00131" >
100      </text>
      <line x1="397.475" y1="464.5" x2="397.475" y2="467.5" stroke-width="1" stroke="black" id="line00125" />
      <text x="397.475" y="470.5" font-size="10" font-family="sans-serif" text-anchor="middle" dominant-baseline="hanging" id="text00132" >
150      </text>
      <line x1="526.378" y1="464.5" x2="526.378" y2="467.5" stroke-width="1" stroke="black" id="line00126" />
      <text x="526.378" y="470.5" font-size="10" font-family="sans-serif" text-anchor="middle" dominant-baseline="hanging" id="text00133" >
200      </text>
      <line x1="18.5" y1="437.833" x2="15.5" y2="437.833" stroke-width="1" stroke="black" id="line00127" />
      <text x="14.5" y="437.833" font-size="10" font-family="sans-serif" text-anchor="end" dominant-baseline="middle" id="text00134" >
0      </text>
      <line x1="18.5" y1="359.091" x2="15.5" y2="359.091" stroke-width="1" stroke="black" id="line00128" />
      <text x="14.5" y="359.091" font-size="10" font-family="sans-serif" text-anchor="end" dominant-baseline="middle" id="text00135" >
2      </text>
      <line x1="18.5" y1="280.349" x2="15.5" y2="280.349" stroke-width="1" stroke="black" id="line00129" />
      <text x="14.5" y="280.349" font-size="10" font-family="sans-serif" text-anchor="end" dominant-baseline="middle" id="text00136" >
4      </text>
      <line x1="18.5" y1="201.607" x2="15.5" y2="201.607" stroke-width="1" stroke="black" id="line00130" />
      <text x="14.5" y="201.607" font-size="10" font-family="sans-serif" text-anchor="end" dominant-baseline="middle" id="text00137" >
6      </text>
      <line x1="18.5" y1="122.865" x2="15.5" y2="122.865" stroke-width="1" stroke="black" id="line00131" />
      <text x="14.5" y="122.865" font-size="10" font-family="sans-serif" text-anchor="end" dominant-baseline="middle" id="text00138" >
8      </text>
      <line x1="18.5" y1="44.1227" x2="15.5" y2="44.1227" stroke-width="1" stroke="black" id="line00132" />
      <text x="14.5" y="44.1227" font-size="10" font-family="sans-serif" text-anchor="end" dominant-baseline="middle" id="text00139" >
10      </text>

   </svg>
   <svg xmlns="http://www.w3.org/2000/svg" xmlns:xlink="http://www.w3.org/1999/xlink" viewBox="0 0 640 480" id="svg00017" x="0" y="484.824" width="640" height="480" >
         <clipPath id="clipPath00014" >
               <rect x="26" y="8" width="608.5" height="456.5" id="rect00147" />

      </clipPath>
      <g id="g00028" clip-path="url(#clipPath00014)" >
               <g id="g00029" >
                     <rect stroke-width="0" fill="#1f77b4" opacity="1" x="19.0353" y="458.794" width="62.2429" height="5.70624" id="rect00148" />
            <rect stroke-width="0" fill="#1f77b4" opacity="1" x="81.2782" y="396.025" width="62.243" height="68.475" id="rect00149" />
            <rect stroke-width="0" fill="#1f77b4" opacity="1" x="143.521" y="319.942" width="62.2429" height="144.558" id="rect00150" />
            <rect stroke-width="0" fill="#1f77b4" opacity="1" x="205.764" y="125.929" width="62.243" height="338.571" id="rect00151" />
            <rect stroke-width="0" fill="#1f77b4" opacity="1" x="268.007" y="38.4333" width="62.2429" height="426.067" id="rect00152" />
            <rect stroke-width="0" fill="#1f77b4" opacity="1" x="330.25" y="8" width="62.243" height="456.5" id="rect00153" />
            <rect stroke-width="0" fill="#1f77b4" opacity="1" x="392.493" y="173.481" width="62.2429" height="291.019" id="rect00154" />
            <rect stroke-width="0" fill="#1f77b4" opacity="1" x="454.736" y="344.669" width="62.243" height="119.831" id="rect00155" />
            <rect stroke-width="0" fill="#1f77b4" opacity="1" x="516.979" y="422.654" width="62.243" height="41.8458" id="rect00156" />
            <rect stroke-width="0" fill="#1f77b4" opacity="1" x="579.222" y="454.99" width="62.243" height="9.51041" id="rect00157" />

         </g>

      </g>
      <rect stroke-width="1" stroke="black" fill="none" x="26" y="8" width="608.5" height="456.5" id="rect00147" />
      <line x1="82.881" y1="464.5" x2="82.881" y2="467.5" stroke-width="1" stroke="black" id="line00133" />
      <text x="82.881" y="470.5" font-size="10" font-family="sans-serif" text-anchor="middle" dominant-baseline="hanging" id="text00140" >
0      </text>
      <line x1="227.821" y1="464.5" x2="227.821" y2="467.5" stroke-width="1" stroke="black" id="line00134" />
      <text x="227.821" y="470.5" font-size="10" font-family="sans-serif" text-anchor="middle" dominant-baseline="hanging" id="text00141" >
3      </text>
      <line x1="372.762" y1="464.5" x2="372.762" y2="467.5" stroke-width="1" stroke="black" id="line00135" />
      <text x="372.762" y="470.5" font-size="10" font-family="sans-serif" text-anchor="middle" dominant-baseline="hanging" id="text00142" >
6      </text>
      <line x1="517.702" y1="464.5" x2="517.702" y2="467.5" stroke-width="1" stroke="black" id="line00136" />
      <text x="517.702" y="470.5" font-size="10" font-family="sans-serif" text-anchor="middle" dominant-baseline="hanging" id="text00143" >
9      </text>
      <line x1="26" y1="464.5" x2="23" y2="464.5" stroke-width="1" stroke="black" id="line00137" />
      <text x="22" y="464.5" font-size="10" font-family="sans-serif" text-anchor="end" dominant-baseline="middle" id="text00144" >
0      </text>
      <line x1="26" y1="350.375" x2="23" y2="350.375" stroke-width="1" stroke="black" id="line00138" />
      <text x="22" y="350.375" font-size="10" font-family="sans-serif" text-anchor="end" dominant-baseline="middle" id="text00145" >
60      </text>
      <line x1="26" y1="236.25" x2="23" y2="236.25" stroke-width="1" stroke="black" id="line00139" />
      <text x="22" y="236.25" font-size="10" font-family="sans-serif" text-anchor="end" dominant-baseline="middle" id="text00146" >
120      </text>
      <line x1="26" y1="122.125" x2="23" y2="122.125" stroke-width="1" stroke="black" id="line00140" />
      <text x="22" y="122.125" font-size="10" font-family="sans-serif" text-anchor="end" dominant-baseline="middle" id="text00147" >
180      </text>
      <line x1="26" y1="8" x2="23" y2="8" stroke-width="1" stroke="black" id="line00141" />
      <text x="22" y="8" font-size="10" font-family="sans-serif" text-anchor="end" dominant-baseline="middle" id="text00148" >
240      </text>

   </svg>
   <svg xmlns="http://www.w3.org/2000/svg" xmlns:xlink="http://www.w3.org/1999/xlink" viewBox="0 0 640 480" id="svg00018" x="646.432" y="484.824" width="640" height="480" >
         <clipPath id="clipPath00015" >
               <rect x="26" y="8" width="603.5" height="456.5" id="rect00158" />

      </clipPath>
      <g id="g00030" clip-path="url(#clipPath00015)" >
               <g id="g00031" >
                     <polyline points="26,464.5 93.0556,400.937 160.111,323.89 227.167,127.422 294.222,38.8186 361.278,8 428.333,175.576 495.389,348.93 562.444,427.903 629.5,460.648 " stroke-width="1" stroke="#1f77b4" fill="none" opacity="1" id="polyline00002" />

         </g>

      </g>
      <rect stroke-width="1" stroke="black" fill="none" x="26" y="8" width="603.5" height="456.5" id="rect00158" />
      <line x1="61.2545" y1="464.5" x2="61.2545" y2="467.5" stroke-width="1" stroke="black" id="line00142" />
      <text x="61.2545" y="470.5" font-size="10" font-family="sans-serif" text-anchor="middle" dominant-baseline="hanging" id="text00149" >
0      </text>
      <line x1="165.353" y1="464.5" x2="165.353" y2="467.5" stroke-width="1" stroke="black" id="line00143" />
      <text x="165.353" y="470.5" font-size="10" font-family="sans-serif" text-anchor="middle" dominant-baseline="hanging" id="text00150" >
2      </text>
      <line x1="269.451" y1="464.5" x2="269.451" y2="467.5" stroke-width="1" stroke="black" id="line00144" />
      <text x="269.451" y="470.5" font-size="10" font-family="sans-serif" text-anchor="middle" dominant-baseline="hanging" id="text00151" >
4      </text>
      <line x1="373.549" y1="464.5" x2="373.549" y2="467.5" stroke-width="1" stroke="black" id="line00145" />
      <text x="373.549" y="470.5" font-size="10" font-family="sans-serif" text-anchor="middle" dominant-baseline="hanging" id="text00152" >
6      </text>
      <line x1="477.647" y1="464.5" x2="477.647" y2="467.5" stroke-width="1" stroke="black" id="line00146" />
      <text x="477.647" y="470.5" font-size="10" font-family="sans-serif" text-anchor="middle" dominant-baseline="hanging" id="text00153" >
8      </text>
      <line x1="581.745" y1="464.5" x2="581.745" y2="467.5" stroke-width="1" stroke="black" id="line00147" />
      <text x="581.745" y="470.5" font-size="10" font-family="sans-serif" text-anchor="middle" dominant-baseline="hanging" id="text00154" >
10      </text>
      <line x1="26" y1="373.97" x2="23" y2="373.97" stroke-width="1" stroke="black" id="line00148" />
      <text x="22" y="373.97" font-size="10" font-family="sans-serif" text-anchor="end" dominant-baseline="middle" id="text00155" >
50      </text>
      <line x1="26" y1="277.662" x2="23" y2="277.662" stroke-width="1" stroke="black" id="line00149" />
      <text x="22" y="277.662" font-size="10" font-family="sans-serif" text-anchor="end" dominant-baseline="middle" id="text00156" >
100      </text>
      <line x1="26" y1="181.354" x2="23" y2="181.354" stroke-width="1" stroke="black" id="line00150" />
      <text x="22" y="181.354" font-size="10" font-family="sans-serif" text-anchor="end" dominant-baseline="middle" id="text00157" >
150      </text>
      <line x1="26" y1="85.0464" x2="23" y2="85.0464" stroke-width="1" stroke="black" id="line00151" />
      <text x="22" y="85.0464" font-size="10" font-family="sans-serif" text-anchor="end" dominant-baseline="middle" id="text00158" >
200      </text>

   </svg>

</svg>
