<svg xmlns="http://www.w3.org/2000/svg" xmlns:xlink="http://www.w3.org/1999/xlink" viewBox="0 0 1971.46 489.6" id="svg00002" >
   <svg xmlns="http://www.w3.org/2000/svg" xmlns:xlink="http://www.w3.org/1999/xlink" viewBox="0 0 640 480" id="svg00003" x="0" y="0" width="640" height="480" >
         <clipPath id="clipPath00002" >
               <rect x="26" y="46" width="603.5" height="418.5" id="rect00012" />

      </clipPath>
      <g id="g00003" clip-path="url(#clipPath00002)" >
               <g id="g00004" >
                     <rect stroke-width="0" fill="#1f77b4" opacity="1" x="-36.8493" y="414.679" width="182.3" height="49.8214" id="rect00013" />
            <rect stroke-width="0" fill="#1f77b4" opacity="1" x="145.45" y="46" width="182.3" height="418.5" id="rect00014" />
            <rect stroke-width="0" fill="#1f77b4" opacity="1" x="327.75" y="73.1753" width="182.3" height="391.325" id="rect00015" />
            <rect stroke-width="0" fill="#1f77b4" opacity="1" x="510.05" y="418.302" width="182.3" height="46.1981" id="rect00016" />

         </g>

      </g>
      <rect stroke-width="1" stroke="black" fill="none" x="26" y="46" width="603.5" height="418.5" id="rect00012" />
      <line x1="37.9482" y1="464.5" x2="37.9482" y2="467.5" stroke-width="1" stroke="black" id="line00010" />
      <text x="37.9482" y="470.5" font-size="10" font-family="sans-serif" text-anchor="middle" dominant-baseline="hanging" id="text00010" >
0      </text>
      <line x1="151.15" y1="464.5" x2="151.15" y2="467.5" stroke-width="1" stroke="black" id="line00011" />
      <text x="151.15" y="470.5" font-size="10" font-family="sans-serif" text-anchor="middle" dominant-baseline="hanging" id="text00011" >
2      </text>
      <line x1="264.352" y1="464.5" x2="264.352" y2="467.5" stroke-width="1" stroke="black" id="line00012" />
      <text x="264.352" y="470.5" font-size="10" font-family="sans-serif" text-anchor="middle" dominant-baseline="hanging" id="text00012" >
4      </text>
      <line x1="377.554" y1="464.5" x2="377.554" y2="467.5" stroke-width="1" stroke="black" id="line00013" />
      <text x="377.554" y="470.5" font-size="10" font-family="sans-serif" text-anchor="middle" dominant-baseline="hanging" id="text00013" >
6      </text>
      <line x1="490.756" y1="464.5" x2="490.756" y2="467.5" stroke-width="1" stroke="black" id="line00014" />
      <text x="490.756" y="470.5" font-size="10" font-family="sans-serif" text-anchor="middle" dominant-baseline="hanging" id="text00014" >
8      </text>
      <line x1="603.958" y1="464.5" x2="603.958" y2="467.5" stroke-width="1" stroke="black" id="line00015" />
      <text x="603.958" y="470.5" font-size="10" font-family="sans-serif" text-anchor="middle" dominant-baseline="hanging" id="text00015" >
10      </text>
      <line x1="26" y1="464.5" x2="23" y2="464.5" stroke-width="1" stroke="black" id="line00016" />
      <text x="22" y="464.5" font-size="10" font-family="sans-serif" text-anchor="end" dominant-baseline="middle" id="text00016" >
0      </text>
      <line x1="26" y1="373.916" x2="23" y2="373.916" stroke-width="1" stroke="black" id="line00017" />
      <text x="22" y="373.916" font-size="10" font-family="sans-serif" text-anchor="end" dominant-baseline="middle" id="text00017" >
100      </text>
      <line x1="26" y1="283.331" x2="23" y2="283.331" stroke-width="1" stroke="black" id="line00018" />
      <text x="22" y="283.331" font-size="10" font-family="sans-serif" text-anchor="end" dominant-baseline="middle" id="text00018" >
200      </text>
      <line x1="26" y1="192.747" x2="23" y2="192.747" stroke-width="1" stroke="black" id="line00019" />
      <text x="22" y="192.747" font-size="10" font-family="sans-serif" text-anchor="end" dominant-baseline="middle" id="text00019" >
300      </text>
      <line x1="26" y1="102.162" x2="23" y2="102.162" stroke-width="1" stroke="black" id="line00020" />
      <text x="22" y="102.162" font-size="10" font-family="sans-serif" text-anchor="end" dominant-baseline="middle" id="text00020" >
400      </text>
      <text x="320" y="34" font-size="24" font-family="sans-serif" text-anchor="middle" id="text00021" >
4 bins      </text>

   </svg>
   <svg xmlns="http://www.w3.org/2000/svg" xmlns:xlink="http://www.w3.org/1999/xlink" viewBox="0 0 640 480" id="svg00004" x="646.443" y="0" width="640" height="480" >
         <clipPath id="clipPath00003" >
               <rect x="26" y="46" width="608.5" height="418.5" id="rect00017" />

      </clipPath>
      <g id="g00005" clip-path="url(#clipPath00003)" >
               <g id="g00006" >
                     <rect stroke-width="0" fill="#1f77b4" opacity="1" x="19.0353" y="459.269" width="62.2429" height="5.23126" id="rect00018" />
            <rect stroke-width="0" fill="#1f77b4" opacity="1" x="81.2782" y="401.725" width="62.243" height="62.775" id="rect00019" />
            <rect stroke-width="0" fill="#1f77b4" opacity="1" x="143.521" y="331.975" width="62.2429" height="132.525" id="rect00020" />
            <rect stroke-width="0" fill="#1f77b4" opacity="1" x="205.764" y="154.112" width="62.243" height="310.388" id="rect00021" />
            <rect stroke-width="0" fill="#1f77b4" opacity="1" x="268.007" y="73.9" width="62.2429" height="390.6" id="rect00022" />
            <rect stroke-width="0" fill="#1f77b4" opacity="1" x="330.25" y="46" width="62.243" height="418.5" id="rect00023" />
            <rect stroke-width="0" fill="#1f77b4" opacity="1" x="392.493" y="197.706" width="62.2429" height="266.794" id="rect00024" />
            <rect stroke-width="0" fill="#1f77b4" opacity="1" x="454.736" y="354.644" width="62.243" height="109.856" id="rect00025" />
            <rect stroke-width="0" fill="#1f77b4" opacity="1" x="516.979" y="426.138" width="62.243" height="38.3625" id="rect00026" />
            <rect stroke-width="0" fill="#1f77b4" opacity="1" x="579.222" y="455.781" width="62.243" height="8.71875" id="rect00027" />

         </g>

      </g>
      <rect stroke-width="1" stroke="black" fill="none" x="26" y="46" width="608.5" height="418.5" id="rect00017" />
      <line x1="82.881" y1="464.5" x2="82.881" y2="467.5" stroke-width="1" stroke="black" id="line00021" />
      <text x="82.881" y="470.5" font-size="10" font-family="sans-serif" text-anchor="middle" dominant-baseline="hanging" id="text00022" >
0      </text>
      <line x1="227.821" y1="464.5" x2="227.821" y2="467.5" stroke-width="1" stroke="black" id="line00022" />
      <text x="227.821" y="470.5" font-size="10" font-family="sans-serif" text-anchor="middle" dominant-baseline="hanging" id="text00023" >
3      </text>
      <line x1="372.762" y1="464.5" x2="372.762" y2="467.5" stroke-width="1" stroke="black" id="line00023" />
      <text x="372.762" y="470.5" font-size="10" font-family="sans-serif" text-anchor="middle" dominant-baseline="hanging" id="text00024" >
6      </text>
      <line x1="517.702" y1="464.5" x2="517.702" y2="467.5" stroke-width="1" stroke="black" id="line00024" />
      <text x="517.702" y="470.5" font-size="10" font-family="sans-serif" text-anchor="middle" dominant-baseline="hanging" id="text00025" >
9      </text>
      <line x1="26" y1="464.5" x2="23" y2="464.5" stroke-width="1" stroke="black" id="line00025" />
      <text x="22" y="464.5" font-size="10" font-family="sans-serif" text-anchor="end" dominant-baseline="middle" id="text00026" >
0      </text>
      <line x1="26" y1="359.875" x2="23" y2="359.875" stroke-width="1" stroke="black" id="line00026" />
      <text x="22" y="359.875" font-size="10" font-family="sans-serif" text-anchor="end" dominant-baseline="middle" id="text00027" >
60      </text>
      <line x1="26" y1="255.25" x2="23" y2="255.25" stroke-width="1" stroke="black" id="line00027" />
      <text x="22" y="255.25" font-size="10" font-family="sans-serif" text-anchor="end" dominant-baseline="middle" id="text00028" >
120      </text>
      <line x1="26" y1="150.625" x2="23" y2="150.625" stroke-width="1" stroke="black" id="line00028" />
      <text x="22" y="150.625" font-size="10" font-family="sans-serif" text-anchor="end" dominant-baseline="middle" id="text00029" >
180      </text>
      <line x1="26" y1="46" x2="23" y2="46" stroke-width="1" stroke="black" id="line00029" />
      <text x="22" y="46" font-size="10" font-family="sans-serif" text-anchor="end" dominant-baseline="middle" id="text00030" >
240      </text>
      <text x="320" y="34" font-size="24" font-family="sans-serif" text-anchor="middle" id="text00031" >
10 bins      </text>

   </svg>
   <svg xmlns="http://www.w3.org/2000/svg" xmlns:xlink="http://www.w3.org/1999/xlink" viewBox="0 0 640 480" id="svg00005" x="1292.89" y="0" width="640" height="480" >
         <clipPath id="clipPath00004" >
               <rect x="18.5" y="46" width="616" height="418.5" id="rect00028" />

      </clipPath>
      <g id="g00007" clip-path="url(#clipPath00004)" >
               <g id="g00008" >
                     <rect stroke-width="0" fill="#1f77b4" opacity="1" x="33.897" y="459.135" width="14.6301" height="5.36539" id="rect00029" />
            <rect stroke-width="0" fill="#1f77b4" opacity="1" x="48.5272" y="464.5" width="14.6301" height="0" id="rect00030" />
            <rect stroke-width="0" fill="#1f77b4" opacity="1" x="63.1573" y="459.135" width="14.6301" height="5.36539" id="rect00031" />
            <rect stroke-width="0" fill="#1f77b4" opacity="1" x="77.7875" y="459.135" width="14.6301" height="5.36539" id="rect00032" />
            <rect stroke-width="0" fill="#1f77b4" opacity="1" x="92.4176" y="426.942" width="14.6301" height="37.5577" id="rect00033" />
            <rect stroke-width="0" fill="#1f77b4" opacity="1" x="107.048" y="432.308" width="14.6301" height="32.1923" id="rect00034" />
            <rect stroke-width="0" fill="#1f77b4" opacity="1" x="121.678" y="405.481" width="14.6301" height="59.0192" id="rect00035" />
            <rect stroke-width="0" fill="#1f77b4" opacity="1" x="136.308" y="400.115" width="14.6302" height="64.3846" id="rect00036" />
            <rect stroke-width="0" fill="#1f77b4" opacity="1" x="150.938" y="426.942" width="14.6301" height="37.5577" id="rect00037" />
            <rect stroke-width="0" fill="#1f77b4" opacity="1" x="165.568" y="416.212" width="14.6301" height="48.2885" id="rect00038" />
            <rect stroke-width="0" fill="#1f77b4" opacity="1" x="180.199" y="298.173" width="14.6301" height="166.327" id="rect00039" />
            <rect stroke-width="0" fill="#1f77b4" opacity="1" x="194.829" y="308.904" width="14.6301" height="155.596" id="rect00040" />
            <rect stroke-width="0" fill="#1f77b4" opacity="1" x="209.459" y="276.712" width="14.6302" height="187.788" id="rect00041" />
            <rect stroke-width="0" fill="#1f77b4" opacity="1" x="224.089" y="325" width="14.6301" height="139.5" id="rect00042" />
            <rect stroke-width="0" fill="#1f77b4" opacity="1" x="238.719" y="158.673" width="14.6302" height="305.827" id="rect00043" />
            <rect stroke-width="0" fill="#1f77b4" opacity="1" x="253.349" y="142.577" width="14.6302" height="321.923" id="rect00044" />
            <rect stroke-width="0" fill="#1f77b4" opacity="1" x="267.979" y="201.596" width="14.6301" height="262.904" id="rect00045" />
            <rect stroke-width="0" fill="#1f77b4" opacity="1" x="282.61" y="158.673" width="14.6302" height="305.827" id="rect00046" />
            <rect stroke-width="0" fill="#1f77b4" opacity="1" x="297.24" y="153.308" width="14.6302" height="311.192" id="rect00047" />
            <rect stroke-width="0" fill="#1f77b4" opacity="1" x="311.87" y="142.577" width="14.6302" height="321.923" id="rect00048" />
            <rect stroke-width="0" fill="#1f77b4" opacity="1" x="326.5" y="46" width="14.6302" height="418.5" id="rect00049" />
            <rect stroke-width="0" fill="#1f77b4" opacity="1" x="341.13" y="131.846" width="14.6301" height="332.654" id="rect00050" />
            <rect stroke-width="0" fill="#1f77b4" opacity="1" x="355.76" y="212.327" width="14.6302" height="252.173" id="rect00051" />
            <rect stroke-width="0" fill="#1f77b4" opacity="1" x="370.39" y="180.135" width="14.6302" height="284.365" id="rect00052" />
            <rect stroke-width="0" fill="#1f77b4" opacity="1" x="385.021" y="212.327" width="14.6302" height="252.173" id="rect00053" />
            <rect stroke-width="0" fill="#1f77b4" opacity="1" x="399.651" y="233.788" width="14.6302" height="230.712" id="rect00054" />
            <rect stroke-width="0" fill="#1f77b4" opacity="1" x="414.281" y="303.538" width="14.6301" height="160.962" id="rect00055" />
            <rect stroke-width="0" fill="#1f77b4" opacity="1" x="428.911" y="287.442" width="14.6302" height="177.058" id="rect00056" />
            <rect stroke-width="0" fill="#1f77b4" opacity="1" x="443.541" y="325" width="14.6302" height="139.5" id="rect00057" />
            <rect stroke-width="0" fill="#1f77b4" opacity="1" x="458.171" y="394.75" width="14.6302" height="69.75" id="rect00058" />
            <rect stroke-width="0" fill="#1f77b4" opacity="1" x="472.802" y="426.942" width="14.6302" height="37.5577" id="rect00059" />
            <rect stroke-width="0" fill="#1f77b4" opacity="1" x="487.432" y="373.288" width="14.6302" height="91.2115" id="rect00060" />
            <rect stroke-width="0" fill="#1f77b4" opacity="1" x="502.062" y="400.115" width="14.6301" height="64.3846" id="rect00061" />
            <rect stroke-width="0" fill="#1f77b4" opacity="1" x="516.692" y="426.942" width="14.6302" height="37.5577" id="rect00062" />
            <rect stroke-width="0" fill="#1f77b4" opacity="1" x="531.322" y="453.769" width="14.6301" height="10.7308" id="rect00063" />
            <rect stroke-width="0" fill="#1f77b4" opacity="1" x="545.952" y="459.135" width="14.6302" height="5.36539" id="rect00064" />
            <rect stroke-width="0" fill="#1f77b4" opacity="1" x="560.582" y="448.404" width="14.6302" height="16.0962" id="rect00065" />
            <rect stroke-width="0" fill="#1f77b4" opacity="1" x="575.213" y="459.135" width="14.6301" height="5.36539" id="rect00066" />
            <rect stroke-width="0" fill="#1f77b4" opacity="1" x="589.843" y="464.5" width="14.6301" height="0" id="rect00067" />
            <rect stroke-width="0" fill="#1f77b4" opacity="1" x="604.473" y="459.135" width="14.6301" height="5.36539" id="rect00068" />

         </g>

      </g>
      <rect stroke-width="1" stroke="black" fill="none" x="18.5" y="46" width="616" height="418.5" id="rect00028" />
      <line x1="93.9245" y1="464.5" x2="93.9245" y2="467.5" stroke-width="1" stroke="black" id="line00030" />
      <text x="93.9245" y="470.5" font-size="10" font-family="sans-serif" text-anchor="middle" dominant-baseline="hanging" id="text00032" >
0      </text>
      <line x1="230.197" y1="464.5" x2="230.197" y2="467.5" stroke-width="1" stroke="black" id="line00031" />
      <text x="230.197" y="470.5" font-size="10" font-family="sans-serif" text-anchor="middle" dominant-baseline="hanging" id="text00033" >
3      </text>
      <line x1="366.47" y1="464.5" x2="366.47" y2="467.5" stroke-width="1" stroke="black" id="line00032" />
      <text x="366.47" y="470.5" font-size="10" font-family="sans-serif" text-anchor="middle" dominant-baseline="hanging" id="text00034" >
6      </text>
      <line x1="502.742" y1="464.5" x2="502.742" y2="467.5" stroke-width="1" stroke="black" id="line00033" />
      <text x="502.742" y="470.5" font-size="10" font-family="sans-serif" text-anchor="middle" dominant-baseline="hanging" id="text00035" >
9      </text>
      <line x1="18.5" y1="464.5" x2="15.5" y2="464.5" stroke-width="1" stroke="black" id="line00034" />
      <text x="14.5" y="464.5" font-size="10" font-family="sans-serif" text-anchor="end" dominant-baseline="middle" id="text00036" >
0      </text>
      <line x1="18.5" y1="410.846" x2="15.5" y2="410.846" stroke-width="1" stroke="black" id="line00035" />
      <text x="14.5" y="410.846" font-size="10" font-family="sans-serif" text-anchor="end" dominant-baseline="middle" id="text00037" >
10      </text>
      <line x1="18.5" y1="357.192" x2="15.5" y2="357.192" stroke-width="1" stroke="black" id="line00036" />
      <text x="14.5" y="357.192" font-size="10" font-family="sans-serif" text-anchor="end" dominant-baseline="middle" id="text00038" >
20      </text>
      <line x1="18.5" y1="303.538" x2="15.5" y2="303.538" stroke-width="1" stroke="black" id="line00037" />
      <text x="14.5" y="303.538" font-size="10" font-family="sans-serif" text-anchor="end" dominant-baseline="middle" id="text00039" >
30      </text>
      <line x1="18.5" y1="249.885" x2="15.5" y2="249.885" stroke-width="1" stroke="black" id="line00038" />
      <text x="14.5" y="249.885" font-size="10" font-family="sans-serif" text-anchor="end" dominant-baseline="middle" id="text00040" >
40      </text>
      <line x1="18.5" y1="196.231" x2="15.5" y2="196.231" stroke-width="1" stroke="black" id="line00039" />
      <text x="14.5" y="196.231" font-size="10" font-family="sans-serif" text-anchor="end" dominant-baseline="middle" id="text00041" >
50      </text>
      <line x1="18.5" y1="142.577" x2="15.5" y2="142.577" stroke-width="1" stroke="black" id="line00040" />
      <text x="14.5" y="142.577" font-size="10" font-family="sans-serif" text-anchor="end" dominant-baseline="middle" id="text00042" >
60      </text>
      <text x="320" y="34" font-size="24" font-family="sans-serif" text-anchor="middle" id="text00043" >
40 bins      </text>

   </svg>

</svg>
