<svg xmlns="http://www.w3.org/2000/svg" xmlns:xlink="http://www.w3.org/1999/xlink" viewBox="0 0 640 480" id="svg00019" >
   <clipPath id="clipPath00016" >
         <rect x="26" y="8" width="603.5" height="456.5" id="rect00159" />

   </clipPath>
   <g id="g00032" clip-path="url(#clipPath00016)" >
         <g id="g00033" >
               <rect stroke-width="0" fill="blue" opacity="0.5" x="26" y="464.5" width="30.175" height="0" id="rect00160" />
         <rect stroke-width="0" fill="blue" opacity="0.5" x="56.175" y="464.5" width="30.175" height="0" id="rect00161" />
         <rect stroke-width="0" fill="blue" opacity="0.5" x="86.35" y="464.5" width="30.175" height="0" id="rect00162" />
         <rect stroke-width="0" fill="blue" opacity="0.5" x="116.525" y="464.5" width="30.175" height="0" id="rect00163" />
         <rect stroke-width="0" fill="blue" opacity="0.5" x="146.7" y="464.5" width="30.175" height="0" id="rect00164" />
         <rect stroke-width="0" fill="blue" opacity="0.5" x="176.875" y="464.5" width="30.175" height="0" id="rect00165" />
         <rect stroke-width="0" fill="blue" opacity="0.5" x="207.05" y="464.5" width="30.175" height="0" id="rect00166" />
         <rect stroke-width="0" fill="blue" opacity="0.5" x="237.225" y="464.5" width="30.175" height="0" id="rect00167" />
         <rect stroke-width="0" fill="blue" opacity="0.5" x="267.4" y="464.5" width="30.175" height="0" id="rect00168" />
         <rect stroke-width="0" fill="blue" opacity="0.5" x="297.575" y="458.009" width="30.175" height="6.49051" id="rect00169" />
         <rect stroke-width="0" fill="blue" opacity="0.5" x="327.75" y="434.211" width="30.175" height="30.2891" id="rect00170" />
         <rect stroke-width="0" fill="blue" opacity="0.5" x="357.925" y="339.017" width="30.175" height="125.483" id="rect00171" />
         <rect stroke-width="0" fill="blue" opacity="0.5" x="388.1" y="269.784" width="30.175" height="194.716" id="rect00172" />
         <rect stroke-width="0" fill="blue" opacity="0.5" x="418.275" y="172.427" width="30.175" height="292.073" id="rect00173" />
         <rect stroke-width="0" fill="blue" opacity="0.5" x="448.45" y="36.1256" width="30.175" height="428.374" id="rect00174" />
         <rect stroke-width="0" fill="blue" opacity="0.5" x="478.625" y="8" width="30.175" height="456.5" id="rect00175" />
         <rect stroke-width="0" fill="blue" opacity="0.5" x="508.8" y="200.552" width="30.175" height="263.948" id="rect00176" />
         <rect stroke-width="0" fill="blue" opacity="0.5" x="538.975" y="245.986" width="30.1749" height="218.514" id="rect00177" />
         <rect stroke-width="0" fill="blue" opacity="0.5" x="569.15" y="360.652" width="30.175" height="103.848" id="rect00178" />
         <rect stroke-width="0" fill="blue" opacity="0.5" x="599.325" y="432.047" width="30.175" height="32.4526" id="rect00179" />

      </g>
      <g id="g00034" >
               <rect stroke-width="0" fill="#CC00AA" opacity="0.5" x="26" y="432.047" width="30.175" height="32.4526" id="rect00180" />
         <rect stroke-width="0" fill="#CC00AA" opacity="0.5" x="56.175" y="414.739" width="30.175" height="49.7607" id="rect00181" />
         <rect stroke-width="0" fill="#CC00AA" opacity="0.5" x="86.35" y="360.652" width="30.175" height="103.848" id="rect00182" />
         <rect stroke-width="0" fill="#CC00AA" opacity="0.5" x="116.525" y="354.161" width="30.175" height="110.339" id="rect00183" />
         <rect stroke-width="0" fill="#CC00AA" opacity="0.5" x="146.7" y="310.891" width="30.175" height="153.609" id="rect00184" />
         <rect stroke-width="0" fill="#CC00AA" opacity="0.5" x="176.875" y="287.092" width="30.175" height="177.408" id="rect00185" />
         <rect stroke-width="0" fill="#CC00AA" opacity="0.5" x="207.05" y="248.149" width="30.175" height="216.351" id="rect00186" />
         <rect stroke-width="0" fill="#CC00AA" opacity="0.5" x="237.225" y="241.659" width="30.175" height="222.841" id="rect00187" />
         <rect stroke-width="0" fill="#CC00AA" opacity="0.5" x="267.4" y="258.967" width="30.175" height="205.533" id="rect00188" />
         <rect stroke-width="0" fill="#CC00AA" opacity="0.5" x="297.575" y="280.602" width="30.175" height="183.898" id="rect00189" />
         <rect stroke-width="0" fill="#CC00AA" opacity="0.5" x="327.75" y="304.4" width="30.175" height="160.1" id="rect00190" />
         <rect stroke-width="0" fill="#CC00AA" opacity="0.5" x="357.925" y="336.853" width="30.175" height="127.647" id="rect00191" />
         <rect stroke-width="0" fill="#CC00AA" opacity="0.5" x="388.1" y="336.853" width="30.175" height="127.647" id="rect00192" />
         <rect stroke-width="0" fill="#CC00AA" opacity="0.5" x="418.275" y="364.979" width="30.175" height="99.5213" id="rect00193" />
         <rect stroke-width="0" fill="#CC00AA" opacity="0.5" x="448.45" y="406.085" width="30.175" height="58.4147" id="rect00194" />
         <rect stroke-width="0" fill="#CC00AA" opacity="0.5" x="478.625" y="414.739" width="30.175" height="49.7607" id="rect00195" />
         <rect stroke-width="0" fill="#CC00AA" opacity="0.5" x="508.8" y="445.028" width="30.175" height="19.4716" id="rect00196" />
         <rect stroke-width="0" fill="#CC00AA" opacity="0.5" x="538.975" y="447.192" width="30.1749" height="17.308" id="rect00197" />
         <rect stroke-width="0" fill="#CC00AA" opacity="0.5" x="569.15" y="458.009" width="30.175" height="6.49051" id="rect00198" />
         <rect stroke-width="0" fill="#CC00AA" opacity="0.5" x="599.325" y="462.336" width="30.175" height="2.16351" id="rect00199" />

      </g>

   </g>
   <rect stroke-width="1" stroke="black" fill="none" x="26" y="8" width="603.5" height="456.5" id="rect00159" />
   <line x1="26" y1="464.5" x2="26" y2="467.5" stroke-width="1" stroke="black" id="line00152" />
   <text x="26" y="470.5" font-size="10" font-family="sans-serif" text-anchor="middle" dominant-baseline="hanging" id="text00159" >
-10   </text>
   <line x1="176.875" y1="464.5" x2="176.875" y2="467.5" stroke-width="1" stroke="black" id="line00153" />
   <text x="176.875" y="470.5" font-size="10" font-family="sans-serif" text-anchor="middle" dominant-baseline="hanging" id="text00160" >
-5   </text>
   <line x1="327.75" y1="464.5" x2="327.75" y2="467.5" stroke-width="1" stroke="black" id="line00154" />
   <text x="327.75" y="470.5" font-size="10" font-family="sans-serif" text-anchor="middle" dominant-baseline="hanging" id="text00161" >
0   </text>
   <line x1="478.625" y1="464.5" x2="478.625" y2="467.5" stroke-width="1" stroke="black" id="line00155" />
   <text x="478.625" y="470.5" font-size="10" font-family="sans-serif" text-anchor="middle" dominant-baseline="hanging" id="text00162" >
5   </text>
   <line x1="629.5" y1="464.5" x2="629.5" y2="467.5" stroke-width="1" stroke="black" id="line00156" />
   <text x="629.5" y="470.5" font-size="10" font-family="sans-serif" text-anchor="middle" dominant-baseline="hanging" id="text00163" >
10   </text>
   <line x1="26" y1="464.5" x2="23" y2="464.5" stroke-width="1" stroke="black" id="line00157" />
   <text x="22" y="464.5" font-size="10" font-family="sans-serif" text-anchor="end" dominant-baseline="middle" id="text00164" >
0   </text>
   <line x1="26" y1="356.325" x2="23" y2="356.325" stroke-width="1" stroke="black" id="line00158" />
   <text x="22" y="356.325" font-size="10" font-family="sans-serif" text-anchor="end" dominant-baseline="middle" id="text00165" >
50   </text>
   <line x1="26" y1="248.149" x2="23" y2="248.149" stroke-width="1" stroke="black" id="line00159" />
   <text x="22" y="248.149" font-size="10" font-family="sans-serif" text-anchor="end" dominant-baseline="middle" id="text00166" >
100   </text>
   <line x1="26" y1="139.974" x2="23" y2="139.974" stroke-width="1" stroke="black" id="line00160" />
   <text x="22" y="139.974" font-size="10" font-family="sans-serif" text-anchor="end" dominant-baseline="middle" id="text00167" >
150   </text>
   <line x1="26" y1="31.7986" x2="23" y2="31.7986" stroke-width="1" stroke="black" id="line00161" />
   <text x="22" y="31.7986" font-size="10" font-family="sans-serif" text-anchor="end" dominant-baseline="middle" id="text00168" >
200   </text>

</svg>
