<svg xmlns="http://www.w3.org/2000/svg" xmlns:xlink="http://www.w3.org/1999/xlink" viewBox="0 0 640 480" id="svg00007" >
   <clipPath id="clipPath00006" >
         <rect x="11" y="8" width="623.5" height="456.5" id="rect00075" />

   </clipPath>
   <g id="g00011" clip-path="url(#clipPath00006)" >
         <g id="g00012" >
               <rect stroke-width="0" fill="#1f77b4" opacity="1" x="11" y="464.5" width="69.2778" height="0" id="rect00076" />
         <rect stroke-width="0" fill="#1f77b4" opacity="1" x="80.2778" y="464.5" width="69.2778" height="0" id="rect00077" />
         <rect stroke-width="0" fill="#1f77b4" opacity="1" x="149.556" y="446.24" width="69.2778" height="18.26" id="rect00078" />
         <rect stroke-width="0" fill="#1f77b4" opacity="1" x="218.833" y="373.2" width="69.2778" height="91.3" id="rect00079" />
         <rect stroke-width="0" fill="#1f77b4" opacity="1" x="288.111" y="8" width="69.2778" height="456.5" id="rect00080" />
         <rect stroke-width="0" fill="#1f77b4" opacity="1" x="357.389" y="373.2" width="69.2778" height="91.3" id="rect00081" />
         <rect stroke-width="0" fill="#1f77b4" opacity="1" x="426.667" y="446.24" width="69.2778" height="18.26" id="rect00082" />
         <rect stroke-width="0" fill="#1f77b4" opacity="1" x="495.944" y="464.5" width="69.2778" height="0" id="rect00083" />
         <rect stroke-width="0" fill="#1f77b4" opacity="1" x="565.222" y="464.5" width="69.2778" height="0" id="rect00084" />

      </g>

   </g>
   <rect stroke-width="1" stroke="black" fill="none" x="11" y="8" width="623.5" height="456.5" id="rect00075" />
   <line x1="11" y1="464.5" x2="11" y2="467.5" stroke-width="1" stroke="black" id="line00052" />
   <text x="11" y="470.5" font-size="10" font-family="sans-serif" text-anchor="middle" dominant-baseline="hanging" id="text00055" >
-2   </text>
   <line x1="149.556" y1="464.5" x2="149.556" y2="467.5" stroke-width="1" stroke="black" id="line00053" />
   <text x="149.556" y="470.5" font-size="10" font-family="sans-serif" text-anchor="middle" dominant-baseline="hanging" id="text00056" >
0   </text>
   <line x1="288.111" y1="464.5" x2="288.111" y2="467.5" stroke-width="1" stroke="black" id="line00054" />
   <text x="288.111" y="470.5" font-size="10" font-family="sans-serif" text-anchor="middle" dominant-baseline="hanging" id="text00057" >
2   </text>
   <line x1="426.667" y1="464.5" x2="426.667" y2="467.5" stroke-width="1" stroke="black" id="line00055" />
   <text x="426.667" y="470.5" font-size="10" font-family="sans-serif" text-anchor="middle" dominant-baseline="hanging" id="text00058" >
4   </text>
   <line x1="565.222" y1="464.5" x2="565.222" y2="467.5" stroke-width="1" stroke="black" id="line00056" />
   <text x="565.222" y="470.5" font-size="10" font-family="sans-serif" text-anchor="middle" dominant-baseline="hanging" id="text00059" >
6   </text>
   <line x1="11" y1="464.5" x2="8" y2="464.5" stroke-width="1" stroke="black" id="line00057" />
   <text x="7" y="464.5" font-size="10" font-family="sans-serif" text-anchor="end" dominant-baseline="middle" id="text00060" >
0   </text>
   <line x1="11" y1="373.2" x2="8" y2="373.2" stroke-width="1" stroke="black" id="line00058" />
   <text x="7" y="373.2" font-size="10" font-family="sans-serif" text-anchor="end" dominant-baseline="middle" id="text00061" >
1   </text>
   <line x1="11" y1="281.9" x2="8" y2="281.9" stroke-width="1" stroke="black" id="line00059" />
   <text x="7" y="281.9" font-size="10" font-family="sans-serif" text-anchor="end" dominant-baseline="middle" id="text00062" >
2   </text>
   <line x1="11" y1="190.6" x2="8" y2="190.6" stroke-width="1" stroke="black" id="line00060" />
   <text x="7" y="190.6" font-size="10" font-family="sans-serif" text-anchor="end" dominant-baseline="middle" id="text00063" >
3   </text>
   <line x1="11" y1="99.3" x2="8" y2="99.3" stroke-width="1" stroke="black" id="line00061" />
   <text x="7" y="99.3" font-size="10" font-family="sans-serif" text-anchor="end" dominant-baseline="middle" id="text00064" >
4   </text>
   <line x1="11" y1="8" x2="8" y2="8" stroke-width="1" stroke="black" id="line00062" />
   <text x="7" y="8" font-size="10" font-family="sans-serif" text-anchor="end" dominant-baseline="middle" id="text00065" >
5   </text>

</svg>
