<svg xmlns="http://www.w3.org/2000/svg" xmlns:xlink="http://www.w3.org/1999/xlink" viewBox="0 0 640 480" id="svg00001" >
   <clipPath id="clipPath00001" >
         <rect x="26" y="8" width="608.5" height="456.5" id="rect00001" />

   </clipPath>
   <g id="g00001" clip-path="url(#clipPath00001)" >
         <g id="g00002" >
               <rect stroke-width="0" fill="#1f77b4" opacity="1" x="19.0353" y="458.794" width="62.2429" height="5.70624" id="rect00002" />
         <rect stroke-width="0" fill="#1f77b4" opacity="1" x="81.2782" y="396.025" width="62.243" height="68.475" id="rect00003" />
         <rect stroke-width="0" fill="#1f77b4" opacity="1" x="143.521" y="319.942" width="62.2429" height="144.558" id="rect00004" />
         <rect stroke-width="0" fill="#1f77b4" opacity="1" x="205.764" y="125.929" width="62.243" height="338.571" id="rect00005" />
         <rect stroke-width="0" fill="#1f77b4" opacity="1" x="268.007" y="38.4333" width="62.2429" height="426.067" id="rect00006" />
         <rect stroke-width="0" fill="#1f77b4" opacity="1" x="330.25" y="8" width="62.243" height="456.5" id="rect00007" />
         <rect stroke-width="0" fill="#1f77b4" opacity="1" x="392.493" y="173.481" width="62.2429" height="291.019" id="rect00008" />
         <rect stroke-width="0" fill="#1f77b4" opacity="1" x="454.736" y="344.669" width="62.243" height="119.831" id="rect00009" />
         <rect stroke-width="0" fill="#1f77b4" opacity="1" x="516.979" y="422.654" width="62.243" height="41.8458" id="rect00010" />
         <rect stroke-width="0" fill="#1f77b4" opacity="1" x="579.222" y="454.99" width="62.243" height="9.51041" id="rect00011" />

      </g>

   </g>
   <rect stroke-width="1" stroke="black" fill="none" x="26" y="8" width="608.5" height="456.5" id="rect00001" />
   <line x1="82.881" y1="464.5" x2="82.881" y2="467.5" stroke-width="1" stroke="black" id="line00001" />
   <text x="82.881" y="470.5" font-size="10" font-family="sans-serif" text-anchor="middle" dominant-baseline="hanging" id="text00001" >
0   </text>
   <line x1="227.821" y1="464.5" x2="227.821" y2="467.5" stroke-width="1" stroke="black" id="line00002" />
   <text x="227.821" y="470.5" font-size="10" font-family="sans-serif" text-anchor="middle" dominant-baseline="hanging" id="text00002" >
3   </text>
   <line x1="372.762" y1="464.5" x2="372.762" y2="467.5" stroke-width="1" stroke="black" id="line00003" />
   <text x="372.762" y="470.5" font-size="10" font-family="sans-serif" text-anchor="middle" dominant-baseline="hanging" id="text00003" >
6   </text>
   <line x1="517.702" y1="464.5" x2="517.702" y2="467.5" stroke-width="1" stroke="black" id="line00004" />
   <text x="517.702" y="470.5" font-size="10" font-family="sans-serif" text-anchor="middle" dominant-baseline="hanging" id="text00004" >
9   </text>
   <line x1="26" y1="464.5" x2="23" y2="464.5" stroke-width="1" stroke="black" id="line00005" />
   <text x="22" y="464.5" font-size="10" font-family="sans-serif" text-anchor="end" dominant-baseline="middle" id="text00005" >
0   </text>
   <line x1="26" y1="350.375" x2="23" y2="350.375" stroke-width="1" stroke="black" id="line00006" />
   <text x="22" y="350.375" font-size="10" font-family="sans-serif" text-anchor="end" dominant-baseline="middle" id="text00006" >
60   </text>
   <line x1="26" y1="236.25" x2="23" y2="236.25" stroke-width="1" stroke="black" id="line00007" />
   <text x="22" y="236.25" font-size="10" font-family="sans-serif" text-anchor="end" dominant-baseline="middle" id="text00007" >
120   </text>
   <line x1="26" y1="122.125" x2="23" y2="122.125" stroke-width="1" stroke="black" id="line00008" />
   <text x="22" y="122.125" font-size="10" font-family="sans-serif" text-anchor="end" dominant-baseline="middle" id="text00008" >
180   </text>
   <line x1="26" y1="8" x2="23" y2="8" stroke-width="1" stroke="black" id="line00009" />
   <text x="22" y="8" font-size="10" font-family="sans-serif" text-anchor="end" dominant-baseline="middle" id="text00009" >
240   </text>

</svg>
