<svg xmlns="http://www.w3.org/2000/svg" xmlns:xlink="http://www.w3.org/1999/xlink" viewBox="0 0 200 200" id="svg00004" >
   <clipPath id="clipPath00004" >
         <rect x="11" y="8" width="178.5" height="176.5" id="rect00031" />

   </clipPath>
   <g id="g00007" clip-path="url(#clipPath00004)" >
         <g id="g00008" >
               <rect stroke-width="0" fill="rgb(68, 1, 84)" fill-opacity="1" x="11" y="166.85" width="17.85" height="17.65" id="rect00032" />
         <rect stroke-width="0" fill="rgb(66.3333, 38.2222, 112.333)" fill-opacity="1" x="11" y="149.2" width="17.85" height="17.65" id="rect00033" />
         <rect stroke-width="0" fill="rgb(62.4444, 73.7778, 135.778)" fill-opacity="1" x="11" y="131.55" width="17.85" height="17.65" id="rect00034" />
         <rect stroke-width="0" fill="rgb(49.6667, 102.667, 139.667)" fill-opacity="1" x="11" y="113.9" width="17.85" height="17.65" id="rect00035" />
         <rect stroke-width="0" fill="rgb(40.2222, 130.667, 139.778)" fill-opacity="1" x="11" y="96.25" width="17.85" height="17.65" id="rect00036" />
         <rect stroke-width="0" fill="rgb(35.7778, 157.333, 134.222)" fill-opacity="1" x="11" y="78.6" width="17.85" height="17.65" id="rect00037" />
         <rect stroke-width="0" fill="rgb(63.3333, 181.667, 115)" fill-opacity="1" x="11" y="60.95" width="17.85" height="17.65" id="rect00038" />
         <rect stroke-width="0" fill="rgb(112.222, 204.444, 86.6667)" fill-opacity="1" x="11" y="43.3" width="17.85" height="17.65" id="rect00039" />
         <rect stroke-width="0" fill="rgb(180.222, 218.778, 61.4444)" fill-opacity="1" x="11" y="25.65" width="17.85" height="17.65" id="rect00040" />
         <rect stroke-width="0" fill="rgb(253, 231, 37)" fill-opacity="1" x="11" y="8" width="17.85" height="17.65" id="rect00041" />
         <rect stroke-width="0" fill="rgb(67.1667, 19.6111, 98.1667)" fill-opacity="1" x="28.85" y="166.85" width="17.85" height="17.65" id="rect00042" />
         <rect stroke-width="0" fill="rgb(65.5, 56.8333, 126.5)" fill-opacity="1" x="28.85" y="149.2" width="17.85" height="17.65" id="rect00043" />
         <rect stroke-width="0" fill="rgb(56.0556, 88.2222, 137.722)" fill-opacity="1" x="28.85" y="131.55" width="17.85" height="17.65" id="rect00044" />
         <rect stroke-width="0" fill="rgb(43.2778, 117.111, 141.611)" fill-opacity="1" x="28.85" y="113.9" width="17.85" height="17.65" id="rect00045" />
         <rect stroke-width="0" fill="rgb(38, 144, 137)" fill-opacity="1" x="28.85" y="96.25" width="17.85" height="17.65" id="rect00046" />
         <rect stroke-width="0" fill="rgb(38.8889, 170.278, 129.167)" fill-opacity="1" x="28.85" y="78.6" width="17.85" height="17.65" id="rect00047" />
         <rect stroke-width="0" fill="rgb(87.7778, 193.056, 100.833)" fill-opacity="1" x="28.85" y="60.95" width="17.85" height="17.65" id="rect00048" />
         <rect stroke-width="0" fill="rgb(143.833, 212.667, 73.6667)" fill-opacity="1" x="28.85" y="43.3" width="17.85" height="17.65" id="rect00049" />
         <rect stroke-width="0" fill="rgb(216.611, 224.889, 49.2222)" fill-opacity="1" x="28.85" y="25.65" width="17.85" height="17.65" id="rect00050" />
         <rect stroke-width="0" fill="rgb(66.3333, 38.2222, 112.333)" fill-opacity="1" x="46.7" y="166.85" width="17.85" height="17.65" id="rect00051" />
         <rect stroke-width="0" fill="rgb(62.4444, 73.7778, 135.778)" fill-opacity="1" x="46.7" y="149.2" width="17.85" height="17.65" id="rect00052" />
         <rect stroke-width="0" fill="rgb(49.6667, 102.667, 139.667)" fill-opacity="1" x="46.7" y="131.55" width="17.85" height="17.65" id="rect00053" />
         <rect stroke-width="0" fill="rgb(40.2222, 130.667, 139.778)" fill-opacity="1" x="46.7" y="113.9" width="17.85" height="17.65" id="rect00054" />
         <rect stroke-width="0" fill="rgb(35.7778, 157.333, 134.222)" fill-opacity="1" x="46.7" y="96.25" width="17.85" height="17.65" id="rect00055" />
         <rect stroke-width="0" fill="rgb(63.3333, 181.667, 115)" fill-opacity="1" x="46.7" y="78.6" width="17.85" height="17.65" id="rect00056" />
         <rect stroke-width="0" fill="rgb(112.222, 204.444, 86.6667)" fill-opacity="1" x="46.7" y="60.95" width="17.85" height="17.65" id="rect00057" />
         <rect stroke-width="0" fill="rgb(180.222, 218.778, 61.4444)" fill-opacity="1" x="46.7" y="43.3" width="17.85" height="17.65" id="rect00058" />
         <rect stroke-width="0" fill="rgb(65.5, 56.8333, 126.5)" fill-opacity="1" x="64.55" y="166.85" width="17.85" height="17.65" id="rect00059" />
         <rect stroke-width="0" fill="rgb(56.0556, 88.2222, 137.722)" fill-opacity="1" x="64.55" y="149.2" width="17.85" height="17.65" id="rect00060" />
         <rect stroke-width="0" fill="rgb(43.2778, 117.111, 141.611)" fill-opacity="1" x="64.55" y="131.55" width="17.85" height="17.65" id="rect00061" />
         <rect stroke-width="0" fill="rgb(38, 144, 137)" fill-opacity="1" x="64.55" y="113.9" width="17.85" height="17.65" id="rect00062" />
         <rect stroke-width="0" fill="rgb(38.8889, 170.278, 129.167)" fill-opacity="1" x="64.55" y="96.25" width="17.85" height="17.65" id="rect00063" />
         <rect stroke-width="0" fill="rgb(87.7778, 193.056, 100.833)" fill-opacity="1" x="64.55" y="78.6" width="17.85" height="17.65" id="rect00064" />
         <rect stroke-width="0" fill="rgb(143.833, 212.667, 73.6667)" fill-opacity="1" x="64.55" y="60.95" width="17.85" height="17.65" id="rect00065" />
         <rect stroke-width="0" fill="rgb(62.4444, 73.7778, 135.778)" fill-opacity="1" x="82.4" y="166.85" width="17.85" height="17.65" id="rect00066" />
         <rect stroke-width="0" fill="rgb(49.6667, 102.667, 139.667)" fill-opacity="1" x="82.4" y="149.2" width="17.85" height="17.65" id="rect00067" />
         <rect stroke-width="0" fill="rgb(40.2222, 130.667, 139.778)" fill-opacity="1" x="82.4" y="131.55" width="17.85" height="17.65" id="rect00068" />
         <rect stroke-width="0" fill="rgb(35.7778, 157.333, 134.222)" fill-opacity="1" x="82.4" y="113.9" width="17.85" height="17.65" id="rect00069" />
         <rect stroke-width="0" fill="rgb(63.3333, 181.667, 115)" fill-opacity="1" x="82.4" y="96.25" width="17.85" height="17.65" id="rect00070" />
         <rect stroke-width="0" fill="rgb(112.222, 204.444, 86.6667)" fill-opacity="1" x="82.4" y="78.6" width="17.85" height="17.65" id="rect00071" />
         <rect stroke-width="0" fill="rgb(56.0556, 88.2222, 137.722)" fill-opacity="1" x="100.25" y="166.85" width="17.85" height="17.65" id="rect00072" />
         <rect stroke-width="0" fill="rgb(43.2778, 117.111, 141.611)" fill-opacity="1" x="100.25" y="149.2" width="17.85" height="17.65" id="rect00073" />
         <rect stroke-width="0" fill="rgb(38, 144, 137)" fill-opacity="1" x="100.25" y="131.55" width="17.85" height="17.65" id="rect00074" />
         <rect stroke-width="0" fill="rgb(38.8889, 170.278, 129.167)" fill-opacity="1" x="100.25" y="113.9" width="17.85" height="17.65" id="rect00075" />
         <rect stroke-width="0" fill="rgb(87.7778, 193.056, 100.833)" fill-opacity="1" x="100.25" y="96.25" width="17.85" height="17.65" id="rect00076" />
         <rect stroke-width="0" fill="rgb(49.6667, 102.667, 139.667)" fill-opacity="1" x="118.1" y="166.85" width="17.85" height="17.65" id="rect00077" />
         <rect stroke-width="0" fill="rgb(40.2222, 130.667, 139.778)" fill-opacity="1" x="118.1" y="149.2" width="17.85" height="17.65" id="rect00078" />
         <rect stroke-width="0" fill="rgb(35.7778, 157.333, 134.222)" fill-opacity="1" x="118.1" y="131.55" width="17.85" height="17.65" id="rect00079" />
         <rect stroke-width="0" fill="rgb(63.3333, 181.667, 115)" fill-opacity="1" x="118.1" y="113.9" width="17.85" height="17.65" id="rect00080" />
         <rect stroke-width="0" fill="rgb(43.2778, 117.111, 141.611)" fill-opacity="1" x="135.95" y="166.85" width="17.85" height="17.65" id="rect00081" />
         <rect stroke-width="0" fill="rgb(38, 144, 137)" fill-opacity="1" x="135.95" y="149.2" width="17.85" height="17.65" id="rect00082" />
         <rect stroke-width="0" fill="rgb(38.8889, 170.278, 129.167)" fill-opacity="1" x="135.95" y="131.55" width="17.85" height="17.65" id="rect00083" />
         <rect stroke-width="0" fill="rgb(40.2222, 130.667, 139.778)" fill-opacity="1" x="153.8" y="166.85" width="17.85" height="17.65" id="rect00084" />
         <rect stroke-width="0" fill="rgb(35.7778, 157.333, 134.222)" fill-opacity="1" x="153.8" y="149.2" width="17.85" height="17.65" id="rect00085" />
         <rect stroke-width="0" fill="rgb(38, 144, 137)" fill-opacity="1" x="171.65" y="166.85" width="17.85" height="17.65" id="rect00086" />

      </g>

   </g>
   <rect stroke-width="1" stroke="black" fill="none" x="11" y="8" width="178.5" height="176.5" id="rect00031" />
   <line x1="19.925" y1="184.5" x2="19.925" y2="187.5" stroke-width="1" stroke="black" id="line00025" />
   <text x="19.925" y="190.5" font-size="10" font-family="sans-serif" text-anchor="middle" dominant-baseline="hanging" id="text00025" >
0   </text>
   <line x1="55.625" y1="184.5" x2="55.625" y2="187.5" stroke-width="1" stroke="black" id="line00026" />
   <text x="55.625" y="190.5" font-size="10" font-family="sans-serif" text-anchor="middle" dominant-baseline="hanging" id="text00026" >
2   </text>
   <line x1="91.325" y1="184.5" x2="91.325" y2="187.5" stroke-width="1" stroke="black" id="line00027" />
   <text x="91.325" y="190.5" font-size="10" font-family="sans-serif" text-anchor="middle" dominant-baseline="hanging" id="text00027" >
4   </text>
   <line x1="127.025" y1="184.5" x2="127.025" y2="187.5" stroke-width="1" stroke="black" id="line00028" />
   <text x="127.025" y="190.5" font-size="10" font-family="sans-serif" text-anchor="middle" dominant-baseline="hanging" id="text00028" >
6   </text>
   <line x1="162.725" y1="184.5" x2="162.725" y2="187.5" stroke-width="1" stroke="black" id="line00029" />
   <text x="162.725" y="190.5" font-size="10" font-family="sans-serif" text-anchor="middle" dominant-baseline="hanging" id="text00029" >
8   </text>
   <line x1="11" y1="175.675" x2="8" y2="175.675" stroke-width="1" stroke="black" id="line00030" />
   <text x="7" y="175.675" font-size="10" font-family="sans-serif" text-anchor="end" dominant-baseline="middle" id="text00030" >
0   </text>
   <line x1="11" y1="140.375" x2="8" y2="140.375" stroke-width="1" stroke="black" id="line00031" />
   <text x="7" y="140.375" font-size="10" font-family="sans-serif" text-anchor="end" dominant-baseline="middle" id="text00031" >
2   </text>
   <line x1="11" y1="105.075" x2="8" y2="105.075" stroke-width="1" stroke="black" id="line00032" />
   <text x="7" y="105.075" font-size="10" font-family="sans-serif" text-anchor="end" dominant-baseline="middle" id="text00032" >
4   </text>
   <line x1="11" y1="69.775" x2="8" y2="69.775" stroke-width="1" stroke="black" id="line00033" />
   <text x="7" y="69.775" font-size="10" font-family="sans-serif" text-anchor="end" dominant-baseline="middle" id="text00033" >
6   </text>
   <line x1="11" y1="34.475" x2="8" y2="34.475" stroke-width="1" stroke="black" id="line00034" />
   <text x="7" y="34.475" font-size="10" font-family="sans-serif" text-anchor="end" dominant-baseline="middle" id="text00034" >
8   </text>

</svg>
