<svg xmlns="http://www.w3.org/2000/svg" xmlns:xlink="http://www.w3.org/1999/xlink" viewBox="0 0 200 50" id="svg00007" >
   <clipPath id="clipPath00007" >
         <rect x="3.5" y="8" width="196" height="41.5" id="rect01698" />

   </clipPath>
   <g id="g00013" clip-path="url(#clipPath00007)" >
         <g id="g00014" >
               <rect stroke-width="0" fill="rgb(68, 1, 84)" fill-opacity="1" x="3.5" y="8" width="1.94059" height="41.5" id="rect01699" />
         <rect stroke-width="0" fill="rgb(67.85, 4.35, 86.55)" fill-opacity="1" x="5.44059" y="8" width="1.94059" height="41.5" id="rect01700" />
         <rect stroke-width="0" fill="rgb(67.7, 7.7, 89.1)" fill-opacity="1" x="7.38119" y="8" width="1.94059" height="41.5" id="rect01701" />
         <rect stroke-width="0" fill="rgb(67.55, 11.05, 91.65)" fill-opacity="1" x="9.32178" y="8" width="1.94059" height="41.5" id="rect01702" />
         <rect stroke-width="0" fill="rgb(67.4, 14.4, 94.2)" fill-opacity="1" x="11.2624" y="8" width="1.94059" height="41.5" id="rect01703" />
         <rect stroke-width="0" fill="rgb(67.25, 17.75, 96.75)" fill-opacity="1" x="13.203" y="8" width="1.94059" height="41.5" id="rect01704" />
         <rect stroke-width="0" fill="rgb(67.1, 21.1, 99.3)" fill-opacity="1" x="15.1436" y="8" width="1.94059" height="41.5" id="rect01705" />
         <rect stroke-width="0" fill="rgb(66.95, 24.45, 101.85)" fill-opacity="1" x="17.0842" y="8" width="1.94059" height="41.5" id="rect01706" />
         <rect stroke-width="0" fill="rgb(66.8, 27.8, 104.4)" fill-opacity="1" x="19.0248" y="8" width="1.94059" height="41.5" id="rect01707" />
         <rect stroke-width="0" fill="rgb(66.65, 31.15, 106.95)" fill-opacity="1" x="20.9653" y="8" width="1.94059" height="41.5" id="rect01708" />
         <rect stroke-width="0" fill="rgb(66.5, 34.5, 109.5)" fill-opacity="1" x="22.9059" y="8" width="1.94059" height="41.5" id="rect01709" />
         <rect stroke-width="0" fill="rgb(66.35, 37.85, 112.05)" fill-opacity="1" x="24.8465" y="8" width="1.94059" height="41.5" id="rect01710" />
         <rect stroke-width="0" fill="rgb(66.2, 41.2, 114.6)" fill-opacity="1" x="26.7871" y="8" width="1.94059" height="41.5" id="rect01711" />
         <rect stroke-width="0" fill="rgb(66.05, 44.55, 117.15)" fill-opacity="1" x="28.7277" y="8" width="1.94059" height="41.5" id="rect01712" />
         <rect stroke-width="0" fill="rgb(65.9, 47.9, 119.7)" fill-opacity="1" x="30.6683" y="8" width="1.94059" height="41.5" id="rect01713" />
         <rect stroke-width="0" fill="rgb(65.75, 51.25, 122.25)" fill-opacity="1" x="32.6089" y="8" width="1.9406" height="41.5" id="rect01714" />
         <rect stroke-width="0" fill="rgb(65.6, 54.6, 124.8)" fill-opacity="1" x="34.5495" y="8" width="1.94059" height="41.5" id="rect01715" />
         <rect stroke-width="0" fill="rgb(65.45, 57.95, 127.35)" fill-opacity="1" x="36.4901" y="8" width="1.94059" height="41.5" id="rect01716" />
         <rect stroke-width="0" fill="rgb(65.3, 61.3, 129.9)" fill-opacity="1" x="38.4307" y="8" width="1.94059" height="41.5" id="rect01717" />
         <rect stroke-width="0" fill="rgb(65.15, 64.65, 132.45)" fill-opacity="1" x="40.3713" y="8" width="1.94059" height="41.5" id="rect01718" />
         <rect stroke-width="0" fill="rgb(65, 68, 135)" fill-opacity="1" x="42.3119" y="8" width="1.94059" height="41.5" id="rect01719" />
         <rect stroke-width="0" fill="rgb(63.85, 70.6, 135.35)" fill-opacity="1" x="44.2525" y="8" width="1.94059" height="41.5" id="rect01720" />
         <rect stroke-width="0" fill="rgb(62.7, 73.2, 135.7)" fill-opacity="1" x="46.1931" y="8" width="1.94059" height="41.5" id="rect01721" />
         <rect stroke-width="0" fill="rgb(61.55, 75.8, 136.05)" fill-opacity="1" x="48.1337" y="8" width="1.94059" height="41.5" id="rect01722" />
         <rect stroke-width="0" fill="rgb(60.4, 78.4001, 136.4)" fill-opacity="1" x="50.0743" y="8" width="1.94059" height="41.5" id="rect01723" />
         <rect stroke-width="0" fill="rgb(59.25, 81.0001, 136.75)" fill-opacity="1" x="52.0149" y="8" width="1.9406" height="41.5" id="rect01724" />
         <rect stroke-width="0" fill="rgb(58.1, 83.6001, 137.1)" fill-opacity="1" x="53.9554" y="8" width="1.94059" height="41.5" id="rect01725" />
         <rect stroke-width="0" fill="rgb(56.95, 86.2001, 137.45)" fill-opacity="1" x="55.896" y="8" width="1.94059" height="41.5" id="rect01726" />
         <rect stroke-width="0" fill="rgb(55.8, 88.8, 137.8)" fill-opacity="1" x="57.8366" y="8" width="1.94059" height="41.5" id="rect01727" />
         <rect stroke-width="0" fill="rgb(54.65, 91.4, 138.15)" fill-opacity="1" x="59.7772" y="8" width="1.94059" height="41.5" id="rect01728" />
         <rect stroke-width="0" fill="rgb(53.5, 94, 138.5)" fill-opacity="1" x="61.7178" y="8" width="1.94059" height="41.5" id="rect01729" />
         <rect stroke-width="0" fill="rgb(52.35, 96.6, 138.85)" fill-opacity="1" x="63.6584" y="8" width="1.9406" height="41.5" id="rect01730" />
         <rect stroke-width="0" fill="rgb(51.2, 99.2001, 139.2)" fill-opacity="1" x="65.599" y="8" width="1.94059" height="41.5" id="rect01731" />
         <rect stroke-width="0" fill="rgb(50.05, 101.8, 139.55)" fill-opacity="1" x="67.5396" y="8" width="1.94059" height="41.5" id="rect01732" />
         <rect stroke-width="0" fill="rgb(48.9, 104.4, 139.9)" fill-opacity="1" x="69.4802" y="8" width="1.9406" height="41.5" id="rect01733" />
         <rect stroke-width="0" fill="rgb(47.75, 107, 140.25)" fill-opacity="1" x="71.4208" y="8" width="1.94059" height="41.5" id="rect01734" />
         <rect stroke-width="0" fill="rgb(46.6, 109.6, 140.6)" fill-opacity="1" x="73.3614" y="8" width="1.9406" height="41.5" id="rect01735" />
         <rect stroke-width="0" fill="rgb(45.45, 112.2, 140.95)" fill-opacity="1" x="75.302" y="8" width="1.94059" height="41.5" id="rect01736" />
         <rect stroke-width="0" fill="rgb(44.3, 114.8, 141.3)" fill-opacity="1" x="77.2426" y="8" width="1.94059" height="41.5" id="rect01737" />
         <rect stroke-width="0" fill="rgb(43.15, 117.4, 141.65)" fill-opacity="1" x="79.1832" y="8" width="1.9406" height="41.5" id="rect01738" />
         <rect stroke-width="0" fill="rgb(42, 120, 142)" fill-opacity="1" x="81.1238" y="8" width="1.94059" height="41.5" id="rect01739" />
         <rect stroke-width="0" fill="rgb(41.6, 122.4, 141.5)" fill-opacity="1" x="83.0644" y="8" width="1.9406" height="41.5" id="rect01740" />
         <rect stroke-width="0" fill="rgb(41.2, 124.8, 141)" fill-opacity="1" x="85.005" y="8" width="1.94059" height="41.5" id="rect01741" />
         <rect stroke-width="0" fill="rgb(40.8, 127.2, 140.5)" fill-opacity="1" x="86.9455" y="8" width="1.9406" height="41.5" id="rect01742" />
         <rect stroke-width="0" fill="rgb(40.4, 129.6, 140)" fill-opacity="1" x="88.8861" y="8" width="1.94059" height="41.5" id="rect01743" />
         <rect stroke-width="0" fill="rgb(40, 132, 139.5)" fill-opacity="1" x="90.8267" y="8" width="1.9406" height="41.5" id="rect01744" />
         <rect stroke-width="0" fill="rgb(39.6, 134.4, 139)" fill-opacity="1" x="92.7673" y="8" width="1.94059" height="41.5" id="rect01745" />
         <rect stroke-width="0" fill="rgb(39.2, 136.8, 138.5)" fill-opacity="1" x="94.7079" y="8" width="1.9406" height="41.5" id="rect01746" />
         <rect stroke-width="0" fill="rgb(38.8, 139.2, 138)" fill-opacity="1" x="96.6485" y="8" width="1.94059" height="41.5" id="rect01747" />
         <rect stroke-width="0" fill="rgb(38.4, 141.6, 137.5)" fill-opacity="1" x="98.5891" y="8" width="1.94059" height="41.5" id="rect01748" />
         <rect stroke-width="0" fill="rgb(38, 144, 137)" fill-opacity="1" x="100.53" y="8" width="1.94061" height="41.5" id="rect01749" />
         <rect stroke-width="0" fill="rgb(37.6, 146.4, 136.5)" fill-opacity="1" x="102.47" y="8" width="1.94059" height="41.5" id="rect01750" />
         <rect stroke-width="0" fill="rgb(37.2, 148.8, 136)" fill-opacity="1" x="104.411" y="8" width="1.9406" height="41.5" id="rect01751" />
         <rect stroke-width="0" fill="rgb(36.8, 151.2, 135.5)" fill-opacity="1" x="106.351" y="8" width="1.94059" height="41.5" id="rect01752" />
         <rect stroke-width="0" fill="rgb(36.4, 153.6, 135)" fill-opacity="1" x="108.292" y="8" width="1.94059" height="41.5" id="rect01753" />
         <rect stroke-width="0" fill="rgb(36, 156, 134.5)" fill-opacity="1" x="110.233" y="8" width="1.9406" height="41.5" id="rect01754" />
         <rect stroke-width="0" fill="rgb(35.6, 158.4, 134)" fill-opacity="1" x="112.173" y="8" width="1.94059" height="41.5" id="rect01755" />
         <rect stroke-width="0" fill="rgb(35.2, 160.8, 133.5)" fill-opacity="1" x="114.114" y="8" width="1.9406" height="41.5" id="rect01756" />
         <rect stroke-width="0" fill="rgb(34.8, 163.2, 133)" fill-opacity="1" x="116.054" y="8" width="1.94059" height="41.5" id="rect01757" />
         <rect stroke-width="0" fill="rgb(34.4, 165.6, 132.5)" fill-opacity="1" x="117.995" y="8" width="1.9406" height="41.5" id="rect01758" />
         <rect stroke-width="0" fill="rgb(34.0001, 168, 132)" fill-opacity="1" x="119.936" y="8" width="1.94059" height="41.5" id="rect01759" />
         <rect stroke-width="0" fill="rgb(38.4001, 170.05, 129.45)" fill-opacity="1" x="121.876" y="8" width="1.9406" height="41.5" id="rect01760" />
         <rect stroke-width="0" fill="rgb(42.8001, 172.1, 126.9)" fill-opacity="1" x="123.817" y="8" width="1.94059" height="41.5" id="rect01761" />
         <rect stroke-width="0" fill="rgb(47.2001, 174.15, 124.35)" fill-opacity="1" x="125.757" y="8" width="1.9406" height="41.5" id="rect01762" />
         <rect stroke-width="0" fill="rgb(51.6, 176.2, 121.8)" fill-opacity="1" x="127.698" y="8" width="1.94059" height="41.5" id="rect01763" />
         <rect stroke-width="0" fill="rgb(56, 178.25, 119.25)" fill-opacity="1" x="129.639" y="8" width="1.9406" height="41.5" id="rect01764" />
         <rect stroke-width="0" fill="rgb(60.4, 180.3, 116.7)" fill-opacity="1" x="131.579" y="8" width="1.9406" height="41.5" id="rect01765" />
         <rect stroke-width="0" fill="rgb(64.8, 182.35, 114.15)" fill-opacity="1" x="133.52" y="8" width="1.94058" height="41.5" id="rect01766" />
         <rect stroke-width="0" fill="rgb(69.2, 184.4, 111.6)" fill-opacity="1" x="135.46" y="8" width="1.9406" height="41.5" id="rect01767" />
         <rect stroke-width="0" fill="rgb(73.6, 186.45, 109.05)" fill-opacity="1" x="137.401" y="8" width="1.9406" height="41.5" id="rect01768" />
         <rect stroke-width="0" fill="rgb(78, 188.5, 106.5)" fill-opacity="1" x="139.342" y="8" width="1.94058" height="41.5" id="rect01769" />
         <rect stroke-width="0" fill="rgb(82.4, 190.55, 103.95)" fill-opacity="1" x="141.282" y="8" width="1.9406" height="41.5" id="rect01770" />
         <rect stroke-width="0" fill="rgb(86.8, 192.6, 101.4)" fill-opacity="1" x="143.223" y="8" width="1.9406" height="41.5" id="rect01771" />
         <rect stroke-width="0" fill="rgb(91.2, 194.65, 98.85)" fill-opacity="1" x="145.163" y="8" width="1.9406" height="41.5" id="rect01772" />
         <rect stroke-width="0" fill="rgb(95.6, 196.7, 96.3)" fill-opacity="1" x="147.104" y="8" width="1.94058" height="41.5" id="rect01773" />
         <rect stroke-width="0" fill="rgb(100, 198.75, 93.75)" fill-opacity="1" x="149.045" y="8" width="1.9406" height="41.5" id="rect01774" />
         <rect stroke-width="0" fill="rgb(104.4, 200.8, 91.2)" fill-opacity="1" x="150.985" y="8" width="1.9406" height="41.5" id="rect01775" />
         <rect stroke-width="0" fill="rgb(108.8, 202.85, 88.65)" fill-opacity="1" x="152.926" y="8" width="1.94058" height="41.5" id="rect01776" />
         <rect stroke-width="0" fill="rgb(113.2, 204.9, 86.1)" fill-opacity="1" x="154.866" y="8" width="1.9406" height="41.5" id="rect01777" />
         <rect stroke-width="0" fill="rgb(117.6, 206.95, 83.55)" fill-opacity="1" x="156.807" y="8" width="1.9406" height="41.5" id="rect01778" />
         <rect stroke-width="0" fill="rgb(122, 209, 81)" fill-opacity="1" x="158.748" y="8" width="1.9406" height="41.5" id="rect01779" />
         <rect stroke-width="0" fill="rgb(128.55, 210.1, 78.8)" fill-opacity="1" x="160.688" y="8" width="1.94058" height="41.5" id="rect01780" />
         <rect stroke-width="0" fill="rgb(135.1, 211.2, 76.6)" fill-opacity="1" x="162.629" y="8" width="1.9406" height="41.5" id="rect01781" />
         <rect stroke-width="0" fill="rgb(141.65, 212.3, 74.4)" fill-opacity="1" x="164.569" y="8" width="1.9406" height="41.5" id="rect01782" />
         <rect stroke-width="0" fill="rgb(148.2, 213.4, 72.2)" fill-opacity="1" x="166.51" y="8" width="1.94058" height="41.5" id="rect01783" />
         <rect stroke-width="0" fill="rgb(154.75, 214.5, 70)" fill-opacity="1" x="168.45" y="8" width="1.9406" height="41.5" id="rect01784" />
         <rect stroke-width="0" fill="rgb(161.3, 215.6, 67.8)" fill-opacity="1" x="170.391" y="8" width="1.9406" height="41.5" id="rect01785" />
         <rect stroke-width="0" fill="rgb(167.85, 216.7, 65.6)" fill-opacity="1" x="172.332" y="8" width="1.9406" height="41.5" id="rect01786" />
         <rect stroke-width="0" fill="rgb(174.4, 217.8, 63.4)" fill-opacity="1" x="174.272" y="8" width="1.94058" height="41.5" id="rect01787" />
         <rect stroke-width="0" fill="rgb(180.95, 218.9, 61.2)" fill-opacity="1" x="176.213" y="8" width="1.9406" height="41.5" id="rect01788" />
         <rect stroke-width="0" fill="rgb(187.5, 220, 59)" fill-opacity="1" x="178.153" y="8" width="1.9406" height="41.5" id="rect01789" />
         <rect stroke-width="0" fill="rgb(194.05, 221.1, 56.8)" fill-opacity="1" x="180.094" y="8" width="1.9406" height="41.5" id="rect01790" />
         <rect stroke-width="0" fill="rgb(200.6, 222.2, 54.6)" fill-opacity="1" x="182.035" y="8" width="1.94058" height="41.5" id="rect01791" />
         <rect stroke-width="0" fill="rgb(207.15, 223.3, 52.4)" fill-opacity="1" x="183.975" y="8" width="1.9406" height="41.5" id="rect01792" />
         <rect stroke-width="0" fill="rgb(213.7, 224.4, 50.2)" fill-opacity="1" x="185.916" y="8" width="1.9406" height="41.5" id="rect01793" />
         <rect stroke-width="0" fill="rgb(220.25, 225.5, 48)" fill-opacity="1" x="187.856" y="8" width="1.9406" height="41.5" id="rect01794" />
         <rect stroke-width="0" fill="rgb(226.8, 226.6, 45.8)" fill-opacity="1" x="189.797" y="8" width="1.94058" height="41.5" id="rect01795" />
         <rect stroke-width="0" fill="rgb(233.35, 227.7, 43.6)" fill-opacity="1" x="191.738" y="8" width="1.9406" height="41.5" id="rect01796" />
         <rect stroke-width="0" fill="rgb(239.9, 228.8, 41.4)" fill-opacity="1" x="193.678" y="8" width="1.9406" height="41.5" id="rect01797" />
         <rect stroke-width="0" fill="rgb(246.45, 229.9, 39.2)" fill-opacity="1" x="195.619" y="8" width="1.94058" height="41.5" id="rect01798" />
         <rect stroke-width="0" fill="rgb(253, 231, 37)" fill-opacity="1" x="197.559" y="8" width="1.9406" height="41.5" id="rect01799" />

      </g>

   </g>
   <rect stroke-width="1" stroke="black" fill="none" x="3.5" y="8" width="196" height="41.5" id="rect01698" />
   <line x1="3.5" y1="49.5" x2="3.5" y2="52.5" stroke-width="1" stroke="black" id="line00055" />
   <text x="3.5" y="55.5" font-size="10" font-family="sans-serif" text-anchor="middle" dominant-baseline="hanging" id="text00055" >
0   </text>
   <line x1="42.7" y1="49.5" x2="42.7" y2="52.5" stroke-width="1" stroke="black" id="line00056" />
   <text x="42.7" y="55.5" font-size="10" font-family="sans-serif" text-anchor="middle" dominant-baseline="hanging" id="text00056" >
0.2   </text>
   <line x1="81.9" y1="49.5" x2="81.9" y2="52.5" stroke-width="1" stroke="black" id="line00057" />
   <text x="81.9" y="55.5" font-size="10" font-family="sans-serif" text-anchor="middle" dominant-baseline="hanging" id="text00057" >
0.4   </text>
   <line x1="121.1" y1="49.5" x2="121.1" y2="52.5" stroke-width="1" stroke="black" id="line00058" />
   <text x="121.1" y="55.5" font-size="10" font-family="sans-serif" text-anchor="middle" dominant-baseline="hanging" id="text00058" >
0.6   </text>
   <line x1="160.3" y1="49.5" x2="160.3" y2="52.5" stroke-width="1" stroke="black" id="line00059" />
   <text x="160.3" y="55.5" font-size="10" font-family="sans-serif" text-anchor="middle" dominant-baseline="hanging" id="text00059" >
0.8   </text>
   <line x1="199.5" y1="49.5" x2="199.5" y2="52.5" stroke-width="1" stroke="black" id="line00060" />
   <text x="199.5" y="55.5" font-size="10" font-family="sans-serif" text-anchor="middle" dominant-baseline="hanging" id="text00060" >
1   </text>

</svg>
