<svg xmlns="http://www.w3.org/2000/svg" xmlns:xlink="http://www.w3.org/1999/xlink" viewBox="0 0 200 200" id="svg00005" >
   <clipPath id="clipPath00005" >
         <rect x="11" y="8" width="178.5" height="176.5" id="rect00041" />

   </clipPath>
   <g id="g00009" clip-path="url(#clipPath00005)" >
         <g id="g00010" >
               <rect stroke-width="0" fill="rgb(68, 1, 84)" fill-opacity="1" x="11" y="165.085" width="19.635" height="19.415" id="rect00042" />
         <rect stroke-width="0" fill="rgb(66.3333, 38.2222, 112.333)" fill-opacity="1" x="11" y="147.435" width="19.635" height="19.415" id="rect00043" />
         <rect stroke-width="0" fill="rgb(62.4444, 73.7778, 135.778)" fill-opacity="1" x="11" y="129.785" width="19.635" height="19.415" id="rect00044" />
         <rect stroke-width="0" fill="rgb(49.6667, 102.667, 139.667)" fill-opacity="1" x="11" y="112.135" width="19.635" height="19.415" id="rect00045" />
         <rect stroke-width="0" fill="rgb(40.2222, 130.667, 139.778)" fill-opacity="1" x="11" y="94.485" width="19.635" height="19.415" id="rect00046" />
         <rect stroke-width="0" fill="rgb(35.7778, 157.333, 134.222)" fill-opacity="1" x="11" y="76.835" width="19.635" height="19.415" id="rect00047" />
         <rect stroke-width="0" fill="rgb(63.3333, 181.667, 115)" fill-opacity="1" x="11" y="59.185" width="19.635" height="19.415" id="rect00048" />
         <rect stroke-width="0" fill="rgb(112.222, 204.444, 86.6667)" fill-opacity="1" x="11" y="41.535" width="19.635" height="19.415" id="rect00049" />
         <rect stroke-width="0" fill="rgb(180.222, 218.778, 61.4444)" fill-opacity="1" x="11" y="23.885" width="19.635" height="19.415" id="rect00050" />
         <rect stroke-width="0" fill="rgb(253, 231, 37)" fill-opacity="1" x="11" y="6.235" width="19.635" height="19.415" id="rect00051" />
         <rect stroke-width="0" fill="rgb(67.1667, 19.6111, 98.1667)" fill-opacity="1" x="28.85" y="165.085" width="19.635" height="19.415" id="rect00052" />
         <rect stroke-width="0" fill="rgb(65.5, 56.8333, 126.5)" fill-opacity="1" x="28.85" y="147.435" width="19.635" height="19.415" id="rect00053" />
         <rect stroke-width="0" fill="rgb(56.0556, 88.2222, 137.722)" fill-opacity="1" x="28.85" y="129.785" width="19.635" height="19.415" id="rect00054" />
         <rect stroke-width="0" fill="rgb(43.2778, 117.111, 141.611)" fill-opacity="1" x="28.85" y="112.135" width="19.635" height="19.415" id="rect00055" />
         <rect stroke-width="0" fill="rgb(38, 144, 137)" fill-opacity="1" x="28.85" y="94.485" width="19.635" height="19.415" id="rect00056" />
         <rect stroke-width="0" fill="rgb(38.8889, 170.278, 129.167)" fill-opacity="1" x="28.85" y="76.835" width="19.635" height="19.415" id="rect00057" />
         <rect stroke-width="0" fill="rgb(87.7778, 193.056, 100.833)" fill-opacity="1" x="28.85" y="59.185" width="19.635" height="19.415" id="rect00058" />
         <rect stroke-width="0" fill="rgb(143.833, 212.667, 73.6667)" fill-opacity="1" x="28.85" y="41.535" width="19.635" height="19.415" id="rect00059" />
         <rect stroke-width="0" fill="rgb(216.611, 224.889, 49.2222)" fill-opacity="1" x="28.85" y="23.885" width="19.635" height="19.415" id="rect00060" />
         <rect stroke-width="0" fill="rgb(66.3333, 38.2222, 112.333)" fill-opacity="1" x="46.7" y="165.085" width="19.635" height="19.415" id="rect00061" />
         <rect stroke-width="0" fill="rgb(62.4444, 73.7778, 135.778)" fill-opacity="1" x="46.7" y="147.435" width="19.635" height="19.415" id="rect00062" />
         <rect stroke-width="0" fill="rgb(49.6667, 102.667, 139.667)" fill-opacity="1" x="46.7" y="129.785" width="19.635" height="19.415" id="rect00063" />
         <rect stroke-width="0" fill="rgb(40.2222, 130.667, 139.778)" fill-opacity="1" x="46.7" y="112.135" width="19.635" height="19.415" id="rect00064" />
         <rect stroke-width="0" fill="rgb(35.7778, 157.333, 134.222)" fill-opacity="1" x="46.7" y="94.485" width="19.635" height="19.415" id="rect00065" />
         <rect stroke-width="0" fill="rgb(63.3333, 181.667, 115)" fill-opacity="1" x="46.7" y="76.835" width="19.635" height="19.415" id="rect00066" />
         <rect stroke-width="0" fill="rgb(112.222, 204.444, 86.6667)" fill-opacity="1" x="46.7" y="59.185" width="19.635" height="19.415" id="rect00067" />
         <rect stroke-width="0" fill="rgb(180.222, 218.778, 61.4444)" fill-opacity="1" x="46.7" y="41.535" width="19.635" height="19.415" id="rect00068" />
         <rect stroke-width="0" fill="rgb(65.5, 56.8333, 126.5)" fill-opacity="1" x="64.55" y="165.085" width="19.635" height="19.415" id="rect00069" />
         <rect stroke-width="0" fill="rgb(56.0556, 88.2222, 137.722)" fill-opacity="1" x="64.55" y="147.435" width="19.635" height="19.415" id="rect00070" />
         <rect stroke-width="0" fill="rgb(43.2778, 117.111, 141.611)" fill-opacity="1" x="64.55" y="129.785" width="19.635" height="19.415" id="rect00071" />
         <rect stroke-width="0" fill="rgb(38, 144, 137)" fill-opacity="1" x="64.55" y="112.135" width="19.635" height="19.415" id="rect00072" />
         <rect stroke-width="0" fill="rgb(38.8889, 170.278, 129.167)" fill-opacity="1" x="64.55" y="94.485" width="19.635" height="19.415" id="rect00073" />
         <rect stroke-width="0" fill="rgb(87.7778, 193.056, 100.833)" fill-opacity="1" x="64.55" y="76.835" width="19.635" height="19.415" id="rect00074" />
         <rect stroke-width="0" fill="rgb(143.833, 212.667, 73.6667)" fill-opacity="1" x="64.55" y="59.185" width="19.635" height="19.415" id="rect00075" />
         <rect stroke-width="0" fill="rgb(62.4444, 73.7778, 135.778)" fill-opacity="1" x="82.4" y="165.085" width="19.635" height="19.415" id="rect00076" />
         <rect stroke-width="0" fill="rgb(49.6667, 102.667, 139.667)" fill-opacity="1" x="82.4" y="147.435" width="19.635" height="19.415" id="rect00077" />
         <rect stroke-width="0" fill="rgb(40.2222, 130.667, 139.778)" fill-opacity="1" x="82.4" y="129.785" width="19.635" height="19.415" id="rect00078" />
         <rect stroke-width="0" fill="rgb(35.7778, 157.333, 134.222)" fill-opacity="1" x="82.4" y="112.135" width="19.635" height="19.415" id="rect00079" />
         <rect stroke-width="0" fill="rgb(63.3333, 181.667, 115)" fill-opacity="1" x="82.4" y="94.485" width="19.635" height="19.415" id="rect00080" />
         <rect stroke-width="0" fill="rgb(112.222, 204.444, 86.6667)" fill-opacity="1" x="82.4" y="76.835" width="19.635" height="19.415" id="rect00081" />
         <rect stroke-width="0" fill="rgb(56.0556, 88.2222, 137.722)" fill-opacity="1" x="100.25" y="165.085" width="19.635" height="19.415" id="rect00082" />
         <rect stroke-width="0" fill="rgb(43.2778, 117.111, 141.611)" fill-opacity="1" x="100.25" y="147.435" width="19.635" height="19.415" id="rect00083" />
         <rect stroke-width="0" fill="rgb(38, 144, 137)" fill-opacity="1" x="100.25" y="129.785" width="19.635" height="19.415" id="rect00084" />
         <rect stroke-width="0" fill="rgb(38.8889, 170.278, 129.167)" fill-opacity="1" x="100.25" y="112.135" width="19.635" height="19.415" id="rect00085" />
         <rect stroke-width="0" fill="rgb(87.7778, 193.056, 100.833)" fill-opacity="1" x="100.25" y="94.485" width="19.635" height="19.415" id="rect00086" />
         <rect stroke-width="0" fill="rgb(49.6667, 102.667, 139.667)" fill-opacity="1" x="118.1" y="165.085" width="19.635" height="19.415" id="rect00087" />
         <rect stroke-width="0" fill="rgb(40.2222, 130.667, 139.778)" fill-opacity="1" x="118.1" y="147.435" width="19.635" height="19.415" id="rect00088" />
         <rect stroke-width="0" fill="rgb(35.7778, 157.333, 134.222)" fill-opacity="1" x="118.1" y="129.785" width="19.635" height="19.415" id="rect00089" />
         <rect stroke-width="0" fill="rgb(63.3333, 181.667, 115)" fill-opacity="1" x="118.1" y="112.135" width="19.635" height="19.415" id="rect00090" />
         <rect stroke-width="0" fill="rgb(43.2778, 117.111, 141.611)" fill-opacity="1" x="135.95" y="165.085" width="19.635" height="19.415" id="rect00091" />
         <rect stroke-width="0" fill="rgb(38, 144, 137)" fill-opacity="1" x="135.95" y="147.435" width="19.635" height="19.415" id="rect00092" />
         <rect stroke-width="0" fill="rgb(38.8889, 170.278, 129.167)" fill-opacity="1" x="135.95" y="129.785" width="19.635" height="19.415" id="rect00093" />
         <rect stroke-width="0" fill="rgb(40.2222, 130.667, 139.778)" fill-opacity="1" x="153.8" y="165.085" width="19.635" height="19.415" id="rect00094" />
         <rect stroke-width="0" fill="rgb(35.7778, 157.333, 134.222)" fill-opacity="1" x="153.8" y="147.435" width="19.635" height="19.415" id="rect00095" />
         <rect stroke-width="0" fill="rgb(38, 144, 137)" fill-opacity="1" x="171.65" y="165.085" width="19.635" height="19.415" id="rect00096" />

      </g>

   </g>
   <rect stroke-width="1" stroke="black" fill="none" x="11" y="8" width="178.5" height="176.5" id="rect00041" />
   <line x1="19.925" y1="184.5" x2="19.925" y2="187.5" stroke-width="1" stroke="black" id="line00033" />
   <text x="19.925" y="190.5" font-size="10" font-family="sans-serif" text-anchor="middle" dominant-baseline="hanging" id="text00033" >
0   </text>
   <line x1="55.625" y1="184.5" x2="55.625" y2="187.5" stroke-width="1" stroke="black" id="line00034" />
   <text x="55.625" y="190.5" font-size="10" font-family="sans-serif" text-anchor="middle" dominant-baseline="hanging" id="text00034" >
2   </text>
   <line x1="91.325" y1="184.5" x2="91.325" y2="187.5" stroke-width="1" stroke="black" id="line00035" />
   <text x="91.325" y="190.5" font-size="10" font-family="sans-serif" text-anchor="middle" dominant-baseline="hanging" id="text00035" >
4   </text>
   <line x1="127.025" y1="184.5" x2="127.025" y2="187.5" stroke-width="1" stroke="black" id="line00036" />
   <text x="127.025" y="190.5" font-size="10" font-family="sans-serif" text-anchor="middle" dominant-baseline="hanging" id="text00036" >
6   </text>
   <line x1="162.725" y1="184.5" x2="162.725" y2="187.5" stroke-width="1" stroke="black" id="line00037" />
   <text x="162.725" y="190.5" font-size="10" font-family="sans-serif" text-anchor="middle" dominant-baseline="hanging" id="text00037" >
8   </text>
   <line x1="11" y1="175.675" x2="8" y2="175.675" stroke-width="1" stroke="black" id="line00038" />
   <text x="7" y="175.675" font-size="10" font-family="sans-serif" text-anchor="end" dominant-baseline="middle" id="text00038" >
0   </text>
   <line x1="11" y1="140.375" x2="8" y2="140.375" stroke-width="1" stroke="black" id="line00039" />
   <text x="7" y="140.375" font-size="10" font-family="sans-serif" text-anchor="end" dominant-baseline="middle" id="text00039" >
2   </text>
   <line x1="11" y1="105.075" x2="8" y2="105.075" stroke-width="1" stroke="black" id="line00040" />
   <text x="7" y="105.075" font-size="10" font-family="sans-serif" text-anchor="end" dominant-baseline="middle" id="text00040" >
4   </text>
   <line x1="11" y1="69.775" x2="8" y2="69.775" stroke-width="1" stroke="black" id="line00041" />
   <text x="7" y="69.775" font-size="10" font-family="sans-serif" text-anchor="end" dominant-baseline="middle" id="text00041" >
6   </text>
   <line x1="11" y1="34.475" x2="8" y2="34.475" stroke-width="1" stroke="black" id="line00042" />
   <text x="7" y="34.475" font-size="10" font-family="sans-serif" text-anchor="end" dominant-baseline="middle" id="text00042" >
8   </text>

</svg>
