<svg xmlns="http://www.w3.org/2000/svg" xmlns:xlink="http://www.w3.org/1999/xlink" viewBox="0 0 200 200" id="svg00002" >
   <clipPath id="clipPath00002" >
         <rect x="26" y="8" width="168.5" height="176.5" id="rect00011" />

   </clipPath>
   <g id="g00003" clip-path="url(#clipPath00002)" >
         <g id="g00004" >
               <rect stroke-width="0" fill="red" fill-opacity="1" x="26" y="119.783" width="61.7833" height="64.7167" id="rect00012" />
         <rect stroke-width="0" fill="green" fill-opacity="1" x="26" y="60.95" width="61.7833" height="64.7167" id="rect00013" />
         <rect stroke-width="0" fill="blue" fill-opacity="1" x="26" y="2.11667" width="61.7833" height="64.7167" id="rect00014" />
         <rect stroke-width="0" fill="green" fill-opacity="1" x="82.1667" y="119.783" width="61.7833" height="64.7167" id="rect00015" />
         <rect stroke-width="0" fill="blue" fill-opacity="1" x="82.1667" y="60.95" width="61.7833" height="64.7167" id="rect00016" />
         <rect stroke-width="0" fill="red" fill-opacity="1" x="82.1667" y="2.11667" width="61.7833" height="64.7167" id="rect00017" />
         <rect stroke-width="0" fill="blue" fill-opacity="1" x="138.333" y="119.783" width="61.7833" height="64.7167" id="rect00018" />
         <rect stroke-width="0" fill="red" fill-opacity="1" x="138.333" y="60.95" width="61.7833" height="64.7167" id="rect00019" />
         <rect stroke-width="0" fill="green" fill-opacity="1" x="138.333" y="2.11667" width="61.7833" height="64.7167" id="rect00020" />

      </g>

   </g>
   <rect stroke-width="1" stroke="black" fill="none" x="26" y="8" width="168.5" height="176.5" id="rect00011" />
   <line x1="54.0833" y1="184.5" x2="54.0833" y2="187.5" stroke-width="1" stroke="black" id="line00009" />
   <text x="54.0833" y="190.5" font-size="10" font-family="sans-serif" text-anchor="middle" dominant-baseline="hanging" id="text00009" >
0   </text>
   <line x1="93.4" y1="184.5" x2="93.4" y2="187.5" stroke-width="1" stroke="black" id="line00010" />
   <text x="93.4" y="190.5" font-size="10" font-family="sans-serif" text-anchor="middle" dominant-baseline="hanging" id="text00010" >
0.7   </text>
   <line x1="132.717" y1="184.5" x2="132.717" y2="187.5" stroke-width="1" stroke="black" id="line00011" />
   <text x="132.717" y="190.5" font-size="10" font-family="sans-serif" text-anchor="middle" dominant-baseline="hanging" id="text00011" >
1.4   </text>
   <line x1="172.033" y1="184.5" x2="172.033" y2="187.5" stroke-width="1" stroke="black" id="line00012" />
   <text x="172.033" y="190.5" font-size="10" font-family="sans-serif" text-anchor="middle" dominant-baseline="hanging" id="text00012" >
2.1   </text>
   <line x1="26" y1="155.083" x2="23" y2="155.083" stroke-width="1" stroke="black" id="line00013" />
   <text x="22" y="155.083" font-size="10" font-family="sans-serif" text-anchor="end" dominant-baseline="middle" id="text00013" >
0   </text>
   <line x1="26" y1="113.9" x2="23" y2="113.9" stroke-width="1" stroke="black" id="line00014" />
   <text x="22" y="113.9" font-size="10" font-family="sans-serif" text-anchor="end" dominant-baseline="middle" id="text00014" >
0.7   </text>
   <line x1="26" y1="72.7167" x2="23" y2="72.7167" stroke-width="1" stroke="black" id="line00015" />
   <text x="22" y="72.7167" font-size="10" font-family="sans-serif" text-anchor="end" dominant-baseline="middle" id="text00015" >
1.4   </text>
   <line x1="26" y1="31.5333" x2="23" y2="31.5333" stroke-width="1" stroke="black" id="line00016" />
   <text x="22" y="31.5333" font-size="10" font-family="sans-serif" text-anchor="end" dominant-baseline="middle" id="text00016" >
2.1   </text>

</svg>
