<svg xmlns="http://www.w3.org/2000/svg" xmlns:xlink="http://www.w3.org/1999/xlink" viewBox="0 0 640 480" id="svg00006" >
   <clipPath id="clipPath00006" >
         <rect x="26" y="8" width="603.5" height="456.5" id="rect00059" />

   </clipPath>
   <g id="g00013" clip-path="url(#clipPath00006)" >
         <g id="g00014" >
               <rect stroke-width="0" fill="#1f77b4" opacity="0.5" x="26" y="368.573" width="12.07" height="95.9271" id="rect00060" />
         <rect stroke-width="0" fill="#1f77b4" opacity="0.5" x="38.07" y="342.553" width="12.07" height="121.947" id="rect00061" />
         <rect stroke-width="0" fill="#1f77b4" opacity="0.5" x="50.14" y="312.544" width="12.07" height="151.956" id="rect00062" />
         <rect stroke-width="0" fill="#1f77b4" opacity="0.5" x="62.21" y="278.901" width="12.07" height="185.599" id="rect00063" />
         <rect stroke-width="0" fill="#1f77b4" opacity="0.5" x="74.28" y="242.298" width="12.07" height="222.202" id="rect00064" />
         <rect stroke-width="0" fill="#1f77b4" opacity="0.5" x="86.35" y="203.743" width="12.07" height="260.757" id="rect00065" />
         <rect stroke-width="0" fill="#1f77b4" opacity="0.5" x="98.42" y="164.558" width="12.07" height="299.942" id="rect00066" />
         <rect stroke-width="0" fill="#1f77b4" opacity="0.5" x="110.49" y="126.316" width="12.07" height="338.184" id="rect00067" />
         <rect stroke-width="0" fill="#1f77b4" opacity="0.5" x="122.56" y="90.7494" width="12.07" height="373.751" id="rect00068" />
         <rect stroke-width="0" fill="#1f77b4" opacity="0.5" x="134.63" y="59.6208" width="12.07" height="404.879" id="rect00069" />
         <rect stroke-width="0" fill="#1f77b4" opacity="0.5" x="146.7" y="34.5845" width="12.07" height="429.915" id="rect00070" />
         <rect stroke-width="0" fill="#1f77b4" opacity="0.5" x="158.77" y="17.0393" width="12.07" height="447.461" id="rect00071" />
         <rect stroke-width="0" fill="#1f77b4" opacity="0.5" x="170.84" y="8" width="12.07" height="456.5" id="rect00072" />
         <rect stroke-width="0" fill="#1f77b4" opacity="0.5" x="182.91" y="8" width="12.07" height="456.5" id="rect00073" />
         <rect stroke-width="0" fill="#1f77b4" opacity="0.5" x="194.98" y="17.0393" width="12.07" height="447.461" id="rect00074" />
         <rect stroke-width="0" fill="#1f77b4" opacity="0.5" x="207.05" y="34.5845" width="12.07" height="429.915" id="rect00075" />
         <rect stroke-width="0" fill="#1f77b4" opacity="0.5" x="219.12" y="59.6208" width="12.07" height="404.879" id="rect00076" />
         <rect stroke-width="0" fill="#1f77b4" opacity="0.5" x="231.19" y="90.7494" width="12.07" height="373.751" id="rect00077" />
         <rect stroke-width="0" fill="#1f77b4" opacity="0.5" x="243.26" y="126.316" width="12.07" height="338.184" id="rect00078" />
         <rect stroke-width="0" fill="#1f77b4" opacity="0.5" x="255.33" y="164.558" width="12.07" height="299.942" id="rect00079" />
         <rect stroke-width="0" fill="#1f77b4" opacity="0.5" x="267.4" y="203.743" width="12.0699" height="260.757" id="rect00080" />
         <rect stroke-width="0" fill="#1f77b4" opacity="0.5" x="279.47" y="242.298" width="12.07" height="222.202" id="rect00081" />
         <rect stroke-width="0" fill="#1f77b4" opacity="0.5" x="291.54" y="278.901" width="12.07" height="185.599" id="rect00082" />
         <rect stroke-width="0" fill="#1f77b4" opacity="0.5" x="303.61" y="312.544" width="12.07" height="151.956" id="rect00083" />
         <rect stroke-width="0" fill="#1f77b4" opacity="0.5" x="315.68" y="342.553" width="12.07" height="121.947" id="rect00084" />
         <rect stroke-width="0" fill="#1f77b4" opacity="0.5" x="327.75" y="368.573" width="12.07" height="95.9271" id="rect00085" />
         <rect stroke-width="0" fill="#1f77b4" opacity="0.5" x="339.82" y="390.535" width="12.07" height="73.9648" id="rect00086" />
         <rect stroke-width="0" fill="#1f77b4" opacity="0.5" x="351.89" y="408.599" width="12.07" height="55.9014" id="rect00087" />
         <rect stroke-width="0" fill="#1f77b4" opacity="0.5" x="363.96" y="423.087" width="12.07" height="41.4128" id="rect00088" />
         <rect stroke-width="0" fill="#1f77b4" opacity="0.5" x="376.03" y="434.428" width="12.07" height="30.0718" id="rect00089" />
         <rect stroke-width="0" fill="#1f77b4" opacity="0.5" x="388.1" y="443.096" width="12.07" height="21.4042" id="rect00090" />
         <rect stroke-width="0" fill="#1f77b4" opacity="0.5" x="400.17" y="449.567" width="12.07" height="14.9332" id="rect00091" />
         <rect stroke-width="0" fill="#1f77b4" opacity="0.5" x="412.24" y="454.288" width="12.07" height="10.2122" id="rect00092" />
         <rect stroke-width="0" fill="#1f77b4" opacity="0.5" x="424.31" y="457.655" width="12.07" height="6.84549" id="rect00093" />
         <rect stroke-width="0" fill="#1f77b4" opacity="0.5" x="436.38" y="460.002" width="12.07" height="4.4978" id="rect00094" />
         <rect stroke-width="0" fill="#1f77b4" opacity="0.5" x="448.45" y="461.603" width="12.07" height="2.89676" id="rect00095" />
         <rect stroke-width="0" fill="#1f77b4" opacity="0.5" x="460.52" y="462.671" width="12.07" height="1.82867" id="rect00096" />
         <rect stroke-width="0" fill="#1f77b4" opacity="0.5" x="472.59" y="463.368" width="12.07" height="1.13156" id="rect00097" />
         <rect stroke-width="0" fill="#1f77b4" opacity="0.5" x="484.66" y="463.814" width="12.07" height="0.68631" id="rect00098" />
         <rect stroke-width="0" fill="#1f77b4" opacity="0.5" x="496.73" y="464.092" width="12.07" height="0.40802" id="rect00099" />
         <rect stroke-width="0" fill="#1f77b4" opacity="0.5" x="508.8" y="464.262" width="12.07" height="0.237793" id="rect00100" />
         <rect stroke-width="0" fill="#1f77b4" opacity="0.5" x="520.87" y="464.364" width="12.0699" height="0.135834" id="rect00101" />
         <rect stroke-width="0" fill="#1f77b4" opacity="0.5" x="532.94" y="464.424" width="12.0701" height="0.0760498" id="rect00102" />
         <rect stroke-width="0" fill="#1f77b4" opacity="0.5" x="545.01" y="464.458" width="12.07" height="0.041748" id="rect00103" />
         <rect stroke-width="0" fill="#1f77b4" opacity="0.5" x="557.08" y="464.478" width="12.0699" height="0.0224609" id="rect00104" />
         <rect stroke-width="0" fill="#1f77b4" opacity="0.5" x="569.15" y="464.488" width="12.0701" height="0.0118408" id="rect00105" />
         <rect stroke-width="0" fill="#1f77b4" opacity="0.5" x="581.22" y="464.494" width="12.0699" height="0.00610352" id="rect00106" />
         <rect stroke-width="0" fill="#1f77b4" opacity="0.5" x="593.29" y="464.497" width="12.07" height="0.00311279" id="rect00107" />
         <rect stroke-width="0" fill="#1f77b4" opacity="0.5" x="605.36" y="464.498" width="12.07" height="0.00152588" id="rect00108" />
         <rect stroke-width="0" fill="#1f77b4" opacity="0.5" x="617.43" y="464.499" width="12.07" height="0.000762939" id="rect00109" />

      </g>
      <g id="g00015" >
               <rect stroke-width="0" fill="#ff7f0e" opacity="0.5" x="26" y="464.5" width="12.07" height="0.000244141" id="rect00110" />
         <rect stroke-width="0" fill="#ff7f0e" opacity="0.5" x="38.07" y="464.499" width="12.07" height="0.000518799" id="rect00111" />
         <rect stroke-width="0" fill="#ff7f0e" opacity="0.5" x="50.14" y="464.499" width="12.07" height="0.00106812" id="rect00112" />
         <rect stroke-width="0" fill="#ff7f0e" opacity="0.5" x="62.21" y="464.498" width="12.07" height="0.00216675" id="rect00113" />
         <rect stroke-width="0" fill="#ff7f0e" opacity="0.5" x="74.28" y="464.496" width="12.07" height="0.00427246" id="rect00114" />
         <rect stroke-width="0" fill="#ff7f0e" opacity="0.5" x="86.35" y="464.492" width="12.07" height="0.00830078" id="rect00115" />
         <rect stroke-width="0" fill="#ff7f0e" opacity="0.5" x="98.42" y="464.484" width="12.07" height="0.0157166" id="rect00116" />
         <rect stroke-width="0" fill="#ff7f0e" opacity="0.5" x="110.49" y="464.471" width="12.07" height="0.0292053" id="rect00117" />
         <rect stroke-width="0" fill="#ff7f0e" opacity="0.5" x="122.56" y="464.447" width="12.07" height="0.0532227" id="rect00118" />
         <rect stroke-width="0" fill="#ff7f0e" opacity="0.5" x="134.63" y="464.405" width="12.07" height="0.0950623" id="rect00119" />
         <rect stroke-width="0" fill="#ff7f0e" opacity="0.5" x="146.7" y="464.334" width="12.07" height="0.166443" id="rect00120" />
         <rect stroke-width="0" fill="#ff7f0e" opacity="0.5" x="158.77" y="464.214" width="12.07" height="0.285614" id="rect00121" />
         <rect stroke-width="0" fill="#ff7f0e" opacity="0.5" x="170.84" y="464.02" width="12.07" height="0.480438" id="rect00122" />
         <rect stroke-width="0" fill="#ff7f0e" opacity="0.5" x="182.91" y="463.708" width="12.07" height="0.792084" id="rect00123" />
         <rect stroke-width="0" fill="#ff7f0e" opacity="0.5" x="194.98" y="463.22" width="12.07" height="1.28006" id="rect00124" />
         <rect stroke-width="0" fill="#ff7f0e" opacity="0.5" x="207.05" y="462.472" width="12.07" height="2.02771" id="rect00125" />
         <rect stroke-width="0" fill="#ff7f0e" opacity="0.5" x="219.12" y="461.352" width="12.07" height="3.14847" id="rect00126" />
         <rect stroke-width="0" fill="#ff7f0e" opacity="0.5" x="231.19" y="459.708" width="12.07" height="4.79184" id="rect00127" />
         <rect stroke-width="0" fill="#ff7f0e" opacity="0.5" x="243.26" y="457.351" width="12.07" height="7.14859" id="rect00128" />
         <rect stroke-width="0" fill="#ff7f0e" opacity="0.5" x="255.33" y="454.047" width="12.07" height="10.4532" id="rect00129" />
         <rect stroke-width="0" fill="#ff7f0e" opacity="0.5" x="267.4" y="449.517" width="12.0699" height="14.983" id="rect00130" />
         <rect stroke-width="0" fill="#ff7f0e" opacity="0.5" x="279.47" y="443.45" width="12.07" height="21.0503" id="rect00131" />
         <rect stroke-width="0" fill="#ff7f0e" opacity="0.5" x="291.54" y="435.511" width="12.07" height="28.9889" id="rect00132" />
         <rect stroke-width="0" fill="#ff7f0e" opacity="0.5" x="303.61" y="425.369" width="12.07" height="39.131" id="rect00133" />
         <rect stroke-width="0" fill="#ff7f0e" opacity="0.5" x="315.68" y="412.725" width="12.07" height="51.7753" id="rect00134" />
         <rect stroke-width="0" fill="#ff7f0e" opacity="0.5" x="327.75" y="397.351" width="12.07" height="67.149" id="rect00135" />
         <rect stroke-width="0" fill="#ff7f0e" opacity="0.5" x="339.82" y="379.137" width="12.07" height="85.3631" id="rect00136" />
         <rect stroke-width="0" fill="#ff7f0e" opacity="0.5" x="351.89" y="358.131" width="12.07" height="106.369" id="rect00137" />
         <rect stroke-width="0" fill="#ff7f0e" opacity="0.5" x="363.96" y="334.581" width="12.07" height="129.919" id="rect00138" />
         <rect stroke-width="0" fill="#ff7f0e" opacity="0.5" x="376.03" y="308.958" width="12.07" height="155.542" id="rect00139" />
         <rect stroke-width="0" fill="#ff7f0e" opacity="0.5" x="388.1" y="281.97" width="12.07" height="182.53" id="rect00140" />
         <rect stroke-width="0" fill="#ff7f0e" opacity="0.5" x="400.17" y="254.541" width="12.07" height="209.959" id="rect00141" />
         <rect stroke-width="0" fill="#ff7f0e" opacity="0.5" x="412.24" y="227.772" width="12.07" height="236.728" id="rect00142" />
         <rect stroke-width="0" fill="#ff7f0e" opacity="0.5" x="424.31" y="202.875" width="12.07" height="261.625" id="rect00143" />
         <rect stroke-width="0" fill="#ff7f0e" opacity="0.5" x="436.38" y="181.085" width="12.07" height="283.415" id="rect00144" />
         <rect stroke-width="0" fill="#ff7f0e" opacity="0.5" x="448.45" y="163.559" width="12.07" height="300.941" id="rect00145" />
         <rect stroke-width="0" fill="#ff7f0e" opacity="0.5" x="460.52" y="151.277" width="12.07" height="313.223" id="rect00146" />
         <rect stroke-width="0" fill="#ff7f0e" opacity="0.5" x="472.59" y="144.95" width="12.07" height="319.55" id="rect00147" />
         <rect stroke-width="0" fill="#ff7f0e" opacity="0.5" x="484.66" y="144.95" width="12.07" height="319.55" id="rect00148" />
         <rect stroke-width="0" fill="#ff7f0e" opacity="0.5" x="496.73" y="151.277" width="12.07" height="313.223" id="rect00149" />
         <rect stroke-width="0" fill="#ff7f0e" opacity="0.5" x="508.8" y="163.559" width="12.07" height="300.941" id="rect00150" />
         <rect stroke-width="0" fill="#ff7f0e" opacity="0.5" x="520.87" y="181.085" width="12.0699" height="283.415" id="rect00151" />
         <rect stroke-width="0" fill="#ff7f0e" opacity="0.5" x="532.94" y="202.875" width="12.0701" height="261.625" id="rect00152" />
         <rect stroke-width="0" fill="#ff7f0e" opacity="0.5" x="545.01" y="227.772" width="12.07" height="236.728" id="rect00153" />
         <rect stroke-width="0" fill="#ff7f0e" opacity="0.5" x="557.08" y="254.541" width="12.0699" height="209.959" id="rect00154" />
         <rect stroke-width="0" fill="#ff7f0e" opacity="0.5" x="569.15" y="281.97" width="12.0701" height="182.53" id="rect00155" />
         <rect stroke-width="0" fill="#ff7f0e" opacity="0.5" x="581.22" y="308.958" width="12.0699" height="155.542" id="rect00156" />
         <rect stroke-width="0" fill="#ff7f0e" opacity="0.5" x="593.29" y="334.581" width="12.07" height="129.919" id="rect00157" />
         <rect stroke-width="0" fill="#ff7f0e" opacity="0.5" x="605.36" y="358.131" width="12.07" height="106.369" id="rect00158" />
         <rect stroke-width="0" fill="#ff7f0e" opacity="0.5" x="617.43" y="379.137" width="12.07" height="85.3631" id="rect00159" />

      </g>

   </g>
   <rect stroke-width="1" stroke="black" fill="none" x="26" y="8" width="603.5" height="456.5" id="rect00059" />
   <line x1="32.035" y1="464.5" x2="32.035" y2="467.5" stroke-width="1" stroke="black" id="line00050" />
   <text x="32.035" y="470.5" font-size="10" font-family="sans-serif" text-anchor="middle" dominant-baseline="hanging" id="text00050" >
0   </text>
   <line x1="152.735" y1="464.5" x2="152.735" y2="467.5" stroke-width="1" stroke="black" id="line00051" />
   <text x="152.735" y="470.5" font-size="10" font-family="sans-serif" text-anchor="middle" dominant-baseline="hanging" id="text00051" >
10   </text>
   <line x1="273.435" y1="464.5" x2="273.435" y2="467.5" stroke-width="1" stroke="black" id="line00052" />
   <text x="273.435" y="470.5" font-size="10" font-family="sans-serif" text-anchor="middle" dominant-baseline="hanging" id="text00052" >
20   </text>
   <line x1="394.135" y1="464.5" x2="394.135" y2="467.5" stroke-width="1" stroke="black" id="line00053" />
   <text x="394.135" y="470.5" font-size="10" font-family="sans-serif" text-anchor="middle" dominant-baseline="hanging" id="text00053" >
30   </text>
   <line x1="514.835" y1="464.5" x2="514.835" y2="467.5" stroke-width="1" stroke="black" id="line00054" />
   <text x="514.835" y="470.5" font-size="10" font-family="sans-serif" text-anchor="middle" dominant-baseline="hanging" id="text00054" >
40   </text>
   <line x1="26" y1="464.5" x2="23" y2="464.5" stroke-width="1" stroke="black" id="line00055" />
   <text x="22" y="464.5" font-size="10" font-family="sans-serif" text-anchor="end" dominant-baseline="middle" id="text00055" >
0   </text>
   <line x1="26" y1="372.971" x2="23" y2="372.971" stroke-width="1" stroke="black" id="line00056" />
   <text x="22" y="372.971" font-size="10" font-family="sans-serif" text-anchor="end" dominant-baseline="middle" id="text00056" >
0.2   </text>
   <line x1="26" y1="281.443" x2="23" y2="281.443" stroke-width="1" stroke="black" id="line00057" />
   <text x="22" y="281.443" font-size="10" font-family="sans-serif" text-anchor="end" dominant-baseline="middle" id="text00057" >
0.4   </text>
   <line x1="26" y1="189.914" x2="23" y2="189.914" stroke-width="1" stroke="black" id="line00058" />
   <text x="22" y="189.914" font-size="10" font-family="sans-serif" text-anchor="end" dominant-baseline="middle" id="text00058" >
0.6   </text>
   <line x1="26" y1="98.3858" x2="23" y2="98.3858" stroke-width="1" stroke="black" id="line00059" />
   <text x="22" y="98.3858" font-size="10" font-family="sans-serif" text-anchor="end" dominant-baseline="middle" id="text00059" >
0.8   </text>

</svg>
