<svg xmlns="http://www.w3.org/2000/svg" xmlns:xlink="http://www.w3.org/1999/xlink" viewBox="0 0 640 480" id="svg00003" >
   <clipPath id="clipPath00003" >
         <rect x="26" y="8" width="603.5" height="456.5" id="rect00011" />

   </clipPath>
   <g id="g00005" clip-path="url(#clipPath00003)" >
         <g id="g00006" >
               <rect stroke-width="0" fill="#1f77b4" opacity="1" x="26" y="368.573" width="24.14" height="95.9271" id="rect00012" />
         <rect stroke-width="0" fill="#1f77b4" opacity="1" x="50.14" y="342.553" width="24.14" height="121.947" id="rect00013" />
         <rect stroke-width="0" fill="#1f77b4" opacity="1" x="74.28" y="312.544" width="24.14" height="151.956" id="rect00014" />
         <rect stroke-width="0" fill="#1f77b4" opacity="1" x="98.42" y="278.901" width="24.14" height="185.599" id="rect00015" />
         <rect stroke-width="0" fill="#1f77b4" opacity="1" x="122.56" y="242.298" width="24.14" height="222.202" id="rect00016" />
         <rect stroke-width="0" fill="#1f77b4" opacity="1" x="146.7" y="203.743" width="24.14" height="260.757" id="rect00017" />
         <rect stroke-width="0" fill="#1f77b4" opacity="1" x="170.84" y="164.558" width="24.14" height="299.942" id="rect00018" />
         <rect stroke-width="0" fill="#1f77b4" opacity="1" x="194.98" y="126.316" width="24.14" height="338.184" id="rect00019" />
         <rect stroke-width="0" fill="#1f77b4" opacity="1" x="219.12" y="90.7494" width="24.14" height="373.751" id="rect00020" />
         <rect stroke-width="0" fill="#1f77b4" opacity="1" x="243.26" y="59.6208" width="24.14" height="404.879" id="rect00021" />
         <rect stroke-width="0" fill="#1f77b4" opacity="1" x="267.4" y="34.5845" width="24.14" height="429.915" id="rect00022" />
         <rect stroke-width="0" fill="#1f77b4" opacity="1" x="291.54" y="17.0393" width="24.14" height="447.461" id="rect00023" />
         <rect stroke-width="0" fill="#1f77b4" opacity="1" x="315.68" y="8" width="24.14" height="456.5" id="rect00024" />
         <rect stroke-width="0" fill="#1f77b4" opacity="1" x="339.82" y="8" width="24.14" height="456.5" id="rect00025" />
         <rect stroke-width="0" fill="#1f77b4" opacity="1" x="363.96" y="17.0393" width="24.14" height="447.461" id="rect00026" />
         <rect stroke-width="0" fill="#1f77b4" opacity="1" x="388.1" y="34.5845" width="24.14" height="429.915" id="rect00027" />
         <rect stroke-width="0" fill="#1f77b4" opacity="1" x="412.24" y="59.6208" width="24.14" height="404.879" id="rect00028" />
         <rect stroke-width="0" fill="#1f77b4" opacity="1" x="436.38" y="90.7494" width="24.14" height="373.751" id="rect00029" />
         <rect stroke-width="0" fill="#1f77b4" opacity="1" x="460.52" y="126.316" width="24.14" height="338.184" id="rect00030" />
         <rect stroke-width="0" fill="#1f77b4" opacity="1" x="484.66" y="164.558" width="24.14" height="299.942" id="rect00031" />
         <rect stroke-width="0" fill="#1f77b4" opacity="1" x="508.8" y="203.743" width="24.1399" height="260.757" id="rect00032" />
         <rect stroke-width="0" fill="#1f77b4" opacity="1" x="532.94" y="242.298" width="24.1401" height="222.202" id="rect00033" />
         <rect stroke-width="0" fill="#1f77b4" opacity="1" x="557.08" y="278.901" width="24.14" height="185.599" id="rect00034" />
         <rect stroke-width="0" fill="#1f77b4" opacity="1" x="581.22" y="312.544" width="24.14" height="151.956" id="rect00035" />
         <rect stroke-width="0" fill="#1f77b4" opacity="1" x="605.36" y="342.553" width="24.14" height="121.947" id="rect00036" />

      </g>

   </g>
   <rect stroke-width="1" stroke="black" fill="none" x="26" y="8" width="603.5" height="456.5" id="rect00011" />
   <line x1="38.07" y1="464.5" x2="38.07" y2="467.5" stroke-width="1" stroke="black" id="line00019" />
   <text x="38.07" y="470.5" font-size="10" font-family="sans-serif" text-anchor="middle" dominant-baseline="hanging" id="text00019" >
0   </text>
   <line x1="182.91" y1="464.5" x2="182.91" y2="467.5" stroke-width="1" stroke="black" id="line00020" />
   <text x="182.91" y="470.5" font-size="10" font-family="sans-serif" text-anchor="middle" dominant-baseline="hanging" id="text00020" >
6   </text>
   <line x1="327.75" y1="464.5" x2="327.75" y2="467.5" stroke-width="1" stroke="black" id="line00021" />
   <text x="327.75" y="470.5" font-size="10" font-family="sans-serif" text-anchor="middle" dominant-baseline="hanging" id="text00021" >
12   </text>
   <line x1="472.59" y1="464.5" x2="472.59" y2="467.5" stroke-width="1" stroke="black" id="line00022" />
   <text x="472.59" y="470.5" font-size="10" font-family="sans-serif" text-anchor="middle" dominant-baseline="hanging" id="text00022" >
18   </text>
   <line x1="617.43" y1="464.5" x2="617.43" y2="467.5" stroke-width="1" stroke="black" id="line00023" />
   <text x="617.43" y="470.5" font-size="10" font-family="sans-serif" text-anchor="middle" dominant-baseline="hanging" id="text00023" >
24   </text>
   <line x1="26" y1="464.5" x2="23" y2="464.5" stroke-width="1" stroke="black" id="line00024" />
   <text x="22" y="464.5" font-size="10" font-family="sans-serif" text-anchor="end" dominant-baseline="middle" id="text00024" >
0   </text>
   <line x1="26" y1="372.971" x2="23" y2="372.971" stroke-width="1" stroke="black" id="line00025" />
   <text x="22" y="372.971" font-size="10" font-family="sans-serif" text-anchor="end" dominant-baseline="middle" id="text00025" >
0.2   </text>
   <line x1="26" y1="281.443" x2="23" y2="281.443" stroke-width="1" stroke="black" id="line00026" />
   <text x="22" y="281.443" font-size="10" font-family="sans-serif" text-anchor="end" dominant-baseline="middle" id="text00026" >
0.4   </text>
   <line x1="26" y1="189.914" x2="23" y2="189.914" stroke-width="1" stroke="black" id="line00027" />
   <text x="22" y="189.914" font-size="10" font-family="sans-serif" text-anchor="end" dominant-baseline="middle" id="text00027" >
0.6   </text>
   <line x1="26" y1="98.3858" x2="23" y2="98.3858" stroke-width="1" stroke="black" id="line00028" />
   <text x="22" y="98.3858" font-size="10" font-family="sans-serif" text-anchor="end" dominant-baseline="middle" id="text00028" >
0.8   </text>

</svg>
