<svg xmlns="http://www.w3.org/2000/svg" xmlns:xlink="http://www.w3.org/1999/xlink" viewBox="0 0 1971.46 984.096" id="svg00011" >
   <svg xmlns="http://www.w3.org/2000/svg" xmlns:xlink="http://www.w3.org/1999/xlink" viewBox="0 0 640 480" id="svg00012" x="0" y="0" width="640" height="480" >
         <clipPath id="clipPath00010" >
               <rect x="11" y="8" width="618.5" height="456.5" id="rect00175" />

      </clipPath>
      <g id="g00022" clip-path="url(#clipPath00010)" >
               <g id="g00023" transform="translate(11 470) rotate(-90 0 0) translate(0 -11)" >
                     <g id="g00024" >
                           <rect stroke-width="0" fill="#1f77b4" opacity="1" x="408.514" y="11" width="25.8396" height="206.167" id="rect00176" />
               <rect stroke-width="0" fill="#1f77b4" opacity="1" x="322.382" y="11" width="25.8396" height="412.333" id="rect00177" />
               <rect stroke-width="0" fill="#1f77b4" opacity="1" x="236.25" y="11" width="25.8397" height="618.5" id="rect00178" />
               <rect stroke-width="0" fill="#1f77b4" opacity="1" x="150.118" y="11" width="25.8396" height="412.333" id="rect00179" />
               <rect stroke-width="0" fill="#1f77b4" opacity="1" x="63.9858" y="11" width="25.8397" height="206.167" id="rect00180" />

            </g>

         </g>
         <g id="g00025" transform="translate(11 470) rotate(-90 0 0) translate(0 -11)" >
                     <g id="g00026" >
                           <rect stroke-width="0" fill="#ff7f0e" opacity="1" x="382.675" y="11" width="25.8396" height="412.333" id="rect00181" />
               <rect stroke-width="0" fill="#ff7f0e" opacity="1" x="296.542" y="11" width="25.8396" height="206.167" id="rect00182" />
               <rect stroke-width="0" fill="#ff7f0e" opacity="1" x="210.41" y="11" width="25.8396" height="412.333" id="rect00183" />
               <rect stroke-width="0" fill="#ff7f0e" opacity="1" x="124.278" y="11" width="25.8397" height="206.167" id="rect00184" />
               <rect stroke-width="0" fill="#ff7f0e" opacity="1" x="38.1462" y="11" width="25.8396" height="412.333" id="rect00185" />

            </g>

         </g>

      </g>
      <rect stroke-width="1" stroke="black" fill="none" x="11" y="8" width="618.5" height="456.5" id="rect00175" />
      <line x1="11" y1="464.5" x2="11" y2="467.5" stroke-width="1" stroke="black" id="line00087" />
      <text x="11" y="470.5" font-size="10" font-family="sans-serif" text-anchor="middle" dominant-baseline="hanging" id="text00087" >
0      </text>
      <line x1="155.317" y1="464.5" x2="155.317" y2="467.5" stroke-width="1" stroke="black" id="line00088" />
      <text x="155.317" y="470.5" font-size="10" font-family="sans-serif" text-anchor="middle" dominant-baseline="hanging" id="text00088" >
0.7      </text>
      <line x1="299.633" y1="464.5" x2="299.633" y2="467.5" stroke-width="1" stroke="black" id="line00089" />
      <text x="299.633" y="470.5" font-size="10" font-family="sans-serif" text-anchor="middle" dominant-baseline="hanging" id="text00089" >
1.4      </text>
      <line x1="443.95" y1="464.5" x2="443.95" y2="467.5" stroke-width="1" stroke="black" id="line00090" />
      <text x="443.95" y="470.5" font-size="10" font-family="sans-serif" text-anchor="middle" dominant-baseline="hanging" id="text00090" >
2.1      </text>
      <line x1="588.267" y1="464.5" x2="588.267" y2="467.5" stroke-width="1" stroke="black" id="line00091" />
      <text x="588.267" y="470.5" font-size="10" font-family="sans-serif" text-anchor="middle" dominant-baseline="hanging" id="text00091" >
2.8      </text>
      <line x1="11" y1="408.514" x2="8" y2="408.514" stroke-width="1" stroke="black" id="line00092" />
      <text x="7" y="408.514" font-size="10" font-family="sans-serif" text-anchor="end" dominant-baseline="middle" id="text00092" >
0      </text>
      <line x1="11" y1="322.382" x2="8" y2="322.382" stroke-width="1" stroke="black" id="line00093" />
      <text x="7" y="322.382" font-size="10" font-family="sans-serif" text-anchor="end" dominant-baseline="middle" id="text00093" >
1      </text>
      <line x1="11" y1="236.25" x2="8" y2="236.25" stroke-width="1" stroke="black" id="line00094" />
      <text x="7" y="236.25" font-size="10" font-family="sans-serif" text-anchor="end" dominant-baseline="middle" id="text00094" >
2      </text>
      <line x1="11" y1="150.118" x2="8" y2="150.118" stroke-width="1" stroke="black" id="line00095" />
      <text x="7" y="150.118" font-size="10" font-family="sans-serif" text-anchor="end" dominant-baseline="middle" id="text00095" >
3      </text>
      <line x1="11" y1="63.9858" x2="8" y2="63.9858" stroke-width="1" stroke="black" id="line00096" />
      <text x="7" y="63.9858" font-size="10" font-family="sans-serif" text-anchor="end" dominant-baseline="middle" id="text00096" >
4      </text>

   </svg>
   <svg xmlns="http://www.w3.org/2000/svg" xmlns:xlink="http://www.w3.org/1999/xlink" viewBox="0 0 640 480" id="svg00013" x="646.443" y="0" width="640" height="480" >
         <clipPath id="clipPath00011" >
               <rect x="11" y="8" width="623.5" height="456.5" id="rect00186" />

      </clipPath>
      <g id="g00027" clip-path="url(#clipPath00011)" >
               <g id="g00028" transform="translate(11 470) rotate(-90 0 0) translate(0 -11)" >
                     <g id="g00029" >
                           <rect stroke-width="0" fill="#1f77b4" opacity="1" x="382.33" y="11" width="73.04" height="124.7" id="rect00187" />
               <rect stroke-width="0" fill="#1f77b4" opacity="1" x="291.03" y="11" width="73.04" height="249.4" id="rect00188" />
               <rect stroke-width="0" fill="#1f77b4" opacity="1" x="199.73" y="11" width="73.04" height="374.1" id="rect00189" />
               <rect stroke-width="0" fill="#1f77b4" opacity="1" x="108.43" y="11" width="73.04" height="249.4" id="rect00190" />
               <rect stroke-width="0" fill="#1f77b4" opacity="1" x="17.13" y="11" width="73.04" height="124.7" id="rect00191" />

            </g>

         </g>
         <g id="g00030" transform="translate(11 470) rotate(-90 0 0) translate(0 -11)" >
                     <g id="g00031" >
                           <rect stroke-width="0" fill="#ff7f0e" opacity="1" x="382.33" y="135.7" width="73.04" height="249.4" id="rect00192" />
               <rect stroke-width="0" fill="#ff7f0e" opacity="1" x="291.03" y="260.4" width="73.04" height="124.7" id="rect00193" />
               <rect stroke-width="0" fill="#ff7f0e" opacity="1" x="199.73" y="385.1" width="73.04" height="249.4" id="rect00194" />
               <rect stroke-width="0" fill="#ff7f0e" opacity="1" x="108.43" y="260.4" width="73.04" height="124.7" id="rect00195" />
               <rect stroke-width="0" fill="#ff7f0e" opacity="1" x="17.13" y="135.7" width="73.04" height="249.4" id="rect00196" />

            </g>

         </g>

      </g>
      <rect stroke-width="1" stroke="black" fill="none" x="11" y="8" width="623.5" height="456.5" id="rect00186" />
      <line x1="11" y1="464.5" x2="11" y2="467.5" stroke-width="1" stroke="black" id="line00097" />
      <text x="11" y="470.5" font-size="10" font-family="sans-serif" text-anchor="middle" dominant-baseline="hanging" id="text00097" >
0      </text>
      <line x1="135.7" y1="464.5" x2="135.7" y2="467.5" stroke-width="1" stroke="black" id="line00098" />
      <text x="135.7" y="470.5" font-size="10" font-family="sans-serif" text-anchor="middle" dominant-baseline="hanging" id="text00098" >
1      </text>
      <line x1="260.4" y1="464.5" x2="260.4" y2="467.5" stroke-width="1" stroke="black" id="line00099" />
      <text x="260.4" y="470.5" font-size="10" font-family="sans-serif" text-anchor="middle" dominant-baseline="hanging" id="text00099" >
2      </text>
      <line x1="385.1" y1="464.5" x2="385.1" y2="467.5" stroke-width="1" stroke="black" id="line00100" />
      <text x="385.1" y="470.5" font-size="10" font-family="sans-serif" text-anchor="middle" dominant-baseline="hanging" id="text00100" >
3      </text>
      <line x1="509.8" y1="464.5" x2="509.8" y2="467.5" stroke-width="1" stroke="black" id="line00101" />
      <text x="509.8" y="470.5" font-size="10" font-family="sans-serif" text-anchor="middle" dominant-baseline="hanging" id="text00101" >
4      </text>
      <line x1="634.5" y1="464.5" x2="634.5" y2="467.5" stroke-width="1" stroke="black" id="line00102" />
      <text x="634.5" y="470.5" font-size="10" font-family="sans-serif" text-anchor="middle" dominant-baseline="hanging" id="text00102" >
5      </text>
      <line x1="11" y1="418.85" x2="8" y2="418.85" stroke-width="1" stroke="black" id="line00103" />
      <text x="7" y="418.85" font-size="10" font-family="sans-serif" text-anchor="end" dominant-baseline="middle" id="text00103" >
0      </text>
      <line x1="11" y1="327.55" x2="8" y2="327.55" stroke-width="1" stroke="black" id="line00104" />
      <text x="7" y="327.55" font-size="10" font-family="sans-serif" text-anchor="end" dominant-baseline="middle" id="text00104" >
1      </text>
      <line x1="11" y1="236.25" x2="8" y2="236.25" stroke-width="1" stroke="black" id="line00105" />
      <text x="7" y="236.25" font-size="10" font-family="sans-serif" text-anchor="end" dominant-baseline="middle" id="text00105" >
2      </text>
      <line x1="11" y1="144.95" x2="8" y2="144.95" stroke-width="1" stroke="black" id="line00106" />
      <text x="7" y="144.95" font-size="10" font-family="sans-serif" text-anchor="end" dominant-baseline="middle" id="text00106" >
3      </text>
      <line x1="11" y1="53.65" x2="8" y2="53.65" stroke-width="1" stroke="black" id="line00107" />
      <text x="7" y="53.65" font-size="10" font-family="sans-serif" text-anchor="end" dominant-baseline="middle" id="text00107" >
4      </text>

   </svg>
   <svg xmlns="http://www.w3.org/2000/svg" xmlns:xlink="http://www.w3.org/1999/xlink" viewBox="0 0 640 480" id="svg00014" x="1292.89" y="0" width="640" height="480" >
         <clipPath id="clipPath00012" >
               <rect x="18.5" y="8" width="611" height="456.5" id="rect00197" />

      </clipPath>
      <g id="g00032" clip-path="url(#clipPath00012)" >
               <g id="g00033" transform="translate(18.5 473.75) rotate(-90 0 0) translate(0 -18.5)" >
                     <g id="g00034" >
                           <rect stroke-width="0" fill="#1f77b4" opacity="0.5" x="455.37" y="18.5" width="9.13" height="128.393" id="rect00198" />
               <rect stroke-width="0" fill="#1f77b4" opacity="0.5" x="446.24" y="18.5" width="9.13" height="163.22" id="rect00199" />
               <rect stroke-width="0" fill="#1f77b4" opacity="0.5" x="437.11" y="18.5" width="9.13" height="203.384" id="rect00200" />
               <rect stroke-width="0" fill="#1f77b4" opacity="0.5" x="427.98" y="18.5" width="9.12997" height="248.414" id="rect00201" />
               <rect stroke-width="0" fill="#1f77b4" opacity="0.5" x="418.85" y="18.5" width="9.13" height="297.406" id="rect00202" />
               <rect stroke-width="0" fill="#1f77b4" opacity="0.5" x="409.72" y="18.5" width="9.13" height="349.009" id="rect00203" />
               <rect stroke-width="0" fill="#1f77b4" opacity="0.5" x="400.59" y="18.5" width="9.13" height="401.456" id="rect00204" />
               <rect stroke-width="0" fill="#1f77b4" opacity="0.5" x="391.46" y="18.5" width="9.13" height="452.64" id="rect00205" />
               <rect stroke-width="0" fill="#1f77b4" opacity="0.5" x="382.33" y="18.5" width="9.13" height="500.245" id="rect00206" />
               <rect stroke-width="0" fill="#1f77b4" opacity="0.5" x="373.2" y="18.5" width="9.12997" height="541.908" id="rect00207" />
               <rect stroke-width="0" fill="#1f77b4" opacity="0.5" x="364.07" y="18.5" width="9.13" height="575.418" id="rect00208" />
               <rect stroke-width="0" fill="#1f77b4" opacity="0.5" x="354.94" y="18.5" width="9.13" height="598.901" id="rect00209" />
               <rect stroke-width="0" fill="#1f77b4" opacity="0.5" x="345.81" y="18.5" width="9.13" height="611" id="rect00210" />
               <rect stroke-width="0" fill="#1f77b4" opacity="0.5" x="336.68" y="18.5" width="9.13" height="611" id="rect00211" />
               <rect stroke-width="0" fill="#1f77b4" opacity="0.5" x="327.55" y="18.5" width="9.13" height="598.901" id="rect00212" />
               <rect stroke-width="0" fill="#1f77b4" opacity="0.5" x="318.42" y="18.5" width="9.13" height="575.418" id="rect00213" />
               <rect stroke-width="0" fill="#1f77b4" opacity="0.5" x="309.29" y="18.5" width="9.13" height="541.908" id="rect00214" />
               <rect stroke-width="0" fill="#1f77b4" opacity="0.5" x="300.16" y="18.5" width="9.13" height="500.245" id="rect00215" />
               <rect stroke-width="0" fill="#1f77b4" opacity="0.5" x="291.03" y="18.5" width="9.12997" height="452.64" id="rect00216" />
               <rect stroke-width="0" fill="#1f77b4" opacity="0.5" x="281.9" y="18.5" width="9.13" height="401.456" id="rect00217" />
               <rect stroke-width="0" fill="#1f77b4" opacity="0.5" x="272.77" y="18.5" width="9.12997" height="349.009" id="rect00218" />
               <rect stroke-width="0" fill="#1f77b4" opacity="0.5" x="263.64" y="18.5" width="9.13" height="297.406" id="rect00219" />
               <rect stroke-width="0" fill="#1f77b4" opacity="0.5" x="254.51" y="18.5" width="9.13002" height="248.414" id="rect00220" />
               <rect stroke-width="0" fill="#1f77b4" opacity="0.5" x="245.38" y="18.5" width="9.12999" height="203.384" id="rect00221" />
               <rect stroke-width="0" fill="#1f77b4" opacity="0.5" x="236.25" y="18.5" width="9.13" height="163.22" id="rect00222" />
               <rect stroke-width="0" fill="#1f77b4" opacity="0.5" x="227.12" y="18.5" width="9.12999" height="128.393" id="rect00223" />
               <rect stroke-width="0" fill="#1f77b4" opacity="0.5" x="217.99" y="18.5" width="9.13002" height="98.9977" id="rect00224" />
               <rect stroke-width="0" fill="#1f77b4" opacity="0.5" x="208.86" y="18.5" width="9.12999" height="74.8209" id="rect00225" />
               <rect stroke-width="0" fill="#1f77b4" opacity="0.5" x="199.73" y="18.5" width="9.12999" height="55.4287" id="rect00226" />
               <rect stroke-width="0" fill="#1f77b4" opacity="0.5" x="190.6" y="18.5" width="9.13004" height="40.2495" id="rect00227" />
               <rect stroke-width="0" fill="#1f77b4" opacity="0.5" x="181.47" y="18.5" width="9.12997" height="28.6484" id="rect00228" />
               <rect stroke-width="0" fill="#1f77b4" opacity="0.5" x="172.34" y="18.5" width="9.13" height="19.9873" id="rect00229" />
               <rect stroke-width="0" fill="#1f77b4" opacity="0.5" x="163.21" y="18.5" width="9.13" height="13.6685" id="rect00230" />
               <rect stroke-width="0" fill="#1f77b4" opacity="0.5" x="154.08" y="18.5" width="9.13" height="9.1623" id="rect00231" />
               <rect stroke-width="0" fill="#1f77b4" opacity="0.5" x="144.95" y="18.5" width="9.12997" height="6.02006" id="rect00232" />
               <rect stroke-width="0" fill="#1f77b4" opacity="0.5" x="135.82" y="18.5" width="9.13004" height="3.87714" id="rect00233" />
               <rect stroke-width="0" fill="#1f77b4" opacity="0.5" x="126.69" y="18.5" width="9.12997" height="2.44757" id="rect00234" />
               <rect stroke-width="0" fill="#1f77b4" opacity="0.5" x="117.56" y="18.5" width="9.13" height="1.51452" id="rect00235" />
               <rect stroke-width="0" fill="#1f77b4" opacity="0.5" x="108.43" y="18.5" width="9.12997" height="0.918602" id="rect00236" />
               <rect stroke-width="0" fill="#1f77b4" opacity="0.5" x="99.3" y="18.5" width="9.13004" height="0.546127" id="rect00237" />
               <rect stroke-width="0" fill="#1f77b4" opacity="0.5" x="90.17" y="18.5" width="9.12997" height="0.318254" id="rect00238" />
               <rect stroke-width="0" fill="#1f77b4" opacity="0.5" x="81.04" y="18.5" width="9.13" height="0.181789" id="rect00239" />
               <rect stroke-width="0" fill="#1f77b4" opacity="0.5" x="71.91" y="18.5" width="9.13" height="0.101784" id="rect00240" />
               <rect stroke-width="0" fill="#1f77b4" opacity="0.5" x="62.78" y="18.5" width="9.13" height="0.0558605" id="rect00241" />
               <rect stroke-width="0" fill="#1f77b4" opacity="0.5" x="53.65" y="18.5" width="9.12997" height="0.0300503" id="rect00242" />
               <rect stroke-width="0" fill="#1f77b4" opacity="0.5" x="44.52" y="18.5" width="9.13004" height="0.0158443" id="rect00243" />
               <rect stroke-width="0" fill="#1f77b4" opacity="0.5" x="35.39" y="18.5" width="9.12997" height="0.00819016" id="rect00244" />
               <rect stroke-width="0" fill="#1f77b4" opacity="0.5" x="26.26" y="18.5" width="9.13" height="0.00414848" id="rect00245" />
               <rect stroke-width="0" fill="#1f77b4" opacity="0.5" x="17.13" y="18.5" width="9.13" height="0.00205994" id="rect00246" />
               <rect stroke-width="0" fill="#1f77b4" opacity="0.5" x="8" y="18.5" width="9.13" height="0.00100327" id="rect00247" />

            </g>

         </g>
         <g id="g00035" transform="translate(18.5 473.75) rotate(-90 0 0) translate(0 -18.5)" >
                     <g id="g00036" >
                           <rect stroke-width="0" fill="#ff7f0e" opacity="0.5" x="455.37" y="18.5" width="9.13" height="0.000335693" id="rect00248" />
               <rect stroke-width="0" fill="#ff7f0e" opacity="0.5" x="446.24" y="18.5" width="9.13" height="0.000701904" id="rect00249" />
               <rect stroke-width="0" fill="#ff7f0e" opacity="0.5" x="437.11" y="18.5" width="9.13" height="0.00144196" id="rect00250" />
               <rect stroke-width="0" fill="#ff7f0e" opacity="0.5" x="427.98" y="18.5" width="9.12997" height="0.00290489" id="rect00251" />
               <rect stroke-width="0" fill="#ff7f0e" opacity="0.5" x="418.85" y="18.5" width="9.13" height="0.00573349" id="rect00252" />
               <rect stroke-width="0" fill="#ff7f0e" opacity="0.5" x="409.72" y="18.5" width="9.13" height="0.0110912" id="rect00253" />
               <rect stroke-width="0" fill="#ff7f0e" opacity="0.5" x="400.59" y="18.5" width="9.13" height="0.0210342" id="rect00254" />
               <rect stroke-width="0" fill="#ff7f0e" opacity="0.5" x="391.46" y="18.5" width="9.13" height="0.0391026" id="rect00255" />
               <rect stroke-width="0" fill="#ff7f0e" opacity="0.5" x="382.33" y="18.5" width="9.13" height="0.071249" id="rect00256" />
               <rect stroke-width="0" fill="#ff7f0e" opacity="0.5" x="373.2" y="18.5" width="9.12997" height="0.127253" id="rect00257" />
               <rect stroke-width="0" fill="#ff7f0e" opacity="0.5" x="364.07" y="18.5" width="9.13" height="0.222778" id="rect00258" />
               <rect stroke-width="0" fill="#ff7f0e" opacity="0.5" x="354.94" y="18.5" width="9.13" height="0.38229" id="rect00259" />
               <rect stroke-width="0" fill="#ff7f0e" opacity="0.5" x="345.81" y="18.5" width="9.13" height="0.643021" id="rect00260" />
               <rect stroke-width="0" fill="#ff7f0e" opacity="0.5" x="336.68" y="18.5" width="9.13" height="1.06016" id="rect00261" />
               <rect stroke-width="0" fill="#ff7f0e" opacity="0.5" x="327.55" y="18.5" width="9.13" height="1.7133" id="rect00262" />
               <rect stroke-width="0" fill="#ff7f0e" opacity="0.5" x="318.42" y="18.5" width="9.13" height="2.714" id="rect00263" />
               <rect stroke-width="0" fill="#ff7f0e" opacity="0.5" x="309.29" y="18.5" width="9.13" height="4.21404" id="rect00264" />
               <rect stroke-width="0" fill="#ff7f0e" opacity="0.5" x="300.16" y="18.5" width="9.13" height="6.41361" id="rect00265" />
               <rect stroke-width="0" fill="#ff7f0e" opacity="0.5" x="291.03" y="18.5" width="9.12997" height="9.56798" id="rect00266" />
               <rect stroke-width="0" fill="#ff7f0e" opacity="0.5" x="281.9" y="18.5" width="9.13" height="13.9911" id="rect00267" />
               <rect stroke-width="0" fill="#ff7f0e" opacity="0.5" x="272.77" y="18.5" width="9.12997" height="20.0539" id="rect00268" />
               <rect stroke-width="0" fill="#ff7f0e" opacity="0.5" x="263.64" y="18.5" width="9.13" height="28.1746" id="rect00269" />
               <rect stroke-width="0" fill="#ff7f0e" opacity="0.5" x="254.51" y="18.5" width="9.13002" height="38.8001" id="rect00270" />
               <rect stroke-width="0" fill="#ff7f0e" opacity="0.5" x="245.38" y="18.5" width="9.12999" height="52.3746" id="rect00271" />
               <rect stroke-width="0" fill="#ff7f0e" opacity="0.5" x="236.25" y="18.5" width="9.13" height="69.2984" id="rect00272" />
               <rect stroke-width="0" fill="#ff7f0e" opacity="0.5" x="227.12" y="18.5" width="9.12999" height="89.8752" id="rect00273" />
               <rect stroke-width="0" fill="#ff7f0e" opacity="0.5" x="217.99" y="18.5" width="9.13002" height="114.254" id="rect00274" />
               <rect stroke-width="0" fill="#ff7f0e" opacity="0.5" x="208.86" y="18.5" width="9.12999" height="142.369" id="rect00275" />
               <rect stroke-width="0" fill="#ff7f0e" opacity="0.5" x="199.73" y="18.5" width="9.12999" height="173.89" id="rect00276" />
               <rect stroke-width="0" fill="#ff7f0e" opacity="0.5" x="190.6" y="18.5" width="9.13004" height="208.184" id="rect00277" />
               <rect stroke-width="0" fill="#ff7f0e" opacity="0.5" x="181.47" y="18.5" width="9.12997" height="244.306" id="rect00278" />
               <rect stroke-width="0" fill="#ff7f0e" opacity="0.5" x="172.34" y="18.5" width="9.13" height="281.019" id="rect00279" />
               <rect stroke-width="0" fill="#ff7f0e" opacity="0.5" x="163.21" y="18.5" width="9.13" height="316.848" id="rect00280" />
               <rect stroke-width="0" fill="#ff7f0e" opacity="0.5" x="154.08" y="18.5" width="9.13" height="350.171" id="rect00281" />
               <rect stroke-width="0" fill="#ff7f0e" opacity="0.5" x="144.95" y="18.5" width="9.12997" height="379.336" id="rect00282" />
               <rect stroke-width="0" fill="#ff7f0e" opacity="0.5" x="135.82" y="18.5" width="9.13004" height="402.793" id="rect00283" />
               <rect stroke-width="0" fill="#ff7f0e" opacity="0.5" x="126.69" y="18.5" width="9.12997" height="419.231" id="rect00284" />
               <rect stroke-width="0" fill="#ff7f0e" opacity="0.5" x="117.56" y="18.5" width="9.13" height="427.7" id="rect00285" />
               <rect stroke-width="0" fill="#ff7f0e" opacity="0.5" x="108.43" y="18.5" width="9.12997" height="427.7" id="rect00286" />
               <rect stroke-width="0" fill="#ff7f0e" opacity="0.5" x="99.3" y="18.5" width="9.13004" height="419.231" id="rect00287" />
               <rect stroke-width="0" fill="#ff7f0e" opacity="0.5" x="90.17" y="18.5" width="9.12997" height="402.793" id="rect00288" />
               <rect stroke-width="0" fill="#ff7f0e" opacity="0.5" x="81.04" y="18.5" width="9.13" height="379.336" id="rect00289" />
               <rect stroke-width="0" fill="#ff7f0e" opacity="0.5" x="71.91" y="18.5" width="9.13" height="350.171" id="rect00290" />
               <rect stroke-width="0" fill="#ff7f0e" opacity="0.5" x="62.78" y="18.5" width="9.13" height="316.848" id="rect00291" />
               <rect stroke-width="0" fill="#ff7f0e" opacity="0.5" x="53.65" y="18.5" width="9.12997" height="281.019" id="rect00292" />
               <rect stroke-width="0" fill="#ff7f0e" opacity="0.5" x="44.52" y="18.5" width="9.13004" height="244.306" id="rect00293" />
               <rect stroke-width="0" fill="#ff7f0e" opacity="0.5" x="35.39" y="18.5" width="9.12997" height="208.184" id="rect00294" />
               <rect stroke-width="0" fill="#ff7f0e" opacity="0.5" x="26.26" y="18.5" width="9.13" height="173.89" id="rect00295" />
               <rect stroke-width="0" fill="#ff7f0e" opacity="0.5" x="17.13" y="18.5" width="9.13" height="142.369" id="rect00296" />
               <rect stroke-width="0" fill="#ff7f0e" opacity="0.5" x="8" y="18.5" width="9.13" height="114.254" id="rect00297" />

            </g>

         </g>

      </g>
      <rect stroke-width="1" stroke="black" fill="none" x="18.5" y="8" width="611" height="456.5" id="rect00197" />
      <line x1="18.5" y1="464.5" x2="18.5" y2="467.5" stroke-width="1" stroke="black" id="line00108" />
      <text x="18.5" y="470.5" font-size="10" font-family="sans-serif" text-anchor="middle" dominant-baseline="hanging" id="text00108" >
0      </text>
      <line x1="141.006" y1="464.5" x2="141.006" y2="467.5" stroke-width="1" stroke="black" id="line00109" />
      <text x="141.006" y="470.5" font-size="10" font-family="sans-serif" text-anchor="middle" dominant-baseline="hanging" id="text00109" >
0.2      </text>
      <line x1="263.512" y1="464.5" x2="263.512" y2="467.5" stroke-width="1" stroke="black" id="line00110" />
      <text x="263.512" y="470.5" font-size="10" font-family="sans-serif" text-anchor="middle" dominant-baseline="hanging" id="text00110" >
0.4      </text>
      <line x1="386.018" y1="464.5" x2="386.018" y2="467.5" stroke-width="1" stroke="black" id="line00111" />
      <text x="386.018" y="470.5" font-size="10" font-family="sans-serif" text-anchor="middle" dominant-baseline="hanging" id="text00111" >
0.6      </text>
      <line x1="508.524" y1="464.5" x2="508.524" y2="467.5" stroke-width="1" stroke="black" id="line00112" />
      <text x="508.524" y="470.5" font-size="10" font-family="sans-serif" text-anchor="middle" dominant-baseline="hanging" id="text00112" >
0.8      </text>
      <line x1="18.5" y1="459.935" x2="15.5" y2="459.935" stroke-width="1" stroke="black" id="line00113" />
      <text x="14.5" y="459.935" font-size="10" font-family="sans-serif" text-anchor="end" dominant-baseline="middle" id="text00113" >
0      </text>
      <line x1="18.5" y1="368.635" x2="15.5" y2="368.635" stroke-width="1" stroke="black" id="line00114" />
      <text x="14.5" y="368.635" font-size="10" font-family="sans-serif" text-anchor="end" dominant-baseline="middle" id="text00114" >
10      </text>
      <line x1="18.5" y1="277.335" x2="15.5" y2="277.335" stroke-width="1" stroke="black" id="line00115" />
      <text x="14.5" y="277.335" font-size="10" font-family="sans-serif" text-anchor="end" dominant-baseline="middle" id="text00115" >
20      </text>
      <line x1="18.5" y1="186.035" x2="15.5" y2="186.035" stroke-width="1" stroke="black" id="line00116" />
      <text x="14.5" y="186.035" font-size="10" font-family="sans-serif" text-anchor="end" dominant-baseline="middle" id="text00116" >
30      </text>
      <line x1="18.5" y1="94.735" x2="15.5" y2="94.735" stroke-width="1" stroke="black" id="line00117" />
      <text x="14.5" y="94.735" font-size="10" font-family="sans-serif" text-anchor="end" dominant-baseline="middle" id="text00117" >
40      </text>

   </svg>
   <svg xmlns="http://www.w3.org/2000/svg" xmlns:xlink="http://www.w3.org/1999/xlink" viewBox="0 0 640 480" id="svg00015" x="0" y="484.824" width="640" height="480" >
         <clipPath id="clipPath00013" >
               <rect x="18.5" y="8" width="616" height="456.5" id="rect00298" />

      </clipPath>
      <g id="g00037" clip-path="url(#clipPath00013)" >
               <g id="g00038" transform="translate(18.5 473.75) rotate(-90 0 0) translate(0 -18.5)" >
                     <g id="g00039" >
                           <rect stroke-width="0" fill="#FF0000" opacity="1" x="361.788" y="18.5" width="91.3" height="154" id="rect00299" />
               <rect stroke-width="0" fill="#FF0000" opacity="1" x="247.663" y="18.5" width="91.3" height="308" id="rect00300" />
               <rect stroke-width="0" fill="#FF0000" opacity="1" x="133.537" y="18.5" width="91.3" height="462" id="rect00301" />
               <rect stroke-width="0" fill="#FF0000" opacity="1" x="19.4125" y="18.5" width="91.3" height="616" id="rect00302" />

            </g>

         </g>

      </g>
      <rect stroke-width="1" stroke="black" fill="none" x="18.5" y="8" width="616" height="456.5" id="rect00298" />
      <line x1="18.5" y1="464.5" x2="18.5" y2="467.5" stroke-width="1" stroke="black" id="line00118" />
      <text x="18.5" y="470.5" font-size="10" font-family="sans-serif" text-anchor="middle" dominant-baseline="hanging" id="text00118" >
0      </text>
      <line x1="172.5" y1="464.5" x2="172.5" y2="467.5" stroke-width="1" stroke="black" id="line00119" />
      <text x="172.5" y="470.5" font-size="10" font-family="sans-serif" text-anchor="middle" dominant-baseline="hanging" id="text00119" >
1      </text>
      <line x1="326.5" y1="464.5" x2="326.5" y2="467.5" stroke-width="1" stroke="black" id="line00120" />
      <text x="326.5" y="470.5" font-size="10" font-family="sans-serif" text-anchor="middle" dominant-baseline="hanging" id="text00120" >
2      </text>
      <line x1="480.5" y1="464.5" x2="480.5" y2="467.5" stroke-width="1" stroke="black" id="line00121" />
      <text x="480.5" y="470.5" font-size="10" font-family="sans-serif" text-anchor="middle" dominant-baseline="hanging" id="text00121" >
3      </text>
      <line x1="634.5" y1="464.5" x2="634.5" y2="467.5" stroke-width="1" stroke="black" id="line00122" />
      <text x="634.5" y="470.5" font-size="10" font-family="sans-serif" text-anchor="middle" dominant-baseline="hanging" id="text00122" >
4      </text>
      <line x1="18.5" y1="407.438" x2="15.5" y2="407.438" stroke-width="1" stroke="black" id="line00123" />
      <text x="14.5" y="407.438" font-size="10" font-family="sans-serif" text-anchor="end" dominant-baseline="middle" id="text00123" >
G1      </text>
      <line x1="18.5" y1="293.312" x2="15.5" y2="293.312" stroke-width="1" stroke="black" id="line00124" />
      <text x="14.5" y="293.312" font-size="10" font-family="sans-serif" text-anchor="end" dominant-baseline="middle" id="text00124" >
G2      </text>
      <line x1="18.5" y1="179.188" x2="15.5" y2="179.188" stroke-width="1" stroke="black" id="line00125" />
      <text x="14.5" y="179.188" font-size="10" font-family="sans-serif" text-anchor="end" dominant-baseline="middle" id="text00125" >
G3      </text>
      <line x1="18.5" y1="65.0625" x2="15.5" y2="65.0625" stroke-width="1" stroke="black" id="line00126" />
      <text x="14.5" y="65.0625" font-size="10" font-family="sans-serif" text-anchor="end" dominant-baseline="middle" id="text00126" >
G4      </text>

   </svg>
   <svg xmlns="http://www.w3.org/2000/svg" xmlns:xlink="http://www.w3.org/1999/xlink" viewBox="0 0 640 480" id="svg00016" x="646.443" y="484.824" width="640" height="480" >
         <clipPath id="clipPath00014" >
               <rect x="18.5" y="8" width="616" height="456.5" id="rect00303" />

      </clipPath>
      <g id="g00040" clip-path="url(#clipPath00014)" >
               <g id="g00041" transform="translate(18.5 473.75) rotate(-90 0 0) translate(0 -18.5)" >
                     <g id="g00042" >
                           <rect stroke-width="0" fill="red" opacity="1" x="361.788" y="18.5" width="91.3" height="154" id="rect00304" />
               <rect stroke-width="0" fill="blue" opacity="1" x="247.663" y="18.5" width="91.3" height="308" id="rect00305" />
               <rect stroke-width="0" fill="yellow" opacity="1" x="133.537" y="18.5" width="91.3" height="462" id="rect00306" />
               <rect stroke-width="0" fill="green" opacity="1" x="19.4125" y="18.5" width="91.3" height="616" id="rect00307" />

            </g>

         </g>

      </g>
      <rect stroke-width="1" stroke="black" fill="none" x="18.5" y="8" width="616" height="456.5" id="rect00303" />
      <line x1="18.5" y1="464.5" x2="18.5" y2="467.5" stroke-width="1" stroke="black" id="line00127" />
      <text x="18.5" y="470.5" font-size="10" font-family="sans-serif" text-anchor="middle" dominant-baseline="hanging" id="text00127" >
0      </text>
      <line x1="172.5" y1="464.5" x2="172.5" y2="467.5" stroke-width="1" stroke="black" id="line00128" />
      <text x="172.5" y="470.5" font-size="10" font-family="sans-serif" text-anchor="middle" dominant-baseline="hanging" id="text00128" >
1      </text>
      <line x1="326.5" y1="464.5" x2="326.5" y2="467.5" stroke-width="1" stroke="black" id="line00129" />
      <text x="326.5" y="470.5" font-size="10" font-family="sans-serif" text-anchor="middle" dominant-baseline="hanging" id="text00129" >
2      </text>
      <line x1="480.5" y1="464.5" x2="480.5" y2="467.5" stroke-width="1" stroke="black" id="line00130" />
      <text x="480.5" y="470.5" font-size="10" font-family="sans-serif" text-anchor="middle" dominant-baseline="hanging" id="text00130" >
3      </text>
      <line x1="634.5" y1="464.5" x2="634.5" y2="467.5" stroke-width="1" stroke="black" id="line00131" />
      <text x="634.5" y="470.5" font-size="10" font-family="sans-serif" text-anchor="middle" dominant-baseline="hanging" id="text00131" >
4      </text>
      <line x1="18.5" y1="407.438" x2="15.5" y2="407.438" stroke-width="1" stroke="black" id="line00132" />
      <text x="14.5" y="407.438" font-size="10" font-family="sans-serif" text-anchor="end" dominant-baseline="middle" id="text00132" >
G1      </text>
      <line x1="18.5" y1="293.312" x2="15.5" y2="293.312" stroke-width="1" stroke="black" id="line00133" />
      <text x="14.5" y="293.312" font-size="10" font-family="sans-serif" text-anchor="end" dominant-baseline="middle" id="text00133" >
G2      </text>
      <line x1="18.5" y1="179.188" x2="15.5" y2="179.188" stroke-width="1" stroke="black" id="line00134" />
      <text x="14.5" y="179.188" font-size="10" font-family="sans-serif" text-anchor="end" dominant-baseline="middle" id="text00134" >
G3      </text>
      <line x1="18.5" y1="65.0625" x2="15.5" y2="65.0625" stroke-width="1" stroke="black" id="line00135" />
      <text x="14.5" y="65.0625" font-size="10" font-family="sans-serif" text-anchor="end" dominant-baseline="middle" id="text00135" >
G4      </text>

   </svg>
   <svg xmlns="http://www.w3.org/2000/svg" xmlns:xlink="http://www.w3.org/1999/xlink" viewBox="0 0 640 480" id="svg00017" x="1292.89" y="484.824" width="640" height="480" >
         <clipPath id="clipPath00015" >
               <rect x="18.5" y="8" width="616" height="456.5" id="rect00308" />

      </clipPath>
      <g id="g00043" clip-path="url(#clipPath00015)" >
               <g id="g00044" transform="translate(18.5 473.75) rotate(-90 0 0) translate(0 -18.5)" >
                     <g id="g00045" >
                           <rect stroke-width="0" fill="blue" opacity="1" x="361.788" y="18.5" width="91.3" height="154" id="rect00309" />
               <rect stroke-width="0" fill="magenta" opacity="1" x="247.663" y="18.5" width="91.3" height="308" id="rect00310" />
               <rect stroke-width="0" fill="blue" opacity="1" x="133.537" y="18.5" width="91.3" height="462" id="rect00311" />
               <rect stroke-width="0" fill="magenta" opacity="1" x="19.4125" y="18.5" width="91.3" height="616" id="rect00312" />

            </g>

         </g>

      </g>
      <rect stroke-width="1" stroke="black" fill="none" x="18.5" y="8" width="616" height="456.5" id="rect00308" />
      <line x1="18.5" y1="464.5" x2="18.5" y2="467.5" stroke-width="1" stroke="black" id="line00136" />
      <text x="18.5" y="470.5" font-size="10" font-family="sans-serif" text-anchor="middle" dominant-baseline="hanging" id="text00136" >
0      </text>
      <line x1="172.5" y1="464.5" x2="172.5" y2="467.5" stroke-width="1" stroke="black" id="line00137" />
      <text x="172.5" y="470.5" font-size="10" font-family="sans-serif" text-anchor="middle" dominant-baseline="hanging" id="text00137" >
1      </text>
      <line x1="326.5" y1="464.5" x2="326.5" y2="467.5" stroke-width="1" stroke="black" id="line00138" />
      <text x="326.5" y="470.5" font-size="10" font-family="sans-serif" text-anchor="middle" dominant-baseline="hanging" id="text00138" >
2      </text>
      <line x1="480.5" y1="464.5" x2="480.5" y2="467.5" stroke-width="1" stroke="black" id="line00139" />
      <text x="480.5" y="470.5" font-size="10" font-family="sans-serif" text-anchor="middle" dominant-baseline="hanging" id="text00139" >
3      </text>
      <line x1="634.5" y1="464.5" x2="634.5" y2="467.5" stroke-width="1" stroke="black" id="line00140" />
      <text x="634.5" y="470.5" font-size="10" font-family="sans-serif" text-anchor="middle" dominant-baseline="hanging" id="text00140" >
4      </text>
      <line x1="18.5" y1="407.438" x2="15.5" y2="407.438" stroke-width="1" stroke="black" id="line00141" />
      <text x="14.5" y="407.438" font-size="10" font-family="sans-serif" text-anchor="end" dominant-baseline="middle" id="text00141" >
G1      </text>
      <line x1="18.5" y1="293.312" x2="15.5" y2="293.312" stroke-width="1" stroke="black" id="line00142" />
      <text x="14.5" y="293.312" font-size="10" font-family="sans-serif" text-anchor="end" dominant-baseline="middle" id="text00142" >
G2      </text>
      <line x1="18.5" y1="179.188" x2="15.5" y2="179.188" stroke-width="1" stroke="black" id="line00143" />
      <text x="14.5" y="179.188" font-size="10" font-family="sans-serif" text-anchor="end" dominant-baseline="middle" id="text00143" >
G3      </text>
      <line x1="18.5" y1="65.0625" x2="15.5" y2="65.0625" stroke-width="1" stroke="black" id="line00144" />
      <text x="14.5" y="65.0625" font-size="10" font-family="sans-serif" text-anchor="end" dominant-baseline="middle" id="text00144" >
G4      </text>

   </svg>

</svg>
