<svg xmlns="http://www.w3.org/2000/svg" xmlns:xlink="http://www.w3.org/1999/xlink" viewBox="0 0 640 480" id="svg00005" >
   <clipPath id="clipPath00005" >
         <rect x="11" y="8" width="623.5" height="456.5" id="rect00048" />

   </clipPath>
   <g id="g00010" clip-path="url(#clipPath00005)" >
         <g id="g00011" >
               <rect stroke-width="0" fill="#1f77b4" opacity="1" x="23.47" y="373.2" width="99.76" height="91.3" id="rect00049" />
         <rect stroke-width="0" fill="#1f77b4" opacity="1" x="148.17" y="281.9" width="99.76" height="182.6" id="rect00050" />
         <rect stroke-width="0" fill="#1f77b4" opacity="1" x="272.87" y="190.6" width="99.76" height="273.9" id="rect00051" />
         <rect stroke-width="0" fill="#1f77b4" opacity="1" x="397.57" y="281.9" width="99.76" height="182.6" id="rect00052" />
         <rect stroke-width="0" fill="#1f77b4" opacity="1" x="522.27" y="373.2" width="99.76" height="91.3" id="rect00053" />

      </g>
      <g id="g00012" >
               <rect stroke-width="0" fill="#ff7f0e" opacity="1" x="23.47" y="190.6" width="99.76" height="182.6" id="rect00054" />
         <rect stroke-width="0" fill="#ff7f0e" opacity="1" x="148.17" y="190.6" width="99.76" height="91.3" id="rect00055" />
         <rect stroke-width="0" fill="#ff7f0e" opacity="1" x="272.87" y="8" width="99.76" height="182.6" id="rect00056" />
         <rect stroke-width="0" fill="#ff7f0e" opacity="1" x="397.57" y="190.6" width="99.76" height="91.3" id="rect00057" />
         <rect stroke-width="0" fill="#ff7f0e" opacity="1" x="522.27" y="190.6" width="99.76" height="182.6" id="rect00058" />

      </g>

   </g>
   <rect stroke-width="1" stroke="black" fill="none" x="11" y="8" width="623.5" height="456.5" id="rect00048" />
   <line x1="73.35" y1="464.5" x2="73.35" y2="467.5" stroke-width="1" stroke="black" id="line00039" />
   <text x="73.35" y="470.5" font-size="10" font-family="sans-serif" text-anchor="middle" dominant-baseline="hanging" id="text00039" >
0   </text>
   <line x1="198.05" y1="464.5" x2="198.05" y2="467.5" stroke-width="1" stroke="black" id="line00040" />
   <text x="198.05" y="470.5" font-size="10" font-family="sans-serif" text-anchor="middle" dominant-baseline="hanging" id="text00040" >
1   </text>
   <line x1="322.75" y1="464.5" x2="322.75" y2="467.5" stroke-width="1" stroke="black" id="line00041" />
   <text x="322.75" y="470.5" font-size="10" font-family="sans-serif" text-anchor="middle" dominant-baseline="hanging" id="text00041" >
2   </text>
   <line x1="447.45" y1="464.5" x2="447.45" y2="467.5" stroke-width="1" stroke="black" id="line00042" />
   <text x="447.45" y="470.5" font-size="10" font-family="sans-serif" text-anchor="middle" dominant-baseline="hanging" id="text00042" >
3   </text>
   <line x1="572.15" y1="464.5" x2="572.15" y2="467.5" stroke-width="1" stroke="black" id="line00043" />
   <text x="572.15" y="470.5" font-size="10" font-family="sans-serif" text-anchor="middle" dominant-baseline="hanging" id="text00043" >
4   </text>
   <line x1="11" y1="464.5" x2="8" y2="464.5" stroke-width="1" stroke="black" id="line00044" />
   <text x="7" y="464.5" font-size="10" font-family="sans-serif" text-anchor="end" dominant-baseline="middle" id="text00044" >
0   </text>
   <line x1="11" y1="373.2" x2="8" y2="373.2" stroke-width="1" stroke="black" id="line00045" />
   <text x="7" y="373.2" font-size="10" font-family="sans-serif" text-anchor="end" dominant-baseline="middle" id="text00045" >
1   </text>
   <line x1="11" y1="281.9" x2="8" y2="281.9" stroke-width="1" stroke="black" id="line00046" />
   <text x="7" y="281.9" font-size="10" font-family="sans-serif" text-anchor="end" dominant-baseline="middle" id="text00046" >
2   </text>
   <line x1="11" y1="190.6" x2="8" y2="190.6" stroke-width="1" stroke="black" id="line00047" />
   <text x="7" y="190.6" font-size="10" font-family="sans-serif" text-anchor="end" dominant-baseline="middle" id="text00047" >
3   </text>
   <line x1="11" y1="99.3" x2="8" y2="99.3" stroke-width="1" stroke="black" id="line00048" />
   <text x="7" y="99.3" font-size="10" font-family="sans-serif" text-anchor="end" dominant-baseline="middle" id="text00048" >
4   </text>
   <line x1="11" y1="8" x2="8" y2="8" stroke-width="1" stroke="black" id="line00049" />
   <text x="7" y="8" font-size="10" font-family="sans-serif" text-anchor="end" dominant-baseline="middle" id="text00049" >
5   </text>

</svg>
