<svg xmlns="http://www.w3.org/2000/svg" xmlns:xlink="http://www.w3.org/1999/xlink" viewBox="0 0 640 480" >
   <clipPath id="clipPath00001" >
         <rect x="66.5" y="8" width="563" height="456.5" id="rect00001" />

   </clipPath>
   <g id="g00001" clip-path="url(#clipPath00001)" >
         <polyline points="66.5,464.5 254.167,312.333 441.833,160.167 629.5,8 " stroke-width="1" stroke="#1f77b4" fill="none" opacity="1" id="polyline00001" />

   </g>
   <rect stroke-width="1" stroke="black" fill="none" x="66.5" y="8" width="563" height="456.5" id="rect00001" />
   <line x1="66.5" y1="464.5" x2="66.5" y2="467.5" stroke-width="1" stroke="black" id="line00001" />
   <text x="66.5" y="470.5" font-size="10" font-family="sans-serif" text-anchor="middle" dominant-baseline="hanging" id="text00001" >
0   </text>
   <line x1="207.25" y1="464.5" x2="207.25" y2="467.5" stroke-width="1" stroke="black" id="line00002" />
   <text x="207.25" y="470.5" font-size="10" font-family="sans-serif" text-anchor="middle" dominant-baseline="hanging" id="text00002" >
0.75   </text>
   <line x1="348" y1="464.5" x2="348" y2="467.5" stroke-width="1" stroke="black" id="line00003" />
   <text x="348" y="470.5" font-size="10" font-family="sans-serif" text-anchor="middle" dominant-baseline="hanging" id="text00003" >
1.5   </text>
   <line x1="488.75" y1="464.5" x2="488.75" y2="467.5" stroke-width="1" stroke="black" id="line00004" />
   <text x="488.75" y="470.5" font-size="10" font-family="sans-serif" text-anchor="middle" dominant-baseline="hanging" id="text00004" >
2.25   </text>
   <line x1="629.5" y1="464.5" x2="629.5" y2="467.5" stroke-width="1" stroke="black" id="line00005" />
   <text x="629.5" y="470.5" font-size="10" font-family="sans-serif" text-anchor="middle" dominant-baseline="hanging" id="text00005" >
3   </text>
   <line x1="66.5" y1="464.5" x2="63.5" y2="464.5" stroke-width="1" stroke="black" id="line00006" />
   <text x="62.5" y="464.5" font-size="10" font-family="sans-serif" text-anchor="end" dominant-baseline="middle" id="text00006" >
1   </text>
   <line x1="66.5" y1="350.375" x2="63.5" y2="350.375" stroke-width="1" stroke="black" id="line00007" />
   <text x="62.5" y="350.375" font-size="10" font-family="sans-serif" text-anchor="end" dominant-baseline="middle" id="text00007" >
1.75   </text>
   <line x1="66.5" y1="236.25" x2="63.5" y2="236.25" stroke-width="1" stroke="black" id="line00008" />
   <text x="62.5" y="236.25" font-size="10" font-family="sans-serif" text-anchor="end" dominant-baseline="middle" id="text00008" >
2.5   </text>
   <line x1="66.5" y1="122.125" x2="63.5" y2="122.125" stroke-width="1" stroke="black" id="line00009" />
   <text x="62.5" y="122.125" font-size="10" font-family="sans-serif" text-anchor="end" dominant-baseline="middle" id="text00009" >
3.25   </text>
   <line x1="66.5" y1="8" x2="63.5" y2="8" stroke-width="1" stroke="black" id="line00010" />
   <text x="62.5" y="8" font-size="10" font-family="sans-serif" text-anchor="end" dominant-baseline="middle" id="text00010" >
4   </text>
   <text x="31.5" y="236.25" font-size="16" font-family="sans-serif" text-anchor="middle" id="text00011" transform="rotate(-90 31.5 236.25)" >
some numbers   </text>

</svg>
