<svg xmlns="http://www.w3.org/2000/svg" xmlns:xlink="http://www.w3.org/1999/xlink" viewBox="0 0 640 480" >
   <clipPath id="clipPath00003" >
         <rect x="33.5" y="8" width="596" height="456.5" id="rect00003" />

   </clipPath>
   <g id="g00003" clip-path="url(#clipPath00003)" >
         <polyline points="33.5,96.027 39.5202,376.033 45.5404,94.627 51.5606,377.44 57.5808,93.213 63.601,378.861 69.6212,91.7847 75.6414,380.296 81.6616,90.3422 87.6818,381.746 93.702,88.8852 99.7222,383.21 105.742,87.4135 111.763,384.689 117.783,85.9272 123.803,386.183 129.823,84.4259 135.843,387.692 141.864,82.9096 147.884,389.216 153.904,81.378 159.924,390.755 165.944,79.8311 171.965,392.31 177.985,78.2687 184.005,393.88 190.025,76.6907 196.045,395.466 202.066,75.0969 208.086,397.068 214.106,73.487 220.126,398.686 226.146,71.861 232.167,400.32 238.187,70.2187 244.207,401.97 250.227,68.56 256.247,403.637 262.268,66.8846 268.288,405.321 274.308,65.1924 280.328,407.022 286.348,63.4832 292.369,408.739 298.389,61.757 304.409,410.474 310.429,60.0134 316.449,412.227 322.47,58.2523 328.49,413.996 334.51,56.4736 340.53,415.784 346.55,54.677 352.57,417.59 358.591,52.8625 364.611,419.413 370.631,51.0298 376.651,421.255 382.671,49.1786 388.692,423.115 394.712,47.3089 400.732,424.995 406.752,45.4205 412.772,426.892 418.793,43.5131 424.813,428.809 430.833,41.5867 436.853,430.745 442.873,39.6408 448.894,432.701 454.914,37.6755 460.934,434.676 466.954,35.6906 472.974,436.671 478.995,33.6856 485.015,438.686 491.035,31.6607 497.055,440.721 503.075,29.6154 509.096,442.777 515.116,27.5496 521.136,444.853 527.156,25.463 533.176,446.95 539.197,23.3556 545.217,449.068 551.237,21.2271 557.257,451.207 563.278,19.0771 569.298,453.367 575.318,16.9057 581.338,455.55 587.358,14.7125 593.379,457.754 599.399,12.4973 605.419,459.98 611.439,10.2598 617.46,462.229 623.48,8 629.5,464.5 " stroke-width="1" stroke="#1f77b4" fill="none" opacity="1" id="polyline00003" />

   </g>
   <rect stroke-width="1" stroke="black" fill="none" x="33.5" y="8" width="596" height="456.5" id="rect00003" />
   <line x1="33.5" y1="464.5" x2="33.5" y2="467.5" stroke-width="1" stroke="black" id="line00020" />
   <text x="33.5" y="470.5" font-size="10" font-family="sans-serif" text-anchor="middle" dominant-baseline="hanging" id="text00021" >
0   </text>
   <line x1="153.904" y1="464.5" x2="153.904" y2="467.5" stroke-width="1" stroke="black" id="line00021" />
   <text x="153.904" y="470.5" font-size="10" font-family="sans-serif" text-anchor="middle" dominant-baseline="hanging" id="text00022" >
1   </text>
   <line x1="274.308" y1="464.5" x2="274.308" y2="467.5" stroke-width="1" stroke="black" id="line00022" />
   <text x="274.308" y="470.5" font-size="10" font-family="sans-serif" text-anchor="middle" dominant-baseline="hanging" id="text00023" >
2   </text>
   <line x1="394.712" y1="464.5" x2="394.712" y2="467.5" stroke-width="1" stroke="black" id="line00023" />
   <text x="394.712" y="470.5" font-size="10" font-family="sans-serif" text-anchor="middle" dominant-baseline="hanging" id="text00024" >
3   </text>
   <line x1="515.116" y1="464.5" x2="515.116" y2="467.5" stroke-width="1" stroke="black" id="line00024" />
   <text x="515.116" y="470.5" font-size="10" font-family="sans-serif" text-anchor="middle" dominant-baseline="hanging" id="text00025" >
4   </text>
   <line x1="33.5" y1="458.015" x2="30.5" y2="458.015" stroke-width="1" stroke="black" id="line00025" />
   <text x="29.5" y="458.015" font-size="10" font-family="sans-serif" text-anchor="end" dominant-baseline="middle" id="text00026" >
-1.6   </text>
   <line x1="33.5" y1="346.848" x2="30.5" y2="346.848" stroke-width="1" stroke="black" id="line00026" />
   <text x="29.5" y="346.848" font-size="10" font-family="sans-serif" text-anchor="end" dominant-baseline="middle" id="text00027" >
-0.8   </text>
   <line x1="33.5" y1="235.681" x2="30.5" y2="235.681" stroke-width="1" stroke="black" id="line00027" />
   <text x="29.5" y="235.681" font-size="10" font-family="sans-serif" text-anchor="end" dominant-baseline="middle" id="text00028" >
0   </text>
   <line x1="33.5" y1="124.514" x2="30.5" y2="124.514" stroke-width="1" stroke="black" id="line00028" />
   <text x="29.5" y="124.514" font-size="10" font-family="sans-serif" text-anchor="end" dominant-baseline="middle" id="text00029" >
0.8   </text>
   <line x1="33.5" y1="13.3465" x2="30.5" y2="13.3465" stroke-width="1" stroke="black" id="line00029" />
   <text x="29.5" y="13.3465" font-size="10" font-family="sans-serif" text-anchor="end" dominant-baseline="middle" id="text00030" >
1.6   </text>

</svg>
