<svg xmlns="http://www.w3.org/2000/svg" xmlns:xlink="http://www.w3.org/1999/xlink" viewBox="0 0 640 480" >
   <clipPath id="clipPath00004" >
         <rect x="18.5" y="8" width="611" height="456.5" id="rect00004" />

   </clipPath>
   <g id="g00007" clip-path="url(#clipPath00004)" >
         <g id="g00008" >
               <polyline points="18.5,152.791 30.9694,152.118 43.4388,150.112 55.9082,146.817 68.3776,142.3 80.847,136.657 93.3164,130.007 105.786,122.492 118.255,114.276 130.725,105.538 143.194,96.4745 155.663,87.2929 168.133,78.2092 180.602,69.4445 193.071,61.2213 205.541,53.7599 218.01,47.2747 230.48,41.9704 242.949,38.0387 255.418,35.6545 267.888,34.9732 280.357,36.1272 292.827,39.2236 305.296,44.3417 317.765,51.5311 330.235,60.8098 342.704,72.1635 355.173,85.5446 367.643,100.872 380.112,118.032 392.582,136.877 405.051,157.229 417.52,178.881 429.99,201.598 442.459,225.118 454.929,249.161 467.398,273.424 479.867,297.593 492.337,321.34 504.806,344.331 517.276,366.23 529.745,386.703 542.214,405.421 554.684,422.068 567.153,436.343 579.622,447.965 592.092,456.678 604.561,462.255 617.031,464.5 629.5,463.254 " stroke-width="1" stroke="#1f77b4" fill="none" opacity="1" id="polyline00004" />

      </g>
      <g id="g00009" >
               <polyline points="18.5,152.791 30.9694,132.106 43.4388,123.539 55.9082,116.964 68.3776,111.422 80.847,106.539 93.3164,102.124 105.786,98.0649 118.255,94.2864 130.725,90.7375 143.194,87.3809 155.663,84.1883 168.133,81.1378 180.602,78.212 193.071,75.3968 205.541,72.6804 218.01,70.0531 230.48,67.5067 242.949,65.0343 255.418,62.6295 267.888,60.2873 280.357,58.0029 292.827,55.7723 305.296,53.5918 317.765,51.4583 330.235,49.3687 342.704,47.3206 355.173,45.3115 367.643,43.3392 380.112,41.4018 392.582,39.4976 405.051,37.6249 417.52,35.7821 429.99,33.9679 442.459,32.181 454.929,30.4202 467.398,28.6844 479.867,26.9725 492.337,25.2836 504.806,23.6167 517.276,21.9711 529.745,20.346 542.214,18.7405 554.684,17.1541 567.153,15.586 579.622,14.0356 592.092,12.5023 604.561,10.9857 617.031,9.48508 629.5,8 " stroke-width="1" stroke="#ff7f0e" fill="none" opacity="1" id="polyline00005" />

      </g>

   </g>
   <rect stroke-width="1" stroke="black" fill="none" x="18.5" y="8" width="611" height="456.5" id="rect00004" />
   <line x1="18.5" y1="464.5" x2="18.5" y2="467.5" stroke-width="1" stroke="black" id="line00029" />
   <text x="18.5" y="470.5" font-size="10" font-family="sans-serif" text-anchor="middle" dominant-baseline="hanging" id="text00030" >
0   </text>
   <line x1="140.7" y1="464.5" x2="140.7" y2="467.5" stroke-width="1" stroke="black" id="line00030" />
   <text x="140.7" y="470.5" font-size="10" font-family="sans-serif" text-anchor="middle" dominant-baseline="hanging" id="text00031" >
1   </text>
   <line x1="262.9" y1="464.5" x2="262.9" y2="467.5" stroke-width="1" stroke="black" id="line00031" />
   <text x="262.9" y="470.5" font-size="10" font-family="sans-serif" text-anchor="middle" dominant-baseline="hanging" id="text00032" >
2   </text>
   <line x1="385.1" y1="464.5" x2="385.1" y2="467.5" stroke-width="1" stroke="black" id="line00032" />
   <text x="385.1" y="470.5" font-size="10" font-family="sans-serif" text-anchor="middle" dominant-baseline="hanging" id="text00033" >
3   </text>
   <line x1="507.3" y1="464.5" x2="507.3" y2="467.5" stroke-width="1" stroke="black" id="line00033" />
   <text x="507.3" y="470.5" font-size="10" font-family="sans-serif" text-anchor="middle" dominant-baseline="hanging" id="text00034" >
4   </text>
   <line x1="18.5" y1="411.8" x2="15.5" y2="411.8" stroke-width="1" stroke="black" id="line00034" />
   <text x="14.5" y="411.8" font-size="10" font-family="sans-serif" text-anchor="end" dominant-baseline="middle" id="text00035" >
-4   </text>
   <line x1="18.5" y1="347.048" x2="15.5" y2="347.048" stroke-width="1" stroke="black" id="line00035" />
   <text x="14.5" y="347.048" font-size="10" font-family="sans-serif" text-anchor="end" dominant-baseline="middle" id="text00036" >
-3   </text>
   <line x1="18.5" y1="282.295" x2="15.5" y2="282.295" stroke-width="1" stroke="black" id="line00036" />
   <text x="14.5" y="282.295" font-size="10" font-family="sans-serif" text-anchor="end" dominant-baseline="middle" id="text00037" >
-2   </text>
   <line x1="18.5" y1="217.543" x2="15.5" y2="217.543" stroke-width="1" stroke="black" id="line00037" />
   <text x="14.5" y="217.543" font-size="10" font-family="sans-serif" text-anchor="end" dominant-baseline="middle" id="text00038" >
-1   </text>
   <line x1="18.5" y1="152.791" x2="15.5" y2="152.791" stroke-width="1" stroke="black" id="line00038" />
   <text x="14.5" y="152.791" font-size="10" font-family="sans-serif" text-anchor="end" dominant-baseline="middle" id="text00039" >
0   </text>
   <line x1="18.5" y1="88.0383" x2="15.5" y2="88.0383" stroke-width="1" stroke="black" id="line00039" />
   <text x="14.5" y="88.0383" font-size="10" font-family="sans-serif" text-anchor="end" dominant-baseline="middle" id="text00040" >
1   </text>
   <line x1="18.5" y1="23.2859" x2="15.5" y2="23.2859" stroke-width="1" stroke="black" id="line00040" />
   <text x="14.5" y="23.2859" font-size="10" font-family="sans-serif" text-anchor="end" dominant-baseline="middle" id="text00041" >
2   </text>

</svg>
