<svg xmlns="http://www.w3.org/2000/svg" xmlns:xlink="http://www.w3.org/1999/xlink" viewBox="0 0 200 200" id="svg00018" >
   <clipPath id="clipPath00016" >
         <rect x="18.5" y="8" width="171" height="176.5" id="rect00017" />

   </clipPath>
   <g id="g00065" clip-path="url(#clipPath00016)" >
         <g id="g00066" >
               <defs>
                     <svg xmlns="http://www.w3.org/2000/svg" xmlns:xlink="http://www.w3.org/1999/xlink" viewBox="0 0 361.667 361.667" id="Capa_1" x="-1" y="-1" width="2" height="2" preserveAspectRatio="xMidYMid meet" >
                           <path d="M 320.833 278.833 h -280 c -9.649 0 -17.5 -7.851 -17.5 -17.5 v -23 c 0 -2.881 0.7 -5.601 1.938 -8 H 24 c -13.234 0 -24 -10.767 -24 -24 v -8 c 0 -13.233 10.766 -24 24 -24 h 1.976 c -0.76 -3.314 -1.143 -6.659 -1.143 -10 c 0 -22.415 16.68 -43.21 46.967 -58.554 c 29.207 -14.797 67.929 -22.946 109.033 -22.946 s 79.826 8.149 109.033 22.946 c 30.288 15.344 46.968 36.139 46.968 58.554 c 0 3.341 -0.383 6.686 -1.144 10 h 1.977 c 13.233 0 24 10.767 24 24 v 8 c 0 13.233 -10.767 24 -24 24 h -1.271 c 1.238 2.399 1.938 5.119 1.938 8 v 23 C 338.333 270.983 330.483 278.833 320.833 278.833 z M 40.833 230.833 c -4.136 0 -7.5 3.364 -7.5 7.5 v 23 c 0 4.136 3.364 7.5 7.5 7.5 h 280 c 4.136 0 7.5 -3.364 7.5 -7.5 v -23 c 0 -4.136 -3.364 -7.5 -7.5 -7.5 H 40.833 z M 24 184.333 c -7.72 0 -14 6.28 -14 14 v 8 c 0 7.72 6.28 14 14 14 h 313.667 c 7.72 0 14 -6.28 14 -14 v -8 c 0 -7.72 -6.28 -14 -14 -14 H 24 z M 36.166 173.833 H 325.5 c 0.886 -3.153 1.333 -6.336 1.333 -9.5 c 0 -18.453 -14.733 -36.08 -41.486 -49.634 c -27.834 -14.101 -64.95 -21.866 -104.514 -21.866 c -39.563 0 -76.68 7.766 -104.514 21.866 c -26.753 13.554 -41.486 31.181 -41.486 49.634 C 34.833 167.497 35.28 170.68 36.166 173.833 z M 222.833 161.834 c -2.094 0 -4.044 -1.324 -4.742 -3.42 l -2 -6 c -0.873 -2.619 0.542 -5.451 3.162 -6.324 c 2.617 -0.874 5.45 0.541 6.324 3.162 l 2 6 c 0.873 2.619 -0.542 5.451 -3.162 6.324 C 223.89 161.751 223.357 161.834 222.833 161.834 z M 60.662 159.833 c -1.006 0 -2.021 -0.302 -2.902 -0.932 c -2.247 -1.604 -2.768 -4.728 -1.163 -6.975 l 5 -7 c 1.604 -2.247 4.728 -2.77 6.975 -1.162 c 2.247 1.604 2.768 4.728 1.163 6.975 l -5 7 C 63.759 159.106 62.222 159.833 60.662 159.833 z M 186.833 157.833 c -2.761 0 -5 -2.238 -5 -5 v -8 c 0 -2.762 2.239 -5 5 -5 s 5 2.238 5 5 v 8 C 191.833 155.595 189.594 157.833 186.833 157.833 z M 106.835 153.833 c -1.433 0 -2.854 -0.612 -3.844 -1.799 c -1.768 -2.122 -1.481 -5.274 0.641 -7.042 l 6 -5 c 2.12 -1.769 5.273 -1.481 7.042 0.64 c 1.768 2.122 1.481 5.274 -0.64 7.042 l -6 5 C 109.099 153.453 107.964 153.833 106.835 153.833 z M 292.832 150.833 c -1.182 0 -2.367 -0.416 -3.32 -1.263 l -9 -8 c -2.063 -1.835 -2.249 -4.995 -0.415 -7.06 c 1.835 -2.063 4.994 -2.249 7.06 -0.415 l 9 8 c 2.063 1.835 2.249 4.995 0.415 7.06 C 295.583 150.267 294.21 150.833 292.832 150.833 z M 257.833 150.833 c -1.279 0 -2.56 -0.488 -3.535 -1.465 l -8 -8 c -1.953 -1.952 -1.953 -5.118 0 -7.07 c 1.951 -1.953 5.119 -1.953 7.07 0 l 8 8 c 1.953 1.952 1.953 5.118 0 7.07 C 260.393 150.345 259.113 150.833 257.833 150.833 z M 146.662 147.833 c -1.006 0 -2.021 -0.302 -2.902 -0.932 c -2.247 -1.604 -2.768 -4.728 -1.163 -6.975 l 5 -7 c 1.605 -2.247 4.727 -2.77 6.975 -1.162 c 2.247 1.604 2.768 4.728 1.163 6.975 l -5 7 C 149.759 147.106 148.222 147.833 146.662 147.833 z M 82.837 133.834 c -1.616 0 -3.201 -0.782 -4.165 -2.228 c -1.532 -2.298 -0.911 -5.402 1.387 -6.934 l 9 -6 c 2.298 -1.532 5.401 -0.911 6.934 1.387 c 1.532 2.298 0.911 5.402 -1.387 6.934 l -9 6 C 84.754 133.562 83.791 133.834 82.837 133.834 z M 175.672 128.834 c -0.325 0 -0.655 -0.032 -0.986 -0.098 c -2.708 -0.542 -4.464 -3.176 -3.922 -5.884 l 1 -5 c 0.541 -2.708 3.175 -4.455 5.883 -3.923 c 2.708 0.542 4.464 3.176 3.922 5.884 l -1 5 C 180.094 127.191 178.006 128.834 175.672 128.834 z M 262.833 125.834 c -0.583 0 -1.176 -0.103 -1.755 -0.319 l -8 -3 c -2.585 -0.97 -3.896 -3.852 -2.926 -6.438 c 0.97 -2.585 3.849 -3.895 6.438 -2.926 l 8 3 c 2.585 0.97 3.896 3.852 2.926 6.438 C 266.762 124.596 264.857 125.834 262.833 125.834 z M 206.661 121.834 c -2.4 0 -4.519 -1.733 -4.926 -4.179 l -1 -6 c -0.454 -2.724 1.386 -5.3 4.109 -5.754 c 2.726 -0.459 5.3 1.386 5.754 4.109 l 1 6 c 0.454 2.724 -1.386 5.3 -4.109 5.754 C 207.21 121.812 206.933 121.834 206.661 121.834 z M 138.828 116.834 c -2.292 0 -4.358 -1.586 -4.876 -3.916 c -0.599 -2.696 1.101 -5.367 3.796 -5.966 l 9 -2 c 2.696 -0.597 5.366 1.101 5.965 3.796 c 0.599 2.696 -1.101 5.367 -3.796 5.966 l -9 2 C 139.553 116.795 139.188 116.834 138.828 116.834 z" id="path00001" />
               <g id="g00050" >
                              </g>
               <g id="g00051" >
                              </g>
               <g id="g00052" >
                              </g>
               <g id="g00053" >
                              </g>
               <g id="g00054" >
                              </g>
               <g id="g00055" >
                              </g>
               <g id="g00056" >
                              </g>
               <g id="g00057" >
                              </g>
               <g id="g00058" >
                              </g>
               <g id="g00059" >
                              </g>
               <g id="g00060" >
                              </g>
               <g id="g00061" >
                              </g>
               <g id="g00062" >
                              </g>
               <g id="g00063" >
                              </g>
               <g id="g00064" >
                              </g>

            </svg>

         </defs>
         <g id="g00067" >
                     <use href="#Capa_1" xlink:href="#Capa_1" stroke-width="0" stroke="black" fill="#1f77b4" opacity="1" fill-opacity="1" id="use00188" transform="translate(135.673 83.0767) scale(6 6)" />
            <use href="#Capa_1" xlink:href="#Capa_1" stroke-width="0" stroke="black" fill="#1f77b4" opacity="1" fill-opacity="1" id="use00189" transform="translate(99.7251 111.416) scale(6 6)" />
            <use href="#Capa_1" xlink:href="#Capa_1" stroke-width="0" stroke="black" fill="#1f77b4" opacity="1" fill-opacity="1" id="use00190" transform="translate(110.539 120.74) scale(6 6)" />
            <use href="#Capa_1" xlink:href="#Capa_1" stroke-width="0" stroke="black" fill="#1f77b4" opacity="1" fill-opacity="1" id="use00191" transform="translate(99.511 136.15) scale(6 6)" />
            <use href="#Capa_1" xlink:href="#Capa_1" stroke-width="0" stroke="black" fill="#1f77b4" opacity="1" fill-opacity="1" id="use00192" transform="translate(184.818 135.669) scale(6 6)" />
            <use href="#Capa_1" xlink:href="#Capa_1" stroke-width="0" stroke="black" fill="#1f77b4" opacity="1" fill-opacity="1" id="use00193" transform="translate(152.451 95.1906) scale(6 6)" />
            <use href="#Capa_1" xlink:href="#Capa_1" stroke-width="0" stroke="black" fill="#1f77b4" opacity="1" fill-opacity="1" id="use00194" transform="translate(179.346 83.9458) scale(6 6)" />
            <use href="#Capa_1" xlink:href="#Capa_1" stroke-width="0" stroke="black" fill="#1f77b4" opacity="1" fill-opacity="1" id="use00195" transform="translate(34.986 118.662) scale(6 6)" />
            <use href="#Capa_1" xlink:href="#Capa_1" stroke-width="0" stroke="black" fill="#1f77b4" opacity="1" fill-opacity="1" id="use00196" transform="translate(133.425 12.1994) scale(6 6)" />
            <use href="#Capa_1" xlink:href="#Capa_1" stroke-width="0" stroke="black" fill="#1f77b4" opacity="1" fill-opacity="1" id="use00197" transform="translate(107.426 143.968) scale(6 6)" />

         </g>

      </g>
      <g id="g00068" >
               <defs>
                     <image href="dice.png" xlink:href="dice.png" x="-1" y="-1" width="2" height="2" id="image00001" preserveAspectRatio="xMidYMid meet" />

         </defs>
         <g id="g00069" >
                     <use href="#image00001" xlink:href="#image00001" stroke-width="0" stroke="black" fill="#ff7f0e" opacity="1" fill-opacity="1" id="use00198" transform="translate(105.153 71.9997) scale(4 4)" />
            <use href="#image00001" xlink:href="#image00001" stroke-width="0" stroke="black" fill="#ff7f0e" opacity="1" fill-opacity="1" id="use00199" transform="translate(122.256 107.273) scale(4 4)" />
            <use href="#image00001" xlink:href="#image00001" stroke-width="0" stroke="black" fill="#ff7f0e" opacity="1" fill-opacity="1" id="use00200" transform="translate(150.842 79.2765) scale(4 4)" />
            <use href="#image00001" xlink:href="#image00001" stroke-width="0" stroke="black" fill="#ff7f0e" opacity="1" fill-opacity="1" id="use00201" transform="translate(61.9794 179.309) scale(4 4)" />
            <use href="#image00001" xlink:href="#image00001" stroke-width="0" stroke="black" fill="#ff7f0e" opacity="1" fill-opacity="1" id="use00202" transform="translate(22.5471 23.1175) scale(4 4)" />
            <use href="#image00001" xlink:href="#image00001" stroke-width="0" stroke="black" fill="#ff7f0e" opacity="1" fill-opacity="1" id="use00203" transform="translate(150.19 114.714) scale(4 4)" />
            <use href="#image00001" xlink:href="#image00001" stroke-width="0" stroke="black" fill="#ff7f0e" opacity="1" fill-opacity="1" id="use00204" transform="translate(152.054 54.3378) scale(4 4)" />
            <use href="#image00001" xlink:href="#image00001" stroke-width="0" stroke="black" fill="#ff7f0e" opacity="1" fill-opacity="1" id="use00205" transform="translate(90.9344 99.9992) scale(4 4)" />
            <use href="#image00001" xlink:href="#image00001" stroke-width="0" stroke="black" fill="#ff7f0e" opacity="1" fill-opacity="1" id="use00206" transform="translate(129.616 13.1912) scale(4 4)" />
            <use href="#image00001" xlink:href="#image00001" stroke-width="0" stroke="black" fill="#ff7f0e" opacity="1" fill-opacity="1" id="use00207" transform="translate(138.08 58.3475) scale(4 4)" />

         </g>

      </g>

   </g>
   <rect stroke-width="1" stroke="black" fill="none" x="18.5" y="8" width="171" height="176.5" id="rect00017" />
   <line x1="22.2198" y1="184.5" x2="22.2198" y2="187.5" stroke-width="1" stroke="black" id="line00031" />
   <text x="22.2198" y="190.5" font-size="10" font-family="sans-serif" text-anchor="middle" dominant-baseline="hanging" id="text00043" >
-4   </text>
   <line x1="46.815" y1="184.5" x2="46.815" y2="187.5" stroke-width="1" stroke="black" id="line00032" />
   <text x="46.815" y="190.5" font-size="10" font-family="sans-serif" text-anchor="middle" dominant-baseline="hanging" id="text00044" >
-3   </text>
   <line x1="71.4103" y1="184.5" x2="71.4103" y2="187.5" stroke-width="1" stroke="black" id="line00033" />
   <text x="71.4103" y="190.5" font-size="10" font-family="sans-serif" text-anchor="middle" dominant-baseline="hanging" id="text00045" >
-2   </text>
   <line x1="96.0056" y1="184.5" x2="96.0056" y2="187.5" stroke-width="1" stroke="black" id="line00034" />
   <text x="96.0056" y="190.5" font-size="10" font-family="sans-serif" text-anchor="middle" dominant-baseline="hanging" id="text00046" >
-1   </text>
   <line x1="120.601" y1="184.5" x2="120.601" y2="187.5" stroke-width="1" stroke="black" id="line00035" />
   <text x="120.601" y="190.5" font-size="10" font-family="sans-serif" text-anchor="middle" dominant-baseline="hanging" id="text00047" >
0   </text>
   <line x1="145.196" y1="184.5" x2="145.196" y2="187.5" stroke-width="1" stroke="black" id="line00036" />
   <text x="145.196" y="190.5" font-size="10" font-family="sans-serif" text-anchor="middle" dominant-baseline="hanging" id="text00048" >
1   </text>
   <line x1="169.791" y1="184.5" x2="169.791" y2="187.5" stroke-width="1" stroke="black" id="line00037" />
   <text x="169.791" y="190.5" font-size="10" font-family="sans-serif" text-anchor="middle" dominant-baseline="hanging" id="text00049" >
2   </text>
   <line x1="18.5" y1="167.457" x2="15.5" y2="167.457" stroke-width="1" stroke="black" id="line00038" />
   <text x="14.5" y="167.457" font-size="10" font-family="sans-serif" text-anchor="end" dominant-baseline="middle" id="text00050" >
-4   </text>
   <line x1="18.5" y1="128.321" x2="15.5" y2="128.321" stroke-width="1" stroke="black" id="line00039" />
   <text x="14.5" y="128.321" font-size="10" font-family="sans-serif" text-anchor="end" dominant-baseline="middle" id="text00051" >
-2   </text>
   <line x1="18.5" y1="89.1845" x2="15.5" y2="89.1845" stroke-width="1" stroke="black" id="line00040" />
   <text x="14.5" y="89.1845" font-size="10" font-family="sans-serif" text-anchor="end" dominant-baseline="middle" id="text00052" >
0   </text>
   <line x1="18.5" y1="50.0481" x2="15.5" y2="50.0481" stroke-width="1" stroke="black" id="line00041" />
   <text x="14.5" y="50.0481" font-size="10" font-family="sans-serif" text-anchor="end" dominant-baseline="middle" id="text00053" >
2   </text>
   <line x1="18.5" y1="10.9116" x2="15.5" y2="10.9116" stroke-width="1" stroke="black" id="line00042" />
   <text x="14.5" y="10.9116" font-size="10" font-family="sans-serif" text-anchor="end" dominant-baseline="middle" id="text00054" >
4   </text>

</svg>
