<svg xmlns="http://www.w3.org/2000/svg" xmlns:xlink="http://www.w3.org/1999/xlink" viewBox="0 0 1511.9 543.303" id="svg00004" >
   <svg xmlns="http://www.w3.org/2000/svg" xmlns:xlink="http://www.w3.org/1999/xlink" viewBox="0 0 245 265" id="svg00005" x="0" y="0" width="245" height="265" >
         <clipPath id="clipPath00004" >
               <rect x="0.5" y="38.5" width="244" height="226" id="rect00005" />

      </clipPath>
      <g id="g00014" clip-path="url(#clipPath00004)" >
               <g id="g00015" >
                     <defs>
                           <circle cx="0" cy="0" r="1" id="circle00007" />

            </defs>
            <g id="g00016" >
                           <use href="#circle00007" xlink:href="#circle00007" stroke-width="0" stroke="black" fill="#1f77b4" opacity="1" fill-opacity="1" id="use00176" transform="translate(122.5 151.5) scale(100 100)" />

            </g>

         </g>

      </g>
      <rect stroke-width="1" stroke="black" fill="none" x="0.5" y="38.5" width="244" height="226" id="rect00005" />
      <text x="122.5" y="26.5" font-size="24" font-family="sans-serif" text-anchor="middle" id="text00031" >
'o'      </text>

   </svg>
   <svg xmlns="http://www.w3.org/2000/svg" xmlns:xlink="http://www.w3.org/1999/xlink" viewBox="0 0 245 265" id="svg00006" x="247.47" y="0" width="245" height="265" >
         <clipPath id="clipPath00005" >
               <rect x="0.5" y="38.5" width="244" height="226" id="rect00006" />

      </clipPath>
      <g id="g00017" clip-path="url(#clipPath00005)" >
               <g id="g00018" >
                     <defs>
                           <circle cx="0" cy="0" r="0.5" id="circle00009" />

            </defs>
            <g id="g00019" >
                           <use href="#circle00009" xlink:href="#circle00009" stroke-width="0" stroke="black" fill="#1f77b4" opacity="1" fill-opacity="1" id="use00177" transform="translate(122.5 151.5) scale(100 100)" />

            </g>

         </g>

      </g>
      <rect stroke-width="1" stroke="black" fill="none" x="0.5" y="38.5" width="244" height="226" id="rect00006" />
      <text x="122.5" y="26.5" font-size="24" font-family="sans-serif" text-anchor="middle" id="text00032" >
'.'      </text>

   </svg>
   <svg xmlns="http://www.w3.org/2000/svg" xmlns:xlink="http://www.w3.org/1999/xlink" viewBox="0 0 245 265" id="svg00007" x="494.941" y="0" width="245" height="265" >
         <clipPath id="clipPath00006" >
               <rect x="0.5" y="38.5" width="244" height="226" id="rect00007" />

      </clipPath>
      <g id="g00020" clip-path="url(#clipPath00006)" >
               <g id="g00021" >
                     <defs>
                           <circle cx="0" cy="0" r="0.23" id="circle00011" />

            </defs>
            <g id="g00022" >
                           <use href="#circle00011" xlink:href="#circle00011" stroke-width="0" stroke="black" fill="#1f77b4" opacity="1" fill-opacity="1" id="use00178" transform="translate(122.5 151.5) scale(100 100)" />

            </g>

         </g>

      </g>
      <rect stroke-width="1" stroke="black" fill="none" x="0.5" y="38.5" width="244" height="226" id="rect00007" />
      <text x="122.5" y="26.5" font-size="24" font-family="sans-serif" text-anchor="middle" id="text00033" >
','      </text>

   </svg>
   <svg xmlns="http://www.w3.org/2000/svg" xmlns:xlink="http://www.w3.org/1999/xlink" viewBox="0 0 245 265" id="svg00008" x="742.411" y="0" width="245" height="265" >
         <clipPath id="clipPath00007" >
               <rect x="0.5" y="38.5" width="244" height="226" id="rect00008" />

      </clipPath>
      <g id="g00023" clip-path="url(#clipPath00007)" >
               <g id="g00024" >
                     <defs>
                           <polygon points="0,1 1,-1 -1,-1 " id="polygon00001" />

            </defs>
            <g id="g00025" >
                           <use href="#polygon00001" xlink:href="#polygon00001" stroke-width="0" stroke="black" fill="#1f77b4" opacity="1" fill-opacity="1" id="use00179" transform="translate(122.5 151.5) scale(100 100)" />

            </g>

         </g>

      </g>
      <rect stroke-width="1" stroke="black" fill="none" x="0.5" y="38.5" width="244" height="226" id="rect00008" />
      <text x="122.5" y="26.5" font-size="24" font-family="sans-serif" text-anchor="middle" id="text00034" >
'v'      </text>

   </svg>
   <svg xmlns="http://www.w3.org/2000/svg" xmlns:xlink="http://www.w3.org/1999/xlink" viewBox="0 0 245 265" id="svg00009" x="989.882" y="0" width="245" height="265" >
         <clipPath id="clipPath00008" >
               <rect x="0.5" y="38.5" width="244" height="226" id="rect00009" />

      </clipPath>
      <g id="g00026" clip-path="url(#clipPath00008)" >
               <g id="g00027" >
                     <defs>
                           <polygon points="1,0 -1,1 -1,-1 " id="polygon00002" />

            </defs>
            <g id="g00028" >
                           <use href="#polygon00002" xlink:href="#polygon00002" stroke-width="0" stroke="black" fill="#1f77b4" opacity="1" fill-opacity="1" id="use00180" transform="translate(122.5 151.5) scale(100 100)" />

            </g>

         </g>

      </g>
      <rect stroke-width="1" stroke="black" fill="none" x="0.5" y="38.5" width="244" height="226" id="rect00009" />
      <text x="122.5" y="26.5" font-size="24" font-family="sans-serif" text-anchor="middle" id="text00035" >
'>'      </text>

   </svg>
   <svg xmlns="http://www.w3.org/2000/svg" xmlns:xlink="http://www.w3.org/1999/xlink" viewBox="0 0 245 265" id="svg00010" x="1237.35" y="0" width="245" height="265" >
         <clipPath id="clipPath00009" >
               <rect x="0.5" y="38.5" width="244" height="226" id="rect00010" />

      </clipPath>
      <g id="g00029" clip-path="url(#clipPath00009)" >
               <g id="g00030" >
                     <defs>
                           <polygon points="0,-1 1,1 -1,1 " id="polygon00003" />

            </defs>
            <g id="g00031" >
                           <use href="#polygon00003" xlink:href="#polygon00003" stroke-width="0" stroke="black" fill="#1f77b4" opacity="1" fill-opacity="1" id="use00181" transform="translate(122.5 151.5) scale(100 100)" />

            </g>

         </g>

      </g>
      <rect stroke-width="1" stroke="black" fill="none" x="0.5" y="38.5" width="244" height="226" id="rect00010" />
      <text x="122.5" y="26.5" font-size="24" font-family="sans-serif" text-anchor="middle" id="text00036" >
'^'      </text>

   </svg>
   <svg xmlns="http://www.w3.org/2000/svg" xmlns:xlink="http://www.w3.org/1999/xlink" viewBox="0 0 245 265" id="svg00011" x="0" y="267.663" width="245" height="265" >
         <clipPath id="clipPath00010" >
               <rect x="0.5" y="38.5" width="244" height="226" id="rect00011" />

      </clipPath>
      <g id="g00032" clip-path="url(#clipPath00010)" >
               <g id="g00033" >
                     <defs>
                           <polygon points="-1,0 1,1 1,-1 " id="polygon00004" />

            </defs>
            <g id="g00034" >
                           <use href="#polygon00004" xlink:href="#polygon00004" stroke-width="0" stroke="black" fill="#1f77b4" opacity="1" fill-opacity="1" id="use00182" transform="translate(122.5 151.5) scale(100 100)" />

            </g>

         </g>

      </g>
      <rect stroke-width="1" stroke="black" fill="none" x="0.5" y="38.5" width="244" height="226" id="rect00011" />
      <text x="122.5" y="26.5" font-size="24" font-family="sans-serif" text-anchor="middle" id="text00037" >
'&lt;'      </text>

   </svg>
   <svg xmlns="http://www.w3.org/2000/svg" xmlns:xlink="http://www.w3.org/1999/xlink" viewBox="0 0 245 265" id="svg00012" x="247.47" y="267.663" width="245" height="265" >
         <clipPath id="clipPath00011" >
               <rect x="0.5" y="38.5" width="244" height="226" id="rect00012" />

      </clipPath>
      <g id="g00035" clip-path="url(#clipPath00011)" >
               <g id="g00036" >
                     <defs>
                           <rect x="-1" y="-1" width="2" height="2" id="rect00004" />

            </defs>
            <g id="g00037" >
                           <use href="#rect00004" xlink:href="#rect00004" stroke-width="0" stroke="black" fill="#1f77b4" opacity="1" fill-opacity="1" id="use00183" transform="translate(122.5 151.5) scale(100 100)" />

            </g>

         </g>

      </g>
      <rect stroke-width="1" stroke="black" fill="none" x="0.5" y="38.5" width="244" height="226" id="rect00012" />
      <text x="122.5" y="26.5" font-size="24" font-family="sans-serif" text-anchor="middle" id="text00038" >
's'      </text>

   </svg>
   <svg xmlns="http://www.w3.org/2000/svg" xmlns:xlink="http://www.w3.org/1999/xlink" viewBox="0 0 245 265" id="svg00013" x="494.941" y="267.663" width="245" height="265" >
         <clipPath id="clipPath00012" >
               <rect x="0.5" y="38.5" width="244" height="226" id="rect00013" />

      </clipPath>
      <g id="g00038" clip-path="url(#clipPath00012)" >
               <g id="g00039" >
                     <defs>
                           <polygon points="0.15,0.15 1,0.15 1,-0.15 0.15,-0.15 0.15,-1 -0.15,-1 -0.15,-0.15 -1,-0.15 -1,0.15 -0.15,0.15 -0.15,1 0.15,1 " id="polygon00005" />

            </defs>
            <g id="g00040" >
                           <use href="#polygon00005" xlink:href="#polygon00005" stroke-width="0" stroke="black" fill="#1f77b4" opacity="1" fill-opacity="1" id="use00184" transform="translate(122.5 151.5) scale(100 100)" />

            </g>

         </g>

      </g>
      <rect stroke-width="1" stroke="black" fill="none" x="0.5" y="38.5" width="244" height="226" id="rect00013" />
      <text x="122.5" y="26.5" font-size="24" font-family="sans-serif" text-anchor="middle" id="text00039" >
'+'      </text>

   </svg>
   <svg xmlns="http://www.w3.org/2000/svg" xmlns:xlink="http://www.w3.org/1999/xlink" viewBox="0 0 245 265" id="svg00014" x="742.411" y="267.663" width="245" height="265" >
         <clipPath id="clipPath00013" >
               <rect x="0.5" y="38.5" width="244" height="226" id="rect00014" />

      </clipPath>
      <g id="g00041" clip-path="url(#clipPath00013)" >
               <g id="g00042" >
                     <defs>
                           <polygon points="0.35,0.35 1,0.35 1,-0.35 0.35,-0.35 0.35,-1 -0.35,-1 -0.35,-0.35 -1,-0.35 -1,0.35 -0.35,0.35 -0.35,1 0.35,1 " id="polygon00006" />

            </defs>
            <g id="g00043" >
                           <use href="#polygon00006" xlink:href="#polygon00006" stroke-width="0" stroke="black" fill="#1f77b4" opacity="1" fill-opacity="1" id="use00185" transform="translate(122.5 151.5) scale(100 100)" />

            </g>

         </g>

      </g>
      <rect stroke-width="1" stroke="black" fill="none" x="0.5" y="38.5" width="244" height="226" id="rect00014" />
      <text x="122.5" y="26.5" font-size="24" font-family="sans-serif" text-anchor="middle" id="text00040" >
'P'      </text>

   </svg>
   <svg xmlns="http://www.w3.org/2000/svg" xmlns:xlink="http://www.w3.org/1999/xlink" viewBox="0 0 245 265" id="svg00015" x="989.882" y="267.663" width="245" height="265" >
         <clipPath id="clipPath00014" >
               <rect x="0.5" y="38.5" width="244" height="226" id="rect00015" />

      </clipPath>
      <g id="g00044" clip-path="url(#clipPath00014)" >
               <g id="g00045" >
                     <defs>
                           <polygon points="0.15,0.15 1.41421,0.15 1.41421,-0.15 0.15,-0.15 0.15,-1.41421 -0.15,-1.41421 -0.15,-0.15 -1.41421,-0.15 -1.41421,0.15 -0.15,0.15 -0.15,1.41421 0.15,1.41421 " id="polygon00007" transform="rotate(45 0 0)" />

            </defs>
            <g id="g00046" >
                           <use href="#polygon00007" xlink:href="#polygon00007" stroke-width="0" stroke="black" fill="#1f77b4" opacity="1" fill-opacity="1" id="use00186" transform="translate(122.5 151.5) scale(100 100)" />

            </g>

         </g>

      </g>
      <rect stroke-width="1" stroke="black" fill="none" x="0.5" y="38.5" width="244" height="226" id="rect00015" />
      <text x="122.5" y="26.5" font-size="24" font-family="sans-serif" text-anchor="middle" id="text00041" >
'x'      </text>

   </svg>
   <svg xmlns="http://www.w3.org/2000/svg" xmlns:xlink="http://www.w3.org/1999/xlink" viewBox="0 0 245 265" id="svg00016" x="1237.35" y="267.663" width="245" height="265" >
         <clipPath id="clipPath00015" >
               <rect x="0.5" y="38.5" width="244" height="226" id="rect00016" />

      </clipPath>
      <g id="g00047" clip-path="url(#clipPath00015)" >
               <g id="g00048" >
                     <defs>
                           <polygon points="0.35,0.35 1.06066,0.35 1.06066,-0.35 0.35,-0.35 0.35,-1.06066 -0.35,-1.06066 -0.35,-0.35 -1.06066,-0.35 -1.06066,0.35 -0.35,0.35 -0.35,1.06066 0.35,1.06066 " id="polygon00008" transform="rotate(45 0 0)" />

            </defs>
            <g id="g00049" >
                           <use href="#polygon00008" xlink:href="#polygon00008" stroke-width="0" stroke="black" fill="#1f77b4" opacity="1" fill-opacity="1" id="use00187" transform="translate(122.5 151.5) scale(100 100)" />

            </g>

         </g>

      </g>
      <rect stroke-width="1" stroke="black" fill="none" x="0.5" y="38.5" width="244" height="226" id="rect00016" />
      <text x="122.5" y="26.5" font-size="24" font-family="sans-serif" text-anchor="middle" id="text00042" >
'X'      </text>

   </svg>

</svg>
